# Blender 5.1.2
# www.blender.org
mtllib pylons.mtl
o Aerialway_Cab
v -0.029902 -0.489385 -1.006545
v -0.029902 -0.489385 -0.592639
v -0.029902 0.489385 -1.006545
v -0.029902 0.489385 -0.592639
v 0.029901 -0.489385 -0.592639
v 0.029901 0.489385 -0.592639
v 0.029901 0.489385 -0.943522
v 0.029901 -0.489385 -0.943522
v 0.360547 0.489385 -0.943522
v 0.360547 0.489385 -1.006545
v 0.360547 -0.489385 -1.006545
v 0.360547 -0.489385 -0.943522
v -0.029902 -0.025807 -0.592639
v -0.029902 0.025807 -0.592639
v 0.029901 0.025807 -0.592639
v 0.029901 -0.025807 -0.592639
v -0.029902 -0.025807 0.000000
v -0.029902 0.025807 0.000000
v 0.029901 0.025807 0.000000
v 0.029901 -0.025807 0.000000
vn -0.5774 -0.5774 -0.5774
vn -0.5774 -0.5774 0.5774
vn -0.5774 0.5774 -0.5774
vn -0.5774 0.5774 0.5774
vn 0.5774 -0.5774 0.5774
vn 0.5774 0.5774 0.5774
vn 0.5774 0.5774 -0.5774
vn 0.5774 -0.5774 -0.5774
vn -0.9045 -0.3015 0.3015
vn -0.9045 0.3015 0.3015
vn 0.9045 0.3015 0.3015
vn 0.9045 -0.3015 0.3015
vt 0.783447 0.869682
vt 0.807189 0.869682
vt 0.807189 0.877597
vt 0.807189 0.885511
vt 0.807189 0.893425
vt 0.783447 0.893425
vt 0.759704 0.917168
vt 0.783447 0.917168
vt 0.783447 0.940910
vt 0.759704 0.940910
vt 0.853069 0.850365
vt 0.956960 0.850365
vt 0.956960 0.892340
vt 0.956960 0.934316
vt 0.956960 0.976291
vt 0.853069 0.976291
vt 0.799220 0.968596
vt 0.799220 0.944853
vt 0.803374 0.944853
vt 0.822962 0.944853
vt 0.822962 0.968596
vt 0.822962 0.936939
vt 0.846705 0.936939
vt 0.846705 0.944853
vt 0.799220 0.921111
vt 0.803374 0.921111
vt 0.799220 0.897368
vt 0.822962 0.897368
vt 0.822962 0.921111
vt 0.846705 0.921111
vt 0.846705 0.929025
vt 0.822962 0.929025
vt 0.822962 0.889454
vt 0.822962 0.881540
s 1
usemtl pylones
f 1/1/1 2/2/2 13/3/9 14/4/10 4/5/4 3/6/3
f 3/7/3 10/8/7 11/9/8 1/10/1
f 7/11/6 6/12/6 15/13/11 16/14/12 5/15/5 8/16/5
f 1/17/1 11/18/8 12/19/5 8/19/5 5/20/5 2/21/2
f 16/22/12 13/23/9 2/24/2 5/20/5
f 10/25/7 9/26/6 12/19/5 11/18/8
f 7/11/6 8/16/5 12/16/5 9/11/6
f 7/26/6 9/26/6 10/25/7 3/27/3 4/28/4 6/29/6
f 6/29/6 4/30/4 14/31/10 15/32/11
f 13/23/9 16/22/12 20/22/5 17/23/2
f 19/32/6 18/31/4 17/23/2 20/22/5
f 16/22/12 15/32/11 19/32/6 20/22/5
f 14/33/10 13/34/9 17/34/2 18/33/4
f 15/32/11 14/31/10 18/31/4 19/32/6
