# Blender 5.1.2
# www.blender.org
mtllib pylons.mtl
o FencesPost
v 0.000000 0.080000 -1.000000
v 0.000000 0.080000 1.300000
v 0.069282 -0.040000 -1.000000
v 0.069282 -0.040000 1.300000
v -0.069282 -0.040000 -1.000000
v -0.069282 -0.040000 1.300000
vn -0.0000 0.8320 -0.5547
vn -0.0000 0.8321 0.5547
vn 0.7206 -0.4160 0.5547
vn 0.7206 -0.4160 -0.5547
vn -0.7206 -0.4160 0.5547
vn -0.7206 -0.4160 -0.5547
vt 0.725730 0.003936
vt 0.725730 0.318090
vt 0.649193 0.318090
vt 0.649193 0.003936
vt 0.572657 0.318090
vt 0.572657 0.003936
vt 0.649256 0.145198
vt 0.611328 0.178044
vt 0.573400 0.145198
vt 0.496121 0.318090
vt 0.496121 0.003936
s 1
usemtl Material.001
f 1/1/1 2/2/2 4/3/3 3/4/4
f 3/4/4 4/3/3 6/5/5 5/6/6
f 4/7/3 2/8/2 6/9/5
f 5/6/6 6/5/5 2/10/2 1/11/1
