# Blender 5.1.2
# www.blender.org
mtllib pylons.mtl
o Pylon_Large_150kV
v -3.324970 2.874000 19.533159
v -7.313700 1.481640 29.479851
v 0.000030 2.873300 19.533060
v 3.325030 -2.888000 19.535540
v 7.313650 -1.464120 29.476990
v 0.000030 -2.888690 19.535629
v -7.313700 -1.467180 29.477430
v -3.324970 -2.889390 19.535730
v 7.313650 1.478580 29.479420
v 3.325030 2.872610 19.532961
v 6.542480 -0.745090 34.501411
v -6.798410 -0.982860 32.860210
v 6.798350 -0.980010 32.859798
v 9.305620 -0.042540 40.336262
v 6.542480 0.774700 34.505871
v -8.205020 0.777790 34.506302
v -13.711550 0.000000 32.914780
v -8.205020 -0.748170 34.501850
v -6.542510 0.777440 34.506248
v 6.798350 1.004660 32.863701
v -6.798400 1.007510 32.864109
v -9.305720 -0.038790 40.337891
v -6.542520 -0.747820 34.501801
v 8.204980 0.774350 34.505821
v 13.697810 0.000000 32.903339
v 7.912210 1.001360 32.885590
v 8.204980 -0.744740 34.501362
v 7.912200 -0.976650 32.881660
v -7.909700 -0.978350 32.893349
v -7.909700 1.003100 32.897282
v -13.424680 -0.185170 32.101978
v -13.345370 -0.264490 32.107380
v -13.795030 -0.185170 32.101978
v -13.874340 0.264490 32.107380
v -13.795030 0.185170 32.101978
v -13.424680 0.185170 32.101978
v -13.424680 -0.185170 28.101980
v -13.609860 -0.356180 27.809950
v -13.424680 0.185170 28.101980
v -13.795030 -0.185170 28.101980
v -13.795030 -0.356180 28.101980
v -13.795030 0.185170 28.101980
v -13.424680 0.356180 28.101980
v -13.345370 0.264490 32.107380
v -13.703480 -0.093630 32.522980
v -13.874340 -0.264490 32.107380
v -13.516230 0.093630 32.522980
v -13.516230 -0.093630 32.522980
v -13.703480 0.093630 32.522980
v -13.609860 0.356180 27.809950
v -13.795030 0.356180 28.101980
v -13.424680 -0.356180 28.101980
v -0.185170 -0.185170 32.101978
v 0.185170 -0.185170 28.101980
v 0.185170 -0.185170 32.101978
v -0.185170 0.185170 28.101980
v -0.185170 -0.185170 28.101980
v 0.185170 0.185170 32.101978
v 0.185170 0.185170 28.101980
v -0.185170 0.185170 32.101978
v 13.424680 -0.185170 32.101978
v 13.795030 -0.185170 28.101980
v 13.795030 -0.185170 32.101978
v 13.424680 0.185170 28.101980
v 13.424680 -0.185170 28.101980
v 13.795030 0.185170 32.101978
v 13.795030 0.185170 28.101980
v 13.424680 0.185170 32.101978
v 5.025490 5.596960 0.080060
v 5.025510 -5.670730 0.092380
v -0.264490 0.264490 32.107380
v 0.264490 -0.264490 32.107380
v -0.264490 -0.264490 32.107380
v -0.185170 -0.356180 28.101980
v 0.000000 -0.356180 27.809950
v 0.185170 0.356180 28.101980
v -0.093630 -0.093630 32.522980
v 0.093630 0.093630 32.522980
v 0.264490 0.264490 32.107380
v 0.093630 -0.093630 32.522980
v -0.093630 0.093630 32.522980
v 0.000000 0.356180 27.809950
v -0.185170 0.356180 28.101980
v 0.185170 -0.356180 28.101980
v 13.345370 0.264490 32.107380
v 13.874340 -0.264490 32.107380
v 13.345370 -0.264490 32.107380
v 13.424680 -0.356180 28.101980
v 13.609860 -0.356180 27.809950
v 13.795030 0.356180 28.101980
v 13.516230 -0.093630 32.522980
v 13.703480 0.093630 32.522980
v 13.874340 0.264490 32.107380
v 13.703480 -0.093630 32.522980
v 13.516230 0.093630 32.522980
v 13.609860 0.356180 27.809950
v 13.424680 0.356180 28.101980
v 13.795030 -0.356180 28.101980
v -5.025230 -5.672840 0.092680
v -5.025250 5.599070 0.080360
vn -0.6481 0.7612 0.0240
vn -0.3578 0.9333 -0.0311
vn 0.0003 0.8990 0.4380
vn 0.6483 -0.7609 0.0265
vn 0.3586 -0.9331 -0.0274
vn 0.0002 -0.8979 0.4401
vn -0.3597 -0.9327 -0.0251
vn -0.6482 -0.7610 0.0265
vn 0.3567 0.9336 -0.0334
vn 0.6482 0.7611 0.0240
vn -0.2518 -0.8096 0.5302
vn 0.3414 -0.9092 -0.2381
vn -0.3411 -0.9093 -0.2383
vn 0.3077 -0.0092 0.9514
vn -0.2501 0.8086 0.5326
vn -0.3890 0.8631 0.3221
vn -0.9911 -0.0023 -0.1328
vn -0.3899 -0.8641 0.3184
vn 0.2505 0.8085 0.5325
vn -0.3391 0.9095 -0.2404
vn 0.3395 0.9094 -0.2402
vn -0.3076 -0.0086 0.9515
vn 0.2519 -0.8095 0.5302
vn 0.3898 0.8627 0.3222
vn 0.9910 -0.0023 -0.1339
vn 0.3849 0.8955 -0.2233
vn 0.3909 -0.8637 0.3180
vn 0.3858 -0.8955 -0.2218
vn -0.3854 -0.8958 -0.2215
vn -0.3845 0.8958 -0.2229
vn 0.3267 -0.3267 -0.8869
vn 0.6580 -0.6580 -0.3662
vn -0.3267 -0.3267 -0.8869
vn -0.6580 0.6580 -0.3662
vn -0.3267 0.3267 -0.8869
vn 0.3267 0.3267 -0.8869
vn 0.9370 -0.3485 -0.0248
vn -0.0000 -0.5576 -0.8301
vn 0.9370 0.3484 -0.0248
vn -0.9370 -0.3484 -0.0247
vn -0.7299 -0.5533 0.4014
vn -0.9370 0.3484 -0.0248
vn 0.7299 0.5533 0.4014
vn 0.6580 0.6580 -0.3663
vn -0.4522 -0.4522 0.7688
vn -0.6580 -0.6580 -0.3662
vn 0.4522 0.4522 0.7688
vn 0.4522 -0.4522 0.7688
vn -0.4522 0.4522 0.7688
vn -0.0000 0.5577 -0.8301
vn -0.7299 0.5533 0.4014
vn 0.7299 -0.5533 0.4014
vn 0.9370 0.3484 -0.0247
vn -0.9370 0.3485 -0.0248
vn -0.9370 -0.3485 -0.0248
vn 0.6873 0.7086 0.1593
vn 0.6871 -0.7084 0.1615
vn -0.6580 -0.6580 -0.3663
vn 0.6580 0.6580 -0.3662
vn -0.6869 -0.7085 0.1615
vn -0.6871 0.7088 0.1594
vt 0.399400 0.490443
vt 0.712327 0.450375
vt 0.399865 0.444470
vt 0.399569 0.490845
vt 0.712329 0.450198
vt 0.399689 0.444942
vt 0.399939 0.444455
vt 0.712333 0.450490
vt 0.399475 0.490428
vt 0.399713 0.444771
vt 0.712454 0.450354
vt 0.399459 0.490701
vt 0.311464 0.594439
vt 0.401886 0.488113
vt 0.400826 0.594782
vt 0.002341 0.548670
vt 0.307766 0.569873
vt 0.002108 0.592503
vt 0.000000 0.544751
vt 0.280308 0.522008
vt 0.000000 0.500130
vt 0.310953 0.488312
vt 0.400604 0.594854
vt 0.401390 0.488185
vt 0.001630 0.549030
vt 0.307695 0.570341
vt 0.002538 0.593018
vt 0.310783 0.489953
vt 0.000288 0.444901
vt 0.311598 0.445477
vt 0.001472 0.548582
vt 0.307527 0.569684
vt 0.002494 0.592391
vt 0.310315 0.445147
vt 0.000000 0.445150
vt 0.311137 0.491066
vt 0.311141 0.491065
vt 0.000000 0.445147
vt 0.310306 0.445145
vt 0.000000 0.500200
vt 0.280387 0.522224
vt 0.000000 0.544807
vt 0.310313 0.445140
vt 0.000000 0.445156
vt 0.311137 0.491065
vt 0.311464 0.488228
vt 0.311139 0.491066
vt 0.000000 0.445153
vt 0.310310 0.445141
vt 0.311724 0.445547
vt 0.000611 0.444898
vt 0.310809 0.489999
vt 0.311217 0.594524
vt 0.045357 0.020233
vt 0.051354 0.017234
vt 0.017354 0.020233
vt 0.011357 0.037233
vt 0.017354 0.034234
vt 0.045357 0.034234
vt 0.045357 0.013767
vt 0.017354 0.040699
vt 0.051354 0.037233
vt 0.024276 0.023694
vt 0.011357 0.017234
vt 0.038435 0.030773
vt 0.038435 0.023694
vt 0.024276 0.030773
vt 0.045357 0.040699
vt 0.017354 0.013767
vt 0.145034 0.005504
vt 0.167855 0.297696
vt 0.167855 0.005504
vt 0.145034 0.297696
vt 0.466886 0.000000
vt 0.438476 0.198149
vt 0.244626 0.000000
vt 0.272630 0.198149
vt 0.294969 0.340515
vt 0.400776 0.444999
vt 0.417269 0.340050
vt 0.310732 0.445658
vt 0.402248 0.542345
vt 0.401016 0.445353
vt 0.310304 0.445286
vt 0.401110 0.445360
vt 0.311390 0.542607
vt 0.310638 0.445666
vt 0.400722 0.444976
vt 0.401792 0.542328
vt 0.310438 0.445275
vt 0.310900 0.489781
vt 0.402223 0.445336
vt 0.402073 0.489330
vt 0.001794 0.548516
vt 0.307277 0.569948
vt 0.001541 0.592526
vt 0.402013 0.488508
vt 0.401849 0.594116
vt 0.310669 0.488508
vt 0.000000 0.500230
vt 0.279507 0.522008
vt 0.000000 0.544651
vt 0.311144 0.489693
vt 0.002771 0.444620
vt 0.312094 0.445288
vt 0.310833 0.594116
vt 0.311621 0.445448
vt 0.002476 0.444740
vt 0.310645 0.489852
vt 0.312044 0.445636
vt 0.311923 0.445813
vt -0.000251 0.444791
vt 0.310729 0.489969
vt 0.402378 0.542351
vt 0.311369 0.542575
vt 0.311520 0.542599
vt 0.417187 0.340028
vt 0.294946 0.340510
vt 0.295180 0.340897
vt 0.417450 0.340406
vt 0.311747 0.542549
vt 0.401982 0.489501
vt -0.000130 0.444807
vt 0.311077 0.489746
vt 0.002867 0.444685
vt 0.312028 0.445341
vt 0.312100 0.445268
vt 0.002724 0.444607
vt 0.311149 0.489672
vt 0.401956 0.489404
vt 0.401909 0.445410
vt 0.400770 0.594277
vt 0.400901 0.488401
vt 0.311438 0.594277
vt 0.402037 0.445515
vt 0.402328 0.542315
vt 0.311314 0.488401
vt 0.000000 0.544772
vt 0.279656 0.522229
vt 0.000000 0.500242
vt 0.245982 0.000000
vt 0.358183 0.198546
vt 0.273625 0.198497
vt 0.243923 0.000127
vt 0.356943 0.198545
vt 0.466598 0.000000
vt 0.438546 0.198497
vt 0.468657 0.000129
vt 0.272384 0.198594
vt 0.439786 0.198595
vt 0.401902 0.489543
vt 0.402103 0.445531
s 1
usemtl pylones
f 1/1/1 2/2/2 3/3/3
f 4/4/4 5/5/5 6/6/6
f 6/7/6 7/8/7 8/9/8
f 3/10/3 9/11/9 10/12/10
f 11/13/11 12/14/12 13/15/13
f 11/16/11 14/17/14 15/18/15
f 16/19/16 17/20/17 18/21/18
f 19/22/19 20/23/20 21/24/21
f 19/25/19 22/26/22 23/27/23
f 24/28/24 25/29/25 26/30/26
f 24/31/24 14/32/14 27/33/27
f 13/34/13 5/35/5 28/36/28
f 29/37/29 7/38/7 12/39/12
f 29/40/29 17/41/17 30/42/30
f 21/43/21 2/44/2 30/45/30
f 12/14/12 11/13/11 23/46/23
f 26/47/26 9/48/9 20/49/20
f 28/50/28 25/51/25 27/52/27
f 20/23/20 19/22/19 15/53/15
f 31/54/31 32/55/32 33/56/33
f 33/56/33 34/57/34 35/58/35
f 35/58/35 34/57/34 36/59/36
f 36/59/36 32/55/32 31/54/31
f 37/56/37 38/60/38 39/58/39
f 40/54/40 41/60/41 37/56/37
f 42/59/42 38/60/38 40/54/40
f 39/58/39 43/61/43 42/59/42
f 32/55/32 36/59/36 44/62/44
f 32/55/32 45/63/45 46/64/46
f 44/62/44 36/59/36 34/57/34
f 44/62/44 47/65/47 32/55/32
f 34/57/34 33/56/33 46/64/46
f 34/57/34 47/65/47 44/62/44
f 46/64/46 33/56/33 32/55/32
f 46/64/46 45/63/45 34/57/34
f 48/66/48 32/55/32 47/65/47
f 48/66/48 45/63/45 32/55/32
f 47/65/47 34/57/34 49/67/49
f 47/65/47 45/63/45 48/66/48
f 49/67/49 34/57/34 45/63/45
f 49/67/49 45/63/45 47/65/47
f 50/68/50 42/59/42 51/68/51
f 50/61/50 39/58/39 38/60/38
f 51/68/51 42/59/42 43/61/43
f 51/68/51 43/61/43 50/68/50
f 43/61/43 39/58/39 50/61/50
f 38/60/38 37/56/37 52/69/52
f 38/60/38 42/59/42 50/68/50
f 52/69/52 37/56/37 41/60/41
f 52/69/52 41/60/41 38/69/38
f 41/60/41 40/54/40 38/60/38
f 53/70/33 54/71/37 55/72/31
f 53/70/33 56/73/42 57/73/40
f 58/72/36 54/71/37 59/71/53
f 58/72/36 56/73/42 60/70/35
f 60/70/35 56/73/42 53/70/33
f 57/73/40 54/71/37 53/70/33
f 54/71/37 58/72/36 55/72/31
f 59/71/53 56/73/42 58/72/36
f 61/70/33 62/71/37 63/72/31
f 61/70/33 64/73/54 65/73/55
f 66/72/36 62/71/37 67/71/53
f 66/72/36 64/73/54 68/70/35
f 68/70/35 64/73/54 61/70/33
f 65/73/55 62/71/37 61/70/33
f 62/71/37 66/72/36 63/72/31
f 67/71/53 64/73/54 66/72/36
f 69/74/56 10/75/10 70/76/57
f 70/76/57 10/75/10 4/77/4
f 8/78/8 2/79/2 1/80/1
f 5/81/5 20/82/20 9/83/9
f 7/84/7 2/79/2 8/78/8
f 2/85/2 12/86/12 7/87/7
f 9/88/9 26/89/26 5/90/5
f 18/91/18 12/92/12 23/93/23
f 18/94/18 22/95/22 16/96/16
f 23/97/23 11/98/11 19/99/19
f 27/100/27 25/101/25 24/102/24
f 27/103/27 14/104/14 11/105/11
f 15/106/15 19/99/19 11/98/11
f 15/107/15 14/108/14 24/109/24
f 29/110/29 12/92/12 18/91/18
f 30/111/30 17/112/17 16/113/16
f 12/86/12 2/85/2 21/114/21
f 28/115/28 5/90/5 26/89/26
f 20/82/20 5/81/5 13/116/13
f 31/70/31 37/73/37 36/70/36
f 33/72/33 37/73/37 31/70/31
f 33/72/33 42/71/42 40/71/40
f 35/72/35 42/71/42 33/72/33
f 36/70/36 37/73/37 39/73/39
f 36/70/36 42/71/42 35/72/35
f 40/71/40 37/73/37 33/72/33
f 39/73/39 42/71/42 36/70/36
f 53/54/33 71/62/34 60/59/35
f 53/54/33 72/64/32 73/55/58
f 55/56/31 72/64/32 53/54/33
f 58/58/36 72/64/32 55/56/31
f 60/59/35 71/62/34 58/58/36
f 57/56/40 74/69/41 54/54/37
f 54/54/37 75/60/38 59/59/53
f 59/59/53 76/68/43 56/58/42
f 56/58/42 75/69/38 57/56/40
f 73/55/58 77/66/45 71/62/34
f 71/62/34 53/54/33 73/55/58
f 71/62/34 78/67/47 79/57/44
f 79/57/44 58/58/36 71/62/34
f 79/57/44 78/67/47 72/64/32
f 72/64/32 58/58/36 79/57/44
f 72/64/32 77/66/45 73/55/58
f 77/66/45 72/64/32 80/63/48
f 77/66/45 78/67/47 81/65/49
f 81/65/49 71/62/34 77/66/45
f 78/67/47 71/62/34 81/65/49
f 78/67/47 77/66/45 80/63/48
f 80/63/48 72/64/32 78/67/47
f 82/68/50 59/59/53 75/60/38
f 82/68/50 56/58/42 83/61/51
f 82/61/50 83/61/51 76/68/43
f 76/68/43 59/59/53 82/68/50
f 83/61/51 56/58/42 76/68/43
f 75/60/38 54/54/37 84/60/52
f 75/69/38 56/58/42 82/68/50
f 75/60/38 84/60/52 74/69/41
f 74/69/41 57/56/40 75/69/38
f 84/60/52 54/54/37 74/69/41
f 61/54/33 85/62/34 68/59/35
f 61/54/33 86/64/32 87/55/58
f 63/56/31 86/64/32 61/54/33
f 66/58/36 86/64/32 63/56/31
f 68/59/35 85/62/34 66/58/36
f 65/56/55 88/69/41 62/54/37
f 62/54/37 89/60/38 67/59/53
f 67/59/53 90/68/43 64/58/54
f 64/58/54 89/69/38 65/56/55
f 87/55/58 91/66/45 85/62/34
f 85/62/34 61/54/33 87/55/58
f 85/62/34 92/67/47 93/57/59
f 93/57/59 66/58/36 85/62/34
f 93/57/59 92/67/47 86/64/32
f 86/64/32 66/58/36 93/57/59
f 86/64/32 91/66/45 87/55/58
f 91/66/45 86/64/32 94/63/48
f 91/66/45 92/67/47 95/65/49
f 95/65/49 85/62/34 91/66/45
f 92/67/47 85/62/34 95/65/49
f 92/67/47 91/66/45 94/63/48
f 94/63/48 86/64/32 92/67/47
f 96/68/50 67/59/53 89/60/38
f 96/68/50 64/58/54 97/61/51
f 96/61/50 97/61/51 90/68/43
f 90/68/43 67/59/53 96/68/50
f 97/61/51 64/58/54 90/68/43
f 89/60/38 62/54/37 98/60/52
f 89/69/38 64/58/54 96/68/50
f 89/60/38 98/60/52 88/69/41
f 88/69/41 65/56/55 89/69/38
f 98/60/52 62/54/37 88/69/41
f 99/76/60 8/77/8 100/74/61
f 100/74/61 8/77/8 1/75/1
f 10/117/10 5/90/5 4/118/4
f 6/119/6 5/81/5 3/120/3
f 3/120/3 5/81/5 9/83/9
f 7/84/7 29/121/29 2/79/2
f 9/88/9 5/90/5 10/117/10
f 11/122/11 28/50/28 27/52/27
f 18/91/18 17/123/17 29/110/29
f 16/124/16 22/125/22 19/126/19
f 23/127/23 22/128/22 18/129/18
f 24/28/24 26/30/26 15/130/15
f 15/130/15 26/30/26 20/131/20
f 13/132/13 12/133/12 20/134/20
f 13/135/13 28/50/28 11/122/11
f 30/136/30 2/79/2 29/121/29
f 21/137/21 20/134/20 12/133/12
f 26/138/26 25/139/25 28/140/28
f 99/141/60 6/142/6 8/143/8
f 100/144/61 3/145/3 69/146/56
f 69/146/56 3/145/3 10/147/10
f 70/148/57 6/142/6 99/141/60
f 1/149/1 3/145/3 100/144/61
f 4/150/4 6/142/6 70/148/57
f 6/119/6 2/85/2 7/87/7
f 3/120/3 2/85/2 6/119/6
f 19/151/19 30/111/30 16/113/16
f 21/152/21 30/111/30 19/151/19
