# Blender 5.1.2
# www.blender.org
mtllib pylons.mtl
o Pylon_Aerialway_rollers
usemtl pylones
v 0.332012 2.867223 8.218772
v 0.332012 2.747930 8.218772
v 0.508789 2.867223 8.145549
v 0.508789 2.747930 8.145549
v 0.582012 2.867223 7.968772
v 0.582012 2.747930 7.968772
v 0.508789 2.867223 7.791996
v 0.508789 2.747930 7.791996
v 0.332012 2.867223 7.718772
v 0.332012 2.747930 7.718772
v 0.155236 2.867223 7.791995
v 0.155236 2.747930 7.791995
v 0.082012 2.867223 7.968772
v 0.082012 2.747930 7.968772
v 0.155236 2.867223 8.145549
v 0.155236 2.747930 8.145549
v 1.215994 2.635178 7.900117
v 1.215994 2.635178 8.037427
v 1.215994 2.764587 7.900117
v 1.215994 2.764587 8.037427
v 0.895691 2.867223 8.218772
v 0.895691 2.747930 8.218772
v 1.072468 2.867223 8.145549
v 1.072468 2.747930 8.145549
v 1.145691 2.867223 7.968772
v 1.145691 2.747930 7.968772
v 1.072468 2.867223 7.791996
v 1.072468 2.747930 7.791996
v 0.895691 2.867223 7.718772
v 0.895691 2.747930 7.718772
v 0.718914 2.867223 7.791995
v 0.718914 2.747930 7.791995
v 0.645691 2.867223 7.968772
v 0.645691 2.747930 7.968772
v 0.718914 2.867223 8.145549
v 0.718914 2.747930 8.145549
v -0.332012 2.867223 8.218772
v -0.332012 2.747930 8.218772
v -0.508789 2.867223 8.145549
v -0.508789 2.747930 8.145549
v -0.582012 2.867223 7.968772
v -0.582012 2.747930 7.968772
v -0.508789 2.867223 7.791996
v -0.508789 2.747930 7.791996
v -0.332012 2.867223 7.718772
v -0.332012 2.747930 7.718772
v -0.155236 2.867223 7.791995
v -0.155236 2.747930 7.791995
v -0.082012 2.867223 7.968772
v -0.082012 2.747930 7.968772
v -0.155236 2.867223 8.145549
v -0.155236 2.747930 8.145549
v -1.215994 2.635178 7.900117
v -1.215994 2.635178 8.037427
v -1.215994 2.764587 7.900117
v -1.215994 2.764587 8.037427
v -0.895691 2.867223 8.218772
v -0.895691 2.747930 8.218772
v -1.072468 2.867223 8.145549
v -1.072468 2.747930 8.145549
v -1.145691 2.867223 7.968772
v -1.145691 2.747930 7.968772
v -1.072468 2.867223 7.791996
v -1.072468 2.747930 7.791996
v -0.895691 2.867223 7.718772
v -0.895691 2.747930 7.718772
v -0.718914 2.867223 7.791995
v -0.718914 2.747930 7.791995
v -0.645691 2.867223 7.968772
v -0.645691 2.747930 7.968772
v -0.718914 2.867223 8.145549
v -0.718914 2.747930 8.145549
v 0.332012 -2.867223 8.218772
v 0.332012 -2.747930 8.218772
v 0.508789 -2.867223 8.145549
v 0.508789 -2.747930 8.145549
v 0.582012 -2.867223 7.968773
v 0.582012 -2.747930 7.968773
v 0.508789 -2.867223 7.791996
v 0.508789 -2.747930 7.791996
v 0.332012 -2.867223 7.718773
v 0.332012 -2.747930 7.718773
v 0.155236 -2.867223 7.791996
v 0.155236 -2.747930 7.791996
v 0.082012 -2.867223 7.968773
v 0.082012 -2.747930 7.968773
v 0.155236 -2.867223 8.145549
v 0.155236 -2.747930 8.145549
v 1.215994 -2.635178 7.900118
v 1.215994 -2.635178 8.037427
v 1.215994 -2.764587 7.900118
v 1.215994 -2.764587 8.037427
v 0.895691 -2.867223 8.218772
v 0.895691 -2.747930 8.218772
v 1.072468 -2.867223 8.145549
v 1.072468 -2.747930 8.145549
v 1.145691 -2.867223 7.968773
v 1.145691 -2.747930 7.968773
v 1.072468 -2.867223 7.791996
v 1.072468 -2.747930 7.791996
v 0.895691 -2.867223 7.718773
v 0.895691 -2.747930 7.718773
v 0.718914 -2.867223 7.791996
v 0.718914 -2.747930 7.791996
v 0.645691 -2.867223 7.968773
v 0.645691 -2.747930 7.968773
v 0.718914 -2.867223 8.145549
v 0.718914 -2.747930 8.145549
v -0.332012 -2.867223 8.218772
v -0.332012 -2.747930 8.218772
v -0.508789 -2.867223 8.145549
v -0.508789 -2.747930 8.145549
v -0.582012 -2.867223 7.968773
v -0.582012 -2.747930 7.968773
v -0.508789 -2.867223 7.791996
v -0.508789 -2.747930 7.791996
v -0.332012 -2.867223 7.718773
v -0.332012 -2.747930 7.718773
v -0.155236 -2.867223 7.791996
v -0.155236 -2.747930 7.791996
v -0.082012 -2.867223 7.968773
v -0.082012 -2.747930 7.968773
v -0.155236 -2.867223 8.145549
v -0.155236 -2.747930 8.145549
v -1.215994 -2.635178 7.900118
v -1.215994 -2.635178 8.037427
v -1.215994 -2.764587 7.900118
v -1.215994 -2.764587 8.037427
v -0.895691 -2.867223 8.218772
v -0.895691 -2.747930 8.218772
v -1.072468 -2.867223 8.145549
v -1.072468 -2.747930 8.145549
v -1.145691 -2.867223 7.968773
v -1.145691 -2.747930 7.968773
v -1.072468 -2.867223 7.791996
v -1.072468 -2.747930 7.791996
v -0.895691 -2.867223 7.718773
v -0.895691 -2.747930 7.718773
v -0.718914 -2.867223 7.791996
v -0.718914 -2.747930 7.791996
v -0.645691 -2.867223 7.968773
v -0.645691 -2.747930 7.968773
v -0.718914 -2.867223 8.145549
v -0.718914 -2.747930 8.145549
vn -0.0000 0.6303 0.7764
vn -0.0000 -0.6303 0.7764
vn 0.5490 0.6303 0.5490
vn 0.5490 -0.6303 0.5490
vn 0.7764 0.6303 -0.0000
vn 0.7764 -0.6303 -0.0000
vn 0.5490 0.6303 -0.5490
vn 0.5490 -0.6303 -0.5490
vn -0.0000 0.6303 -0.7764
vn -0.0000 -0.6303 -0.7764
vn -0.5490 0.6303 -0.5490
vn -0.5490 -0.6303 -0.5490
vn -0.7764 0.6303 -0.0000
vn -0.7764 -0.6303 -0.0000
vn -0.5490 0.6303 0.5490
vn -0.5490 -0.6303 0.5490
vn 0.5774 -0.5774 -0.5774
vn 0.5774 -0.5774 0.5774
vn 0.5774 0.5774 -0.5774
vn 0.5774 0.5774 0.5774
vn -0.5774 -0.5774 -0.5774
vn -0.5774 -0.5774 0.5774
vn -0.5774 0.5774 -0.5774
vn -0.5774 0.5774 0.5774
vt 0.601397 0.863425
vt 0.601397 0.977321
vt 0.572923 0.977321
vt 0.572923 0.863425
vt 0.544449 0.977321
vt 0.544449 0.863425
vt 0.515975 0.977321
vt 0.515975 0.863425
vt 0.487501 0.977321
vt 0.487501 0.863425
vt 0.459026 0.977321
vt 0.459026 0.863425
vt 0.430552 0.977321
vt 0.430552 0.863425
vt 0.791379 0.962279
vt 0.746310 0.980947
vt 0.701241 0.962279
vt 0.682573 0.917210
vt 0.701241 0.872141
vt 0.746310 0.853473
vt 0.791379 0.872141
vt 0.810047 0.917210
vt 0.402078 0.977321
vt 0.402078 0.863425
vt 0.373604 0.977321
vt 0.373604 0.863425
vt 0.879095 0.980947
vt 0.924164 0.962279
vt 0.942832 0.917210
vt 0.924164 0.872141
vt 0.879095 0.853473
vt 0.834027 0.872141
vt 0.815359 0.917210
vt 0.834027 0.962279
vt 0.459026 0.920373
vt 0.515975 0.920373
s 1
f 1/1/1 2/2/2 4/3/4 3/4/3
f 3/4/3 4/3/4 6/5/6 5/6/5
f 5/6/5 6/5/6 8/7/8 7/8/7
f 7/8/7 8/7/8 10/9/10 9/10/9
f 9/10/9 10/9/10 12/11/12 11/12/11
f 11/12/11 12/11/12 14/13/14 13/14/13
f 4/15/4 2/16/2 16/17/16 14/18/14 12/19/12 10/20/10 8/21/8 6/22/6
f 13/14/13 14/13/14 16/23/16 15/24/15
f 15/24/15 16/23/16 2/25/2 1/26/1
f 1/27/1 3/28/3 5/29/5 7/30/7 9/31/9 11/32/11 13/33/13 15/34/15
f 17/35/17 53/35/21 55/12/23 19/12/19
f 19/12/19 20/8/20 18/36/18 17/35/17
f 56/8/24 54/36/22 18/36/18 20/8/20
f 53/35/21 17/35/17 18/36/18 54/36/22
f 19/12/19 55/12/23 56/8/24 20/8/20
f 21/1/1 22/2/2 24/3/4 23/4/3
f 23/4/3 24/3/4 26/5/6 25/6/5
f 25/6/5 26/5/6 28/7/8 27/8/7
f 27/8/7 28/7/8 30/9/10 29/10/9
f 29/10/9 30/9/10 32/11/12 31/12/11
f 31/12/11 32/11/12 34/13/14 33/14/13
f 24/15/4 22/16/2 36/17/16 34/18/14 32/19/12 30/20/10 28/21/8 26/22/6
f 33/14/13 34/13/14 36/23/16 35/24/15
f 35/24/15 36/23/16 22/25/2 21/26/1
f 21/27/1 23/28/3 25/29/5 27/30/7 29/31/9 31/32/11 33/33/13 35/34/15
f 37/1/1 39/4/15 40/3/16 38/2/2
f 39/4/15 41/6/13 42/5/14 40/3/16
f 41/6/13 43/8/11 44/7/12 42/5/14
f 43/8/11 45/10/9 46/9/10 44/7/12
f 45/10/9 47/12/7 48/11/8 46/9/10
f 47/12/7 49/14/5 50/13/6 48/11/8
f 40/15/16 42/22/14 44/21/12 46/20/10 48/19/8 50/18/6 52/17/4 38/16/2
f 49/14/5 51/24/3 52/23/4 50/13/6
f 51/24/3 37/26/1 38/25/2 52/23/4
f 37/27/1 51/34/3 49/33/5 47/32/7 45/31/9 43/30/11 41/29/13 39/28/15
f 55/12/23 53/35/21 54/36/22 56/8/24
f 57/1/1 59/4/15 60/3/16 58/2/2
f 59/4/15 61/6/13 62/5/14 60/3/16
f 61/6/13 63/8/11 64/7/12 62/5/14
f 63/8/11 65/10/9 66/9/10 64/7/12
f 65/10/9 67/12/7 68/11/8 66/9/10
f 67/12/7 69/14/5 70/13/6 68/11/8
f 60/15/16 62/22/14 64/21/12 66/20/10 68/19/8 70/18/6 72/17/4 58/16/2
f 69/14/5 71/24/3 72/23/4 70/13/6
f 71/24/3 57/26/1 58/25/2 72/23/4
f 57/27/1 71/34/3 69/33/5 67/32/7 65/31/9 63/30/11 61/29/13 59/28/15
f 73/1/2 75/4/4 76/3/3 74/2/1
f 75/4/4 77/6/6 78/5/5 76/3/3
f 77/6/6 79/8/8 80/7/7 78/5/5
f 79/8/8 81/10/10 82/9/9 80/7/7
f 81/10/10 83/12/12 84/11/11 82/9/9
f 83/12/12 85/14/14 86/13/13 84/11/11
f 76/15/3 78/22/5 80/21/7 82/20/9 84/19/11 86/18/13 88/17/15 74/16/1
f 85/14/14 87/24/16 88/23/15 86/13/13
f 87/24/16 73/26/2 74/25/1 88/23/15
f 73/27/2 87/34/16 85/33/14 83/32/12 81/31/10 79/30/8 77/29/6 75/28/4
f 89/35/19 91/12/17 127/12/21 125/35/23
f 91/12/17 89/35/19 90/36/20 92/8/18
f 128/8/22 92/8/18 90/36/20 126/36/24
f 125/35/23 126/36/24 90/36/20 89/35/19
f 91/12/17 92/8/18 128/8/22 127/12/21
f 93/1/2 95/4/4 96/3/3 94/2/1
f 95/4/4 97/6/6 98/5/5 96/3/3
f 97/6/6 99/8/8 100/7/7 98/5/5
f 99/8/8 101/10/10 102/9/9 100/7/7
f 101/10/10 103/12/12 104/11/11 102/9/9
f 103/12/12 105/14/14 106/13/13 104/11/11
f 96/15/3 98/22/5 100/21/7 102/20/9 104/19/11 106/18/13 108/17/15 94/16/1
f 105/14/14 107/24/16 108/23/15 106/13/13
f 107/24/16 93/26/2 94/25/1 108/23/15
f 93/27/2 107/34/16 105/33/14 103/32/12 101/31/10 99/30/8 97/29/6 95/28/4
f 109/1/2 110/2/1 112/3/15 111/4/16
f 111/4/16 112/3/15 114/5/13 113/6/14
f 113/6/14 114/5/13 116/7/11 115/8/12
f 115/8/12 116/7/11 118/9/9 117/10/10
f 117/10/10 118/9/9 120/11/7 119/12/8
f 119/12/8 120/11/7 122/13/5 121/14/6
f 112/15/15 110/16/1 124/17/3 122/18/5 120/19/7 118/20/9 116/21/11 114/22/13
f 121/14/6 122/13/5 124/23/3 123/24/4
f 123/24/4 124/23/3 110/25/1 109/26/2
f 109/27/2 111/28/16 113/29/14 115/30/12 117/31/10 119/32/8 121/33/6 123/34/4
f 127/12/21 128/8/22 126/36/24 125/35/23
f 129/1/2 130/2/1 132/3/15 131/4/16
f 131/4/16 132/3/15 134/5/13 133/6/14
f 133/6/14 134/5/13 136/7/11 135/8/12
f 135/8/12 136/7/11 138/9/9 137/10/10
f 137/10/10 138/9/9 140/11/7 139/12/8
f 139/12/8 140/11/7 142/13/5 141/14/6
f 132/15/15 130/16/1 144/17/3 142/18/5 140/19/7 138/20/9 136/21/11 134/22/13
f 141/14/6 142/13/5 144/23/3 143/24/4
f 143/24/4 144/23/3 130/25/1 129/26/2
f 129/27/2 131/28/16 133/29/14 135/30/12 137/31/10 139/32/8 141/33/6 143/34/4
