# Blender 5.1.2
# www.blender.org
mtllib pylons.mtl
o Pylon_small_50kV
v 0.000000 0.100000 0.000000
v 0.000000 0.100000 6.000000
v 0.058780 0.080900 0.000000
v 0.058780 0.080900 6.000000
v 0.095110 0.030900 0.000000
v 0.095110 0.030900 6.000000
v 0.095110 -0.030900 0.000000
v 0.095110 -0.030900 6.000000
v 0.058780 -0.080900 0.000000
v 0.058780 -0.080900 6.000000
v 0.000000 -0.100000 0.000000
v 0.000000 -0.100000 6.000000
v -0.058780 -0.080900 0.000000
v -0.058780 -0.080900 6.000000
v -0.095110 -0.030900 0.000000
v -0.095110 -0.030900 6.000000
v -0.095110 0.030900 0.000000
v -0.095110 0.030900 6.000000
v -0.058780 0.080900 0.000000
v -0.058780 0.080900 6.000000
v -0.750000 -0.033420 5.547890
v -0.750000 -0.033420 5.750000
v -0.750000 0.033420 5.547890
v -0.750000 0.033420 5.750000
v 0.750000 -0.033420 5.547890
v 0.750000 -0.033420 5.750000
v 0.750000 0.033420 5.547890
v 0.750000 0.033420 5.750000
vn -0.0000 1.0000 -0.0000
vn -0.0000 0.7653 0.6437
vn 0.5878 0.8090 -0.0000
vn 0.4498 0.6191 0.6437
vn 0.9511 0.3090 -0.0000
vn 0.7278 0.2365 0.6437
vn 0.9511 -0.3090 -0.0000
vn 0.7278 -0.2365 0.6437
vn 0.5878 -0.8090 -0.0000
vn 0.4498 -0.6191 0.6437
vn -0.0000 -1.0000 -0.0000
vn -0.0000 -0.7653 0.6437
vn -0.5878 -0.8090 -0.0000
vn -0.4498 -0.6191 0.6437
vn -0.9511 -0.3090 -0.0000
vn -0.7278 -0.2365 0.6437
vn -0.9511 0.3090 -0.0000
vn -0.7278 0.2365 0.6437
vn -0.5878 0.8090 -0.0000
vn -0.4498 0.6191 0.6437
vn -0.5774 -0.5774 -0.5774
vn -0.5774 -0.5774 0.5774
vn -0.5774 0.5774 -0.5774
vn -0.5774 0.5774 0.5774
vn 0.5774 -0.5774 -0.5774
vn 0.5774 -0.5774 0.5774
vn 0.5774 0.5774 -0.5774
vn 0.5774 0.5774 0.5774
vt 0.610989 0.005155
vt 0.610989 0.315351
vt 0.585206 0.315351
vt 0.585206 0.005155
vt 0.564347 0.315351
vt 0.564348 0.005155
vt 0.725132 0.005155
vt 0.725131 0.315351
vt 0.699348 0.315351
vt 0.699349 0.005155
vt 0.678490 0.315351
vt 0.678490 0.005155
vt 0.678489 0.315351
vt 0.657631 0.315351
vt 0.657631 0.005155
vt 0.631848 0.315351
vt 0.631848 0.005155
vt 0.564347 0.005155
vt 0.543488 0.315351
vt 0.543489 0.005155
vt 0.517705 0.315351
vt 0.517706 0.005155
vt 0.548354 0.303377
vt 0.507702 0.275401
vt 0.507702 0.240820
vt 0.548354 0.212843
vt 0.614131 0.202157
vt 0.679908 0.212843
vt 0.720560 0.240820
vt 0.720560 0.275401
vt 0.679908 0.303377
vt 0.614131 0.314063
vt 0.496847 0.315351
vt 0.496847 0.005155
vt 0.631847 0.315351
vt 0.496417 0.271164
vt 0.724315 0.271164
vt 0.724315 0.293996
vt 0.496417 0.293996
vt 0.583092 0.267407
vt 0.497137 0.267407
vt 0.497137 0.005775
vt 0.583092 0.005775
vt 0.724315 0.316829
vt 0.496417 0.316829
vt 0.669046 0.267407
vt 0.669046 0.005775
vt 0.697475 0.005775
vt 0.697475 0.267407
vt 0.725904 0.005775
vt 0.725904 0.267407
s 1
usemtl pylones
f 1/1/1 2/2/2 4/3/4 3/4/3
f 3/4/3 4/3/4 6/5/6 5/6/5
f 5/7/5 6/8/6 8/9/8 7/10/7
f 7/10/7 8/9/8 10/11/10 9/12/9
f 9/12/9 10/13/10 12/14/12 11/15/11
f 11/15/11 12/14/12 14/16/14 13/17/13
f 13/18/13 14/5/14 16/19/16 15/20/15
f 15/20/15 16/19/16 18/21/18 17/22/17
f 4/23/4 2/24/2 20/25/20 18/26/18 16/27/16 14/28/14 12/29/12 10/30/10 8/31/8 6/32/6
f 17/22/17 18/21/18 20/33/20 19/34/19
f 19/17/19 20/35/20 2/2/2 1/1/1
f 21/36/21 22/37/22 24/38/24 23/39/23
f 23/40/23 24/41/24 28/42/28 27/43/27
f 27/39/27 28/38/28 26/44/26 25/45/25
f 25/46/25 26/40/26 22/43/22 21/47/21
f 23/48/23 27/49/27 25/46/25 21/47/21
f 28/50/28 24/51/24 22/49/22 26/48/26
