# Blender 5.1.2
# www.blender.org
mtllib pylons.mtl
o Pylon_Medium_100kV
v -0.875000 0.875000 17.500000
v 0.875000 0.875000 19.250000
v 0.875000 0.875000 17.500000
v -0.875000 -0.875000 17.500000
v 0.875000 -0.875000 17.500000
v -0.875000 -0.875000 19.250000
v -6.200000 0.000000 17.597851
v 0.875000 0.874130 24.500000
v 0.142480 -0.141610 26.510700
v 0.875000 -0.874130 24.500000
v -0.875000 0.875000 19.250000
v 0.875000 -0.875000 19.250000
v 0.875000 -0.874900 20.416670
v -0.142480 0.141610 26.510700
v -0.875000 -0.873920 24.499941
v -0.142480 -0.141610 26.510700
v 0.142480 0.141610 26.510700
v -0.875000 0.874130 23.334690
v -5.116880 0.000150 23.399780
v -0.875000 0.874190 24.500000
v -0.875000 -0.873840 23.334560
v 0.875000 0.874900 20.416670
v 5.851920 0.000000 20.514509
v 0.875000 -0.874760 22.166670
v 0.875000 0.874760 22.166670
v -5.209470 -0.092440 23.189280
v -5.024300 -0.092440 21.189280
v -5.024300 -0.092440 23.189280
v -5.209470 0.092740 21.189280
v -5.209470 -0.092440 21.189280
v -5.024300 0.092740 23.189280
v -5.024300 0.092740 21.189280
v -5.209470 0.092740 23.189280
v -6.292590 -0.092590 17.387341
v -6.332240 0.132240 17.390039
v -6.292590 0.092590 17.387341
v -6.067760 -0.132240 17.390039
v -6.332240 -0.132240 17.390039
v -6.107410 -0.092590 17.387341
v -6.107410 0.092590 17.387341
v -6.292590 -0.092590 15.387350
v -6.292590 -0.178090 15.387350
v -6.107410 -0.092590 15.387350
v -6.200000 -0.178090 15.241330
v -6.107410 0.092590 15.387350
v -6.107410 0.178090 15.387350
v -6.292590 0.092590 15.387350
v -6.246810 -0.046810 17.597851
v -6.153190 0.046810 17.597851
v -6.067760 0.132240 17.390039
v -6.153190 -0.046810 17.597851
v -6.246810 0.046810 17.597851
v -6.200000 0.178090 15.241330
v -6.292590 0.178090 15.387350
v -6.107410 -0.178090 15.387350
v 5.759330 -0.092590 20.304010
v 5.944510 -0.092590 18.304010
v 5.944510 -0.092590 20.304010
v 5.759330 0.092590 18.304010
v 5.759330 -0.092590 18.304010
v 5.944510 0.092590 20.304010
v 5.944510 0.092590 18.304010
v 5.759330 0.092590 20.304010
v -1.745630 -1.745630 0.000000
v 1.745630 1.745630 0.000000
v -0.875000 0.874130 23.333330
v -0.875000 -0.874130 23.333330
v -1.745630 1.745630 0.000000
v 1.745630 -1.745630 0.000000
v -5.249130 0.132390 23.191980
v -4.984640 -0.132100 23.191980
v -5.249130 -0.132100 23.191980
v -5.209470 -0.177940 21.189280
v -5.116880 -0.177940 21.043270
v -5.024300 0.178240 21.189280
v -5.163700 -0.046670 23.399780
v -5.070070 0.046960 23.399780
v -4.984640 0.132390 23.191980
v -5.070070 -0.046670 23.399780
v -5.163700 0.046960 23.399780
v -5.116880 0.178240 21.043270
v -5.209470 0.178240 21.189280
v -5.024300 -0.177940 21.189280
v 5.719680 0.132240 20.306709
v 5.984170 -0.132240 20.306709
v 5.719680 -0.132240 20.306709
v 5.759330 -0.178090 18.304010
v 5.851920 -0.178090 18.158001
v 5.944510 0.178090 18.304010
v 5.805110 -0.046810 20.514509
v 5.898740 0.046810 20.514509
v 5.984170 0.132240 20.306709
v 5.898740 -0.046810 20.514509
v 5.805110 0.046810 20.514509
v 5.851920 0.178090 18.158001
v 5.759330 0.178090 18.304010
v 5.944510 -0.178090 18.304010
vn -0.3619 0.9013 -0.2380
vn 0.7071 0.7071 -0.0000
vn 0.7067 0.7067 0.0357
vn -0.3620 -0.9013 -0.2380
vn 0.7067 -0.7067 0.0357
vn -0.4308 -0.8626 0.2651
vn -0.9902 -0.0000 -0.1396
vn 0.6907 0.6906 0.2144
vn 0.4669 -0.4670 0.7510
vn 0.6906 -0.6907 0.2145
vn -0.4308 0.8626 0.2651
vn 0.7071 -0.7071 -0.0000
vn 0.3577 -0.8947 -0.2675
vn -0.4669 0.4669 0.7510
vn -0.3617 -0.8201 0.4434
vn -0.4669 -0.4670 0.7509
vn 0.4669 0.4669 0.7509
vn -0.9267 0.2798 -0.2511
vn -0.9930 -0.0000 -0.1183
vn -0.3616 0.8202 0.4434
vn -0.9267 -0.2797 -0.2511
vn 0.3577 0.8947 -0.2675
vn 0.9889 -0.0000 -0.1485
vn 0.4381 -0.8599 0.2622
vn 0.4381 0.8599 0.2622
vn -0.3267 -0.3267 -0.8869
vn 0.9370 -0.3485 -0.0248
vn 0.3267 -0.3267 -0.8869
vn -0.9370 0.3485 -0.0248
vn -0.9370 -0.3485 -0.0248
vn 0.3267 0.3267 -0.8869
vn 0.9370 0.3484 -0.0247
vn -0.3266 0.3267 -0.8869
vn -0.3266 -0.3267 -0.8869
vn -0.6580 0.6580 -0.3662
vn -0.3267 0.3267 -0.8869
vn 0.6580 -0.6580 -0.3662
vn -0.6579 -0.6580 -0.3663
vn 0.3266 0.3267 -0.8869
vn -0.7299 -0.5533 0.4014
vn -0.0000 -0.5576 -0.8301
vn 0.7299 0.5533 0.4014
vn -0.4522 -0.4522 0.7688
vn 0.4522 0.4522 0.7688
vn 0.6580 0.6580 -0.3663
vn 0.4522 -0.4522 0.7688
vn -0.4522 0.4522 0.7688
vn -0.0000 0.5577 -0.8301
vn -0.7299 0.5533 0.4014
vn 0.7299 -0.5533 0.4014
vn 0.3266 -0.3267 -0.8869
vn 0.9370 0.3485 -0.0248
vn -0.7054 -0.7054 0.0702
vn 0.7054 0.7054 0.0702
vn -0.7072 0.7070 0.0001
vn -0.7072 -0.7070 0.0002
vn -0.7054 0.7054 0.0702
vn 0.7054 -0.7054 0.0702
vn -0.6580 -0.6580 -0.3663
vt 0.311744 0.445439
vt 0.400916 0.489923
vt 0.400814 0.445388
vt 0.311756 0.445389
vt 0.400826 0.445440
vt 0.311653 0.489924
vt 0.000092 0.593103
vt 0.312176 0.570647
vt 0.000000 0.548513
vt 0.405140 0.679836
vt 0.344313 0.750879
vt 0.311980 0.679836
vt 0.311846 0.489974
vt 0.000036 0.593171
vt 0.312148 0.570814
vt 0.000000 0.548581
vt 0.400723 0.489975
vt 0.310034 0.488679
vt 0.402950 0.488679
vt 0.310043 0.518918
vt 0.344324 0.750878
vt 0.405143 0.679835
vt 0.372817 0.750879
vt 0.372806 0.750879
vt 0.712560 0.450069
vt 0.311992 0.679835
vt 0.712560 0.450476
vt 0.402940 0.518918
vt 0.400552 0.491014
vt 0.400984 0.444829
vt 0.145034 0.005504
vt 0.167855 0.297696
vt 0.167855 0.005504
vt 0.145034 0.297696
vt 0.045357 0.020233
vt 0.051354 0.037233
vt 0.045357 0.034234
vt 0.011357 0.017234
vt 0.051354 0.017234
vt 0.017354 0.020233
vt 0.017354 0.034234
vt 0.017354 0.013767
vt 0.045357 0.013767
vt 0.045357 0.040699
vt 0.038435 0.023694
vt 0.024276 0.030773
vt 0.011357 0.037233
vt 0.024276 0.023694
vt 0.038435 0.030773
vt 0.017354 0.040699
vt 0.400208 0.444520
vt 0.244626 0.000000
vt 0.311304 0.444520
vt 0.000010 0.445174
vt 0.466886 0.000000
vt 0.405385 0.679683
vt 0.372954 0.751032
vt 0.311731 0.679683
vt 0.400902 0.490019
vt 0.311998 0.490038
vt 0.400947 0.593741
vt 0.000010 0.445472
vt 0.312132 0.593760
vt 0.344161 0.751032
vt 0.372897 0.751050
vt 0.405354 0.679690
vt 0.344098 0.751049
vt 0.000000 0.593215
vt 0.312130 0.570652
vt 0.000000 0.548625
vt 0.311679 0.679680
vt -0.002470 0.594168
vt -0.000033 0.593575
vt 0.311451 0.571125
vt 0.000000 0.548842
vt 0.000885 0.499366
vt 0.282251 0.522485
vt 0.000475 0.545474
vt 0.245982 0.000000
vt 0.402309 0.444337
vt 0.402309 0.489251
vt 0.312481 0.444337
vt 0.466598 0.000000
vt 0.312481 0.489251
vt 0.402907 0.624755
vt 0.310057 0.564277
vt 0.402926 0.564277
vt 0.310076 0.624755
vt 0.312084 0.593889
vt 0.312152 0.623579
vt 0.243923 0.000127
vt 0.468657 0.000129
vt 0.310453 0.629239
vt 0.406162 0.629239
vt 0.310453 0.676800
vt 0.406162 0.676800
vt 0.311413 0.593839
vt 0.401222 0.623528
vt 0.400414 0.623580
vt 0.400552 0.564200
vt 0.401086 0.564148
vt 0.400984 0.519613
vt 0.311344 0.623529
vt 0.400654 0.519665
s 1
usemtl pylones
f 1/1/1 2/2/2 3/3/3
f 4/4/4 5/5/5 6/6/6
f 4/7/4 7/8/7 1/9/1
f 8/10/8 9/11/9 10/12/10
f 11/13/11 2/2/2 1/1/1
f 11/14/11 7/15/7 6/16/6
f 12/17/12 6/6/6 5/5/5
f 12/18/12 2/19/2 13/20/13
f 14/21/14 15/22/15 16/23/16
f 9/11/9 8/10/8 17/24/17
f 18/5/18 19/25/19 20/17/20
f 15/22/15 14/21/14 20/26/20
f 15/2/15 19/27/19 21/3/21
f 22/28/22 13/20/13 2/19/2
f 13/5/13 23/25/23 24/29/24
f 25/2/25 23/27/23 22/30/22
f 26/31/26 27/32/27 28/33/28
f 26/31/26 29/34/29 30/34/30
f 31/33/31 27/32/27 32/32/32
f 31/33/31 29/34/29 33/31/33
f 33/31/33 29/34/29 26/31/26
f 30/34/30 27/32/27 26/31/26
f 27/32/27 31/33/31 28/33/28
f 32/32/32 29/34/29 31/33/31
f 34/35/34 35/36/35 36/37/36
f 34/35/34 37/38/37 38/39/38
f 39/40/28 37/38/37 34/35/34
f 40/41/39 37/38/37 39/40/28
f 36/37/36 35/36/35 40/41/39
f 41/40/30 42/42/40 43/35/27
f 43/35/27 44/43/41 45/37/32
f 45/37/32 46/44/42 47/41/29
f 47/41/29 44/42/41 41/40/30
f 38/39/38 48/45/43 35/36/35
f 35/36/35 34/35/34 38/39/38
f 35/36/35 49/46/44 50/47/45
f 50/47/45 40/41/39 35/36/35
f 50/47/45 49/46/44 37/38/37
f 37/38/37 40/41/39 50/47/45
f 37/38/37 48/45/43 38/39/38
f 48/45/43 37/38/37 51/48/46
f 48/45/43 49/46/44 52/49/47
f 52/49/47 35/36/35 48/45/43
f 49/46/44 35/36/35 52/49/47
f 49/46/44 48/45/43 51/48/46
f 51/48/46 37/38/37 49/46/44
f 53/44/48 45/37/32 44/43/41
f 53/44/48 47/41/29 54/50/49
f 53/50/48 54/50/49 46/44/42
f 46/44/42 45/37/32 53/44/48
f 54/50/49 47/41/29 46/44/42
f 44/43/41 43/35/27 55/43/50
f 44/42/41 47/41/29 53/44/48
f 44/43/41 55/43/50 42/42/40
f 42/42/40 41/40/30 44/42/41
f 55/43/50 43/35/27 42/42/40
f 56/31/26 57/32/27 58/33/51
f 56/31/26 59/34/29 60/34/30
f 61/33/31 57/32/27 62/32/52
f 61/33/31 59/34/29 63/31/33
f 63/31/33 59/34/29 56/31/26
f 60/34/30 57/32/27 56/31/26
f 57/32/27 61/33/31 58/33/51
f 62/32/52 59/34/29 61/33/31
f 1/51/1 64/52/53 4/53/4
f 1/1/1 7/54/7 11/13/11
f 5/53/5 65/55/54 3/51/3
f 10/56/10 9/57/9 15/58/15
f 11/59/11 6/60/6 66/61/55
f 6/6/6 7/62/7 4/4/4
f 67/63/56 66/61/55 6/60/6
f 64/52/53 1/51/1 68/55/57
f 65/55/54 5/53/5 69/52/58
f 16/64/16 15/58/15 9/57/9
f 17/65/17 8/66/8 14/67/14
f 21/68/21 19/69/19 18/70/18
f 20/71/20 14/67/14 8/66/8
f 20/70/20 19/69/19 15/72/15
f 22/73/22 23/74/23 13/75/13
f 24/76/24 23/77/23 25/78/25
f 26/35/26 70/36/35 33/37/33
f 26/35/26 71/38/37 72/39/59
f 28/40/28 71/38/37 26/35/26
f 31/41/31 71/38/37 28/40/28
f 33/37/33 70/36/35 31/41/31
f 30/40/30 73/42/40 27/35/27
f 27/35/27 74/43/41 32/37/32
f 32/37/32 75/44/42 29/41/29
f 29/41/29 74/42/41 30/40/30
f 72/39/59 76/45/43 70/36/35
f 70/36/35 26/35/26 72/39/59
f 70/36/35 77/46/44 78/47/45
f 78/47/45 31/41/31 70/36/35
f 78/47/45 77/46/44 71/38/37
f 71/38/37 31/41/31 78/47/45
f 71/38/37 76/45/43 72/39/59
f 76/45/43 71/38/37 79/48/46
f 76/45/43 77/46/44 80/49/47
f 80/49/47 70/36/35 76/45/43
f 77/46/44 70/36/35 80/49/47
f 77/46/44 76/45/43 79/48/46
f 79/48/46 71/38/37 77/46/44
f 81/44/48 32/37/32 74/43/41
f 81/44/48 29/41/29 82/50/49
f 81/50/48 82/50/49 75/44/42
f 75/44/42 32/37/32 81/44/48
f 82/50/49 29/41/29 75/44/42
f 74/43/41 27/35/27 83/43/50
f 74/42/41 29/41/29 81/44/48
f 74/43/41 83/43/50 73/42/40
f 73/42/40 30/40/30 74/42/41
f 83/43/50 27/35/27 73/42/40
f 34/31/34 43/32/27 39/33/28
f 34/31/34 47/34/29 41/34/30
f 40/33/39 43/32/27 45/32/32
f 40/33/39 47/34/29 36/31/36
f 36/31/36 47/34/29 34/31/34
f 41/34/30 43/32/27 34/31/34
f 43/32/27 40/33/39 39/33/28
f 45/32/32 47/34/29 40/33/39
f 56/35/26 84/36/35 63/37/33
f 56/35/26 85/38/37 86/39/59
f 58/40/51 85/38/37 56/35/26
f 61/41/31 85/38/37 58/40/51
f 63/37/33 84/36/35 61/41/31
f 60/40/30 87/42/40 57/35/27
f 57/35/27 88/43/41 62/37/52
f 62/37/52 89/44/42 59/41/29
f 59/41/29 88/42/41 60/40/30
f 86/39/59 90/45/43 84/36/35
f 84/36/35 56/35/26 86/39/59
f 84/36/35 91/46/44 92/47/45
f 92/47/45 61/41/31 84/36/35
f 92/47/45 91/46/44 85/38/37
f 85/38/37 61/41/31 92/47/45
f 85/38/37 90/45/43 86/39/59
f 90/45/43 85/38/37 93/48/46
f 90/45/43 91/46/44 94/49/47
f 94/49/47 84/36/35 90/45/43
f 91/46/44 84/36/35 94/49/47
f 91/46/44 90/45/43 93/48/46
f 93/48/46 85/38/37 91/46/44
f 95/44/48 62/37/52 88/43/41
f 95/44/48 59/41/29 96/50/49
f 95/50/48 96/50/49 89/44/42
f 89/44/42 62/37/52 95/44/48
f 96/50/49 59/41/29 89/44/42
f 88/43/41 57/35/27 97/43/50
f 88/42/41 59/41/29 95/44/48
f 88/43/41 97/43/50 87/42/40
f 87/42/40 60/40/30 88/42/41
f 97/43/50 57/35/27 87/42/40
f 4/4/4 64/79/53 5/5/5
f 3/80/3 2/81/2 5/82/5
f 3/3/3 65/83/54 1/1/1
f 5/82/5 2/81/2 12/84/12
f 8/85/8 24/86/24 25/87/25
f 10/88/10 24/86/24 8/85/8
f 66/89/55 18/5/18 20/90/20
f 67/63/56 21/68/21 66/61/55
f 68/91/57 1/1/1 65/83/54
f 69/92/58 5/5/5 64/79/53
f 16/93/16 9/94/9 14/95/14
f 17/96/17 14/95/14 9/94/9
f 18/70/18 66/61/55 21/68/21
f 15/2/15 21/3/21 67/97/56
f 8/98/8 66/89/55 20/90/20
f 10/99/10 67/97/56 24/100/24
f 66/89/55 25/101/25 11/13/11
f 6/6/6 24/100/24 67/97/56
f 2/2/2 11/13/11 22/102/22
f 15/103/15 67/97/56 10/99/10
f 22/102/22 11/13/11 25/101/25
f 13/104/13 6/6/6 12/17/12
f 25/101/25 66/89/55 8/98/8
f 24/100/24 6/6/6 13/104/13
