# Blender 5.1.2
# www.blender.org
mtllib pylons.mtl
o Pylon_Substation_LOD1
v 6.135489 -0.487882 -15.554956
v 5.966158 -0.318552 0.832994
v 5.210186 -0.487883 -15.554956
v 5.379517 -0.318553 0.832994
v 6.135489 0.437421 -15.554956
v 5.966158 0.268089 0.832994
v 5.210186 0.437421 -15.554956
v 5.379517 0.268089 0.832994
v -5.136414 -0.487897 -15.573438
v -5.305745 -0.318567 0.814513
v -6.061718 -0.487897 -15.573438
v -5.892386 -0.318567 0.814513
v -5.136414 0.437406 -15.573438
v -5.305745 0.268074 0.814513
v -6.061718 0.437405 -15.573438
v -5.892386 0.268074 0.814513
v 6.135489 -0.487883 0.832994
v 5.210186 -0.487884 0.832994
v 5.210186 0.437420 0.832994
v 6.135489 0.437420 0.832994
v -5.136414 -0.487898 0.814513
v -6.061718 -0.487898 0.814513
v -6.061718 0.437405 0.814513
v -5.136414 0.437405 0.814513
v 5.966158 -0.318553 15.832994
v 5.966158 0.268088 15.832994
v -5.892386 -0.318568 15.814513
v -5.892386 0.268073 15.814513
v 5.379517 -0.318554 14.796988
v 5.379517 0.268088 14.796988
v -5.305745 0.268074 14.778508
v -5.305745 -0.318568 14.778508
v -4.424683 0.382445 14.635723
v -4.345366 0.363356 14.558550
v -4.795028 0.382445 14.635723
v -4.874344 0.455212 15.079489
v -4.795028 0.446755 15.000443
v -4.424683 0.446755 15.000443
v -4.424683 4.321678 13.941131
v -4.609856 4.579573 13.722008
v -4.424683 4.385988 14.305850
v -4.795028 4.321678 13.941131
v -4.795028 4.291983 13.772717
v -4.795028 4.385988 14.305850
v -4.424683 4.415684 14.474262
v -4.345366 0.455212 15.079489
v -4.703485 -0.016264 14.798982
v -4.874344 0.363356 14.558550
v -4.516227 0.016253 14.983395
v -4.516227 -0.016264 14.798982
v -4.703485 0.016253 14.983395
v -4.609856 4.703274 14.423553
v -4.795028 4.415684 14.474262
v -4.424683 4.291983 13.772717
v -0.185173 0.382445 14.635723
v 0.185173 4.321678 13.941131
v 0.185173 0.382445 14.635723
v -0.185173 4.385988 14.305850
v -0.185173 4.321678 13.941131
v 0.185173 0.446755 15.000443
v 0.185173 4.385988 14.305850
v -0.185173 0.446755 15.000443
v 4.424683 0.382445 14.635723
v 4.795028 4.321678 13.941131
v 4.795028 0.382445 14.635723
v 4.424683 4.385988 14.305850
v 4.424683 4.321678 13.941131
v 4.795028 0.446755 15.000443
v 4.795028 4.385988 14.305850
v 4.424683 0.446755 15.000443
v -0.264489 0.455212 15.079489
v 0.264489 0.363356 14.558550
v -0.264489 0.363356 14.558550
v -0.185173 4.291983 13.772717
v -0.000000 4.579573 13.722008
v 0.185173 4.415684 14.474262
v -0.093629 -0.016264 14.798982
v 0.093629 0.016253 14.983395
v 0.264489 0.455212 15.079489
v 0.093629 -0.016264 14.798982
v -0.093629 0.016253 14.983395
v -0.000000 4.703274 14.423553
v -0.185173 4.415684 14.474262
v 0.185173 4.291983 13.772717
v 4.345366 0.455212 15.079489
v 4.874344 0.363356 14.558550
v 4.345366 0.363356 14.558550
v 4.424683 4.291983 13.772717
v 4.609856 4.579573 13.722008
v 4.795028 4.415684 14.474262
v 4.516227 -0.016264 14.798982
v 4.703485 0.016253 14.983395
v 4.874344 0.455212 15.079489
v 4.703485 -0.016264 14.798982
v 4.516227 0.016253 14.983395
v 4.609856 4.703274 14.423553
v 4.424683 4.415684 14.474262
v 4.795028 4.291983 13.772717
vn 0.7071 -0.7071 -0.0000
vn 0.5773 -0.5773 0.5774
vn -0.5773 -0.5773 0.5774
vn -0.7071 -0.7071 -0.0000
vn -0.5773 0.5773 0.5774
vn -0.7071 0.7071 -0.0000
vn 0.5773 0.5773 0.5774
vn 0.7071 0.7071 -0.0000
vn 0.3021 -0.9043 -0.3016
vn 0.3021 0.9043 -0.3016
vn -0.3009 0.9047 -0.3015
vn -0.3009 -0.9047 -0.3015
vn 0.3015 -0.3015 0.9045
vn 0.3015 0.3015 0.9045
vn 0.1432 0.6997 0.7000
vn 0.0865 -0.7041 0.7048
vn -0.3015 -0.3015 0.9045
vn -0.3015 0.3015 0.9045
vn -0.1983 0.8398 0.5054
vn -0.1854 -0.6949 0.6948
vn 0.0340 0.9778 -0.2069
vn 0.5311 0.5580 -0.6376
vn -0.0340 0.9778 -0.2069
vn -0.5311 0.7424 0.4084
vn -0.0340 0.9896 -0.1400
vn 0.0340 0.9896 -0.1400
vn 0.8762 -0.4746 0.0837
vn -0.0000 0.8886 -0.4587
vn 0.9726 0.2291 -0.0404
vn -0.9991 0.0414 -0.0073
vn -0.4300 -0.8226 -0.3720
vn -0.9882 -0.1509 0.0265
vn 0.4300 -0.6458 0.6309
vn 0.5310 0.7425 0.4083
vn -0.4217 -0.8637 -0.2759
vn -0.5311 0.5580 -0.6376
vn 0.4217 -0.7173 0.5547
vn 0.4217 -0.8637 -0.2759
vn -0.4217 -0.7173 0.5547
vn -0.0000 0.9658 0.2593
vn -0.6082 -0.2044 0.7670
vn 0.6082 -0.4544 -0.6508
vn -0.7071 -0.1228 -0.6964
vn 0.7071 -0.1228 -0.6964
vn -0.7071 0.1228 0.6964
vn 0.7071 0.1228 0.6964
vn 0.5311 0.5580 -0.6377
vn -0.5310 0.5580 -0.6376
vn 0.5311 0.7425 0.4083
vt 0.429562 0.903110
vt 0.429562 0.945768
vt 0.400659 0.945768
vt 0.400659 0.903110
vt 0.444013 0.903110
vt 0.444013 0.988425
vt 0.429562 0.988425
vt 0.487367 0.860453
vt 0.487367 0.903110
vt 0.458464 0.903110
vt 0.458464 0.860453
vt 0.472915 0.903110
vt 0.472915 0.988425
vt 0.458464 0.988425
vt 0.458464 0.903110
vt 0.406688 0.493581
vt 0.310920 0.493581
vt 0.310918 0.618549
vt 0.406686 0.618549
vt 0.458464 0.860453
vt 0.429562 0.903110
vt 0.429562 0.860453
vt 0.559623 0.860453
vt 0.559623 0.945768
vt 0.545171 0.945768
vt 0.545171 0.860453
vt 0.400659 0.903110
vt 0.371757 0.945768
vt 0.371757 0.903110
vt 0.574074 0.860453
vt 0.574074 0.945768
vt 0.559623 0.945768
vt 0.559623 0.860453
vt 0.308428 0.443681
vt 0.406548 0.443681
vt 0.406548 0.625684
vt 0.308428 0.625684
vt 0.591170 0.947090
vt 0.591170 0.951671
vt 0.588525 0.952993
vt 0.588525 0.945768
vt 0.600332 0.951671
vt 0.602976 0.952993
vt 0.600332 0.947090
vt 0.602976 0.945768
vt 0.591170 0.961541
vt 0.591170 0.966122
vt 0.588525 0.967444
vt 0.588525 0.960219
vt 0.600332 0.966122
vt 0.602976 0.967444
vt 0.600332 0.961541
vt 0.602976 0.960219
vt 0.406682 0.444205
vt 0.309271 0.444205
vt 0.309271 0.624670
vt 0.406682 0.612206
vt 0.309329 0.444212
vt 0.406740 0.444212
vt 0.406740 0.612213
vt 0.309329 0.624678
vt 0.310543 0.625030
vt 0.407233 0.618246
vt 0.405507 0.494666
vt 0.308819 0.487882
vt 0.406545 0.443457
vt 0.308426 0.443457
vt 0.308426 0.625460
vt 0.406545 0.625460
vt 0.406545 0.612889
vt 0.308426 0.612889
vt 0.308428 0.613114
vt 0.406548 0.613114
vt 0.310921 0.486720
vt 0.406688 0.486720
vt 0.406686 0.625409
vt 0.310918 0.625409
vt 0.045357 0.020233
vt 0.051354 0.017234
vt 0.017354 0.020233
vt 0.011357 0.037233
vt 0.017354 0.034234
vt 0.045357 0.034234
vt 0.045357 0.013767
vt 0.017354 0.040699
vt 0.051354 0.037233
vt 0.024276 0.023694
vt 0.011357 0.017234
vt 0.038435 0.030773
vt 0.038435 0.023694
vt 0.024276 0.030773
vt 0.045357 0.040699
vt 0.017354 0.013767
vt 0.145034 0.005504
vt 0.167855 0.297696
vt 0.167855 0.005504
vt 0.145034 0.297696
s 1
usemtl pylones
f 1/1/1 17/2/2 18/3/3 3/4/4
f 3/5/4 18/6/3 19/7/5 7/1/6
f 7/8/6 19/9/5 20/10/7 5/11/8
f 5/12/8 20/13/7 17/14/2 1/15/1
f 32/16/9 31/17/10 30/18/11 29/19/12
f 9/20/1 21/15/2 22/21/3 11/22/4
f 11/23/4 22/24/3 23/25/5 15/26/6
f 15/27/6 23/3/5 24/28/7 13/29/8
f 13/30/8 24/31/7 21/32/2 9/33/1
f 2/34/13 6/35/14 26/36/15 25/37/16
f 2/38/13 4/39/17 18/40/3 17/41/2
f 4/39/17 8/42/18 19/43/5 18/40/3
f 8/42/18 6/44/14 20/45/7 19/43/5
f 6/44/14 2/38/13 17/41/2 20/45/7
f 10/46/13 12/47/17 22/48/3 21/49/2
f 12/47/17 16/50/18 23/51/5 22/48/3
f 16/50/18 14/52/14 24/53/7 23/51/5
f 14/52/14 10/46/13 21/49/2 24/53/7
f 14/54/14 16/55/18 28/56/19 31/57/10
f 12/55/17 10/54/13 32/57/9 27/56/20
f 6/58/14 8/59/18 30/60/11 26/61/15
f 4/59/17 2/58/13 25/61/16 29/60/12
f 27/62/20 32/63/9 29/64/12 25/65/16
f 16/66/18 12/67/17 27/68/20 28/69/19
f 10/67/13 14/66/14 31/70/10 32/71/9
f 8/35/18 4/34/17 29/72/12 30/73/11
f 31/63/10 28/62/19 26/65/15 30/64/11
f 28/74/19 27/75/20 25/76/16 26/77/15
f 33/78/21 34/79/22 35/80/23
f 35/80/23 36/81/24 37/82/25
f 37/82/25 36/81/24 38/83/26
f 38/83/26 34/79/22 33/78/21
f 39/80/27 40/84/28 41/82/29
f 42/78/30 43/84/31 39/80/27
f 44/83/32 40/84/28 42/78/30
f 41/82/29 45/85/33 44/83/32
f 34/79/22 38/83/26 46/86/34
f 34/79/22 47/87/35 48/88/36
f 46/86/34 38/83/26 36/81/24
f 46/86/34 49/89/37 34/79/22
f 36/81/24 35/80/23 48/88/36
f 36/81/24 49/89/37 46/86/34
f 48/88/36 35/80/23 34/79/22
f 48/88/36 47/87/35 36/81/24
f 50/90/38 34/79/22 49/89/37
f 50/90/38 47/87/35 34/79/22
f 49/89/37 36/81/24 51/91/39
f 49/89/37 47/87/35 50/90/38
f 51/91/39 36/81/24 47/87/35
f 51/91/39 47/87/35 49/89/37
f 52/92/40 44/83/32 53/92/41
f 52/85/40 41/82/29 40/84/28
f 53/92/41 44/83/32 45/85/33
f 53/92/41 45/85/33 52/92/40
f 45/85/33 41/82/29 52/85/40
f 40/84/28 39/80/27 54/93/42
f 40/84/28 44/83/32 52/92/40
f 54/93/42 39/80/27 43/84/31
f 54/93/42 43/84/31 40/93/28
f 43/84/31 42/78/30 40/84/28
f 55/94/43 56/95/44 57/96/44
f 55/94/43 58/97/45 59/97/43
f 60/96/46 56/95/44 61/95/46
f 60/96/46 58/97/45 62/94/45
f 62/94/45 58/97/45 55/94/43
f 59/97/43 56/95/44 55/94/43
f 56/95/44 60/96/46 57/96/44
f 61/95/46 58/97/45 60/96/46
f 63/94/43 64/95/44 65/96/44
f 63/94/43 66/97/45 67/97/43
f 68/96/46 64/95/44 69/95/46
f 68/96/46 66/97/45 70/94/45
f 70/94/45 66/97/45 63/94/43
f 67/97/43 64/95/44 63/94/43
f 64/95/44 68/96/46 65/96/44
f 69/95/46 66/97/45 68/96/46
f 33/94/44 39/97/44 38/94/46
f 35/96/43 39/97/44 33/94/44
f 35/96/43 44/95/45 42/95/43
f 37/96/45 44/95/45 35/96/43
f 38/94/46 39/97/44 41/97/46
f 38/94/46 44/95/45 37/96/45
f 42/95/43 39/97/44 35/96/43
f 41/97/46 44/95/45 38/94/46
f 55/78/23 71/86/24 62/83/25
f 55/78/23 72/88/47 73/79/48
f 57/80/21 72/88/47 55/78/23
f 60/82/26 72/88/47 57/80/21
f 62/83/25 71/86/24 60/82/26
f 59/80/30 74/93/31 56/78/27
f 56/78/27 75/84/28 61/83/29
f 61/83/29 76/92/33 58/82/32
f 58/82/32 75/93/28 59/80/30
f 73/79/48 77/90/35 71/86/24
f 71/86/24 55/78/23 73/79/48
f 71/86/24 78/91/37 79/81/49
f 79/81/49 60/82/26 71/86/24
f 79/81/49 78/91/37 72/88/47
f 72/88/47 60/82/26 79/81/49
f 72/88/47 77/90/35 73/79/48
f 77/90/35 72/88/47 80/87/38
f 77/90/35 78/91/37 81/89/39
f 81/89/39 71/86/24 77/90/35
f 78/91/37 71/86/24 81/89/39
f 78/91/37 77/90/35 80/87/38
f 80/87/38 72/88/47 78/91/37
f 82/92/40 61/83/29 75/84/28
f 82/92/40 58/82/32 83/85/41
f 82/85/40 83/85/41 76/92/33
f 76/92/33 61/83/29 82/92/40
f 83/85/41 58/82/32 76/92/33
f 75/84/28 56/78/27 84/84/42
f 75/93/28 58/82/32 82/92/40
f 75/84/28 84/84/42 74/93/31
f 74/93/31 59/80/30 75/93/28
f 84/84/42 56/78/27 74/93/31
f 63/78/23 85/86/24 70/83/25
f 63/78/23 86/88/47 87/79/48
f 65/80/21 86/88/47 63/78/23
f 68/82/26 86/88/47 65/80/21
f 70/83/25 85/86/24 68/82/26
f 67/80/30 88/93/31 64/78/27
f 64/78/27 89/84/28 69/83/29
f 69/83/29 90/92/33 66/82/32
f 66/82/32 89/93/28 67/80/30
f 87/79/48 91/90/35 85/86/24
f 85/86/24 63/78/23 87/79/48
f 85/86/24 92/91/37 93/81/49
f 93/81/49 68/82/26 85/86/24
f 93/81/49 92/91/37 86/88/47
f 86/88/47 68/82/26 93/81/49
f 86/88/47 91/90/35 87/79/48
f 91/90/35 86/88/47 94/87/38
f 91/90/35 92/91/37 95/89/39
f 95/89/39 85/86/24 91/90/35
f 92/91/37 85/86/24 95/89/39
f 92/91/37 91/90/35 94/87/38
f 94/87/38 86/88/47 92/91/37
f 96/92/40 69/83/29 89/84/28
f 96/92/40 66/82/32 97/85/41
f 96/85/40 97/85/41 90/92/33
f 90/92/33 69/83/29 96/92/40
f 97/85/41 66/82/32 90/92/33
f 89/84/28 64/78/27 98/84/42
f 89/93/28 66/82/32 96/92/40
f 89/84/28 98/84/42 88/93/31
f 88/93/31 67/80/30 89/93/28
f 98/84/42 64/78/27 88/93/31
