# Blender 5.1.2
# www.blender.org
mtllib turbine.mtl
o Pylon_Windturbine
v 1.500000 -0.000013 82.000000
v 3.500000 0.000000 0.000000
v 2.474874 2.474874 0.000000
v 1.060660 1.060647 82.000000
v 1.060660 -1.060673 82.000000
v 2.474874 -2.474874 -0.000000
v 0.000000 -1.500013 82.000000
v 0.000000 -3.500000 -0.000001
v -1.060660 -1.060673 82.000000
v -2.474874 -2.474874 -0.000000
v -1.500000 -0.000013 82.000000
v -3.500000 -0.000000 -0.000000
v -1.060660 1.060647 82.000000
v -2.474874 2.474874 0.000000
v -0.000000 1.499987 82.000000
v -0.000000 3.500000 0.000001
v -2.000000 5.841138 82.000000
v 2.000000 5.841138 82.000000
v 2.000000 -3.764690 82.000000
v -2.000000 -3.764690 82.000000
v -2.000000 -4.531570 84.000000
v -2.000000 -4.531570 82.766876
v 2.000000 -4.531570 82.766876
v 2.000000 -4.531570 84.000000
v 2.000000 -4.502075 86.000000
v 2.000000 2.748955 86.466026
v -2.000000 2.748955 86.466026
v -2.000000 -4.502075 86.000000
v 2.000000 5.841137 86.466026
v 2.000000 -4.971108 85.354721
v -2.000000 -4.971108 85.354721
v -2.000000 5.841137 86.466026
vn 0.9997 -0.0000 0.0244
vn 0.7069 0.7069 0.0244
vn 0.7069 -0.7069 0.0244
vn -0.0000 -0.9997 0.0244
vn -0.7069 -0.7069 0.0244
vn -0.9997 -0.0000 0.0244
vn -0.7069 0.7069 0.0244
vn -0.0000 0.9997 0.0244
vn -0.0000 -0.0000 -1.0000
vn -0.0000 -1.0000 -0.0000
vn -0.0000 -0.0641 0.9979
vn 1.0000 -0.0000 -0.0000
vn -1.0000 -0.0000 -0.0000
vn -0.0000 1.0000 -0.0000
vn -0.0000 -0.7071 -0.7071
vn -0.0000 -0.9512 -0.3086
vn -0.0000 -0.8089 0.5880
vn -0.0000 -0.0000 1.0000
vt 0.325438 0.001563
vt 0.325438 0.998784
vt 0.309382 0.999696
vt 0.309382 0.001954
vt 0.341483 0.000912
vt 0.341483 0.997264
vt 0.357511 0.000000
vt 0.357511 0.995137
vt 0.245157 0.000912
vt 0.245157 0.997264
vt 0.229129 0.995137
vt 0.229129 0.000000
vt 0.261202 0.001563
vt 0.261202 0.998784
vt 0.277258 0.001954
vt 0.277258 0.999696
vt 0.293320 0.002084
vt 0.293320 1.000000
vt 0.393518 0.000000
vt 0.553956 0.002310
vt 0.548915 0.387099
vt 0.387971 0.385287
vt 0.386352 0.479575
vt 0.387131 0.429276
vt 0.548879 0.430480
vt 0.549087 0.480152
vt 0.549998 0.570476
vt 0.552526 0.870229
vt 0.387188 0.871616
vt 0.385522 0.571097
vt 0.994357 0.000000
vt 0.994357 0.181909
vt 0.868407 0.181909
vt 0.573061 0.162927
vt 0.553956 0.136643
vt 0.571860 0.081463
vt 0.571860 0.031236
vt 0.603096 0.000000
vt 0.945218 0.181909
vt 0.976454 0.213145
vt 0.976454 0.263372
vt 0.994357 0.318552
vt 0.975252 0.344835
vt 0.679906 0.363817
vt 0.553956 0.363817
vt 0.553956 0.181909
vt 0.716883 0.545726
vt 0.553956 0.545726
vt 0.716883 0.363817
vt 0.549571 0.537905
vt 0.385753 0.538118
vt 0.553956 0.998150
vt 0.388480 1.000000
s 1
usemtl Turbine
f 1/1/1 2/2/1 3/3/2 4/4/2
f 5/5/3 6/6/3 2/2/1 1/1/1
f 7/7/4 8/8/4 6/6/3 5/5/3
f 9/9/5 10/10/5 8/11/4 7/12/4
f 11/13/6 12/14/6 10/10/5 9/9/5
f 13/15/7 14/16/7 12/14/6 11/13/6
f 15/17/8 16/18/8 14/16/7 13/15/7
f 4/4/2 3/3/2 16/18/8 15/17/8
f 17/19/9 18/20/9 19/21/9 20/22/9
f 21/23/10 22/24/10 23/25/10 24/26/10
f 25/27/11 26/28/11 27/29/11 28/30/11
f 18/31/12 29/32/12 26/33/12 25/34/12 30/35/12 24/36/12 23/37/12 19/38/12
f 20/39/13 22/40/13 21/41/13 31/42/13 28/43/13 27/44/13 32/45/13 17/46/13
f 32/47/14 29/48/14 18/45/14 17/49/14
f 19/21/15 23/25/15 22/24/15 20/22/15
f 30/50/16 31/51/16 21/23/16 24/26/16
f 30/50/17 25/27/17 28/30/17 31/51/17
f 27/29/18 26/28/18 29/52/18 32/53/18
