# Blender 4.0.2
# www.blender.org
mtllib chimney_big.mtl
o chimney_big
v -3.037483 -0.000021 -0.348781
v -2.677823 -0.960521 19.930231
v -2.849663 -0.000018 19.930231
v -2.854272 -1.038349 -0.348781
v -2.182953 -1.805176 19.930231
v -2.326829 -1.951432 -0.348781
v -1.424792 -2.432141 19.930231
v -1.518701 -2.629134 -0.348780
v -0.494790 -2.765678 19.930231
v -0.527425 -2.989698 -0.348780
v 0.494888 -2.765678 19.930231
v 0.527461 -2.989698 -0.348780
v 1.424889 -2.432141 19.930231
v 1.518799 -2.629133 -0.348780
v 2.182989 -1.805176 19.930231
v 2.326864 -1.951431 -0.348781
v 2.677858 -0.960521 19.930231
v 2.854369 -1.038349 -0.348781
v 2.849698 -0.000017 19.930231
v 3.037518 -0.000020 -0.348781
v 2.677858 0.960485 19.930231
v 2.854369 1.038247 -0.348781
v 2.182989 1.805140 19.930231
v 2.326864 1.951329 -0.348781
v 1.424888 2.432044 19.930231
v 1.518799 2.629031 -0.348781
v 0.494888 2.765643 19.930231
v 0.527461 2.989657 -0.348782
v -0.494791 2.765643 19.930231
v -0.527426 2.989657 -0.348782
v -1.424792 2.432044 19.930231
v -1.518702 2.629031 -0.348781
v -2.182953 1.805140 19.930231
v -2.326830 1.951329 -0.348781
v -2.677823 0.960485 19.930231
v -2.854272 1.038246 -0.348781
v -2.517537 -0.883061 39.860462
v -2.679113 -0.000015 39.860462
v -2.052291 -1.659657 39.860462
v -1.339548 -2.236008 39.860462
v -0.465229 -2.542703 39.860462
v 0.465264 -2.542703 39.860462
v 1.339583 -2.236008 39.860462
v 2.052387 -1.659657 39.860462
v 2.517573 -0.883061 39.860462
v 2.679149 -0.000015 39.860462
v 2.517573 0.883031 39.860462
v 2.052387 1.659566 39.860462
v 1.339583 2.235917 39.860462
v 0.465264 2.542611 39.860462
v -0.465168 2.542611 39.860462
v -1.339548 2.235916 39.860462
v -2.052291 1.659566 39.860462
v -2.517537 0.883031 39.860462
v -2.225114 -0.768070 59.790756
v -2.367945 -0.000012 59.790756
v -1.813951 -1.443499 59.790756
v -1.183933 -1.944789 59.790756
v -0.411144 -2.211497 59.790756
v 0.411241 -2.211497 59.790756
v 1.184030 -1.944789 59.790756
v 1.813987 -1.443499 59.790756
v 2.225150 -0.768070 59.790756
v 2.367980 -0.000012 59.790756
v 2.225150 0.767985 59.790756
v 1.813987 1.443414 59.790756
v 1.184030 1.944703 59.790756
v 0.411241 2.211411 59.790756
v -0.411145 2.211411 59.790756
v -1.183934 1.944703 59.790756
v -1.813891 1.443414 59.790756
v -2.225114 0.767984 59.790756
v -1.837122 -0.645218 79.720985
v -1.955062 -0.000009 79.720985
v -1.497621 -1.212601 79.720985
v -0.977492 -1.633792 79.720985
v -0.339483 -1.857870 79.720985
v 0.339519 -1.857870 79.720985
v 0.977589 -1.633792 79.720985
v 1.497719 -1.212601 79.720985
v 1.837158 -0.645218 79.720985
v 1.955098 -0.000009 79.720985
v 1.837158 0.645199 79.720985
v 1.497718 1.212582 79.720985
v 0.977589 1.633712 79.720985
v 0.339519 1.857790 79.720985
v -0.339483 1.857790 79.720985
v -0.977492 1.633711 79.720985
v -1.497621 1.212582 79.720985
v -1.837122 0.645199 79.720985
v -1.487050 -0.511738 99.651222
v -1.582496 -0.000006 99.651222
v -1.212266 -0.961676 99.651222
v -0.791270 -1.295706 99.651222
v -0.274766 -1.473408 99.651222
v 0.274863 -1.473408 99.651222
v 0.791306 -1.295706 99.651222
v 1.212301 -0.961676 99.651222
v 1.487147 -0.511738 99.651222
v 1.582594 -0.000006 99.651222
v 1.487147 0.511664 99.651222
v 1.212363 0.961663 99.651222
v 0.791305 1.295631 99.651222
v 0.274863 1.473333 99.651222
v -0.274767 1.473333 99.651222
v -0.791270 1.295631 99.651222
v -1.212266 0.961663 99.651222
v -1.487050 0.511664 99.651222
v -1.221876 -0.420491 99.651222
v -1.300302 -0.000010 99.651222
v -0.996090 -0.790197 99.651222
v -0.650165 -1.064663 99.651222
v -0.225764 -1.210678 99.651222
v 0.225857 -1.210678 99.651222
v 0.650209 -1.064663 99.651222
v 0.996133 -0.790197 99.651222
v 1.221969 -0.420491 99.651222
v 1.300395 -0.000010 99.651222
v 1.221969 0.420421 99.651222
v 0.996184 0.790177 99.651222
v 0.650208 1.064592 99.651222
v 0.225857 1.210607 99.651222
v -0.225764 1.210607 99.651222
v -0.650165 1.064592 99.651222
v -0.996090 0.790177 99.651222
v -1.221876 0.420420 99.651222
v -1.221876 -0.420491 79.720978
v -1.300302 -0.000010 79.720978
v -0.996090 -0.790197 79.720978
v -0.650165 -1.064663 79.720978
v -0.225764 -1.210678 79.720978
v 0.225857 -1.210678 79.720978
v 0.650209 -1.064663 79.720978
v 0.996133 -0.790197 79.720978
v 1.221969 -0.420491 79.720978
v 1.300395 -0.000010 79.720978
v 1.221969 0.420421 79.720978
v 0.996184 0.790177 79.720978
v 0.650208 1.064592 79.720978
v 0.225857 1.210607 79.720978
v -0.225764 1.210607 79.720978
v -0.650165 1.064592 79.720978
v -0.996090 0.790177 79.720978
v -1.221876 0.420420 79.720978
vn 1.0000 -0.0000 0.0093
vn 0.9395 0.3423 0.0096
vn 0.9381 0.3464 0.0093
vn 1.0000 -0.0000 0.0090
vn -0.4946 -0.8690 0.0107
vn -0.1711 -0.9852 0.0111
vn -0.1682 -0.9857 0.0140
vn -0.4871 -0.8733 0.0135
vn 0.7657 0.6431 0.0102
vn 0.4996 0.8662 0.0108
vn 0.4947 0.8690 0.0107
vn 0.7614 0.6482 0.0099
vn -0.9381 0.3464 0.0092
vn -1.0000 -0.0000 0.0090
vn -0.9999 -0.0000 0.0122
vn -0.9358 0.3523 0.0124
vn 0.1735 0.9848 0.0112
vn -0.1734 0.9848 0.0110
vn -0.1711 0.9852 0.0111
vn 0.1711 0.9852 0.0111
vn -0.4996 0.8662 0.0105
vn -0.4948 0.8689 0.0106
vn -0.7656 -0.6432 0.0102
vn -0.4996 -0.8662 0.0108
vn -0.7616 -0.6480 0.0099
vn -0.7657 0.6432 0.0099
vn -0.9396 0.3422 0.0094
vn -0.7616 0.6480 0.0099
vn -0.1680 -0.9856 0.0189
vn 0.1679 -0.9856 0.0188
vn 0.1649 -0.9861 0.0196
vn -0.1650 -0.9861 0.0194
vn 0.9395 -0.3423 0.0094
vn 0.9381 -0.3462 0.0092
vn 0.7657 -0.6432 0.0099
vn 0.7614 -0.6482 0.0099
vn 0.1734 -0.9848 0.0110
vn 0.4996 -0.8662 0.0105
vn 0.4946 -0.8690 0.0106
vn 0.1710 -0.9852 0.0111
vn 0.1679 0.9857 0.0140
vn -0.1682 0.9857 0.0140
vn -0.1656 0.9860 0.0175
vn 0.1655 0.9861 0.0174
vn -0.1734 -0.9848 0.0112
vn -0.4871 0.8733 0.0136
vn -0.4815 0.8763 0.0177
vn -0.9395 -0.3424 0.0096
vn -0.9379 -0.3467 0.0093
vn -1.0000 -0.0000 0.0093
vn 0.9359 -0.3520 0.0124
vn 0.9999 -0.0000 0.0122
vn 0.9998 -0.0000 0.0182
vn 0.9339 -0.3571 0.0182
vn -0.7549 0.6557 0.0130
vn 0.4871 0.8733 0.0135
vn 0.7549 0.6557 0.0129
vn 0.4872 -0.8732 0.0136
vn 0.1682 -0.9857 0.0140
vn -0.9339 -0.3571 0.0180
vn -0.7500 -0.6612 0.0177
vn -0.7550 -0.6554 0.0195
vn -0.9357 -0.3523 0.0197
vn 0.9357 0.3525 0.0123
vn -0.9357 -0.3526 0.0123
vn -0.7549 -0.6557 0.0129
vn 0.7549 -0.6557 0.0130
vn 0.7500 -0.6612 0.0180
vn 0.4815 -0.8763 0.0178
vn 0.9339 0.3571 0.0180
vn 0.7500 0.6612 0.0177
vn 0.9357 -0.3523 0.0195
vn 0.9998 -0.0000 0.0197
vn 0.9998 -0.0000 0.0187
vn 0.9335 -0.3581 0.0190
vn -0.1655 -0.9861 0.0174
vn -0.4815 -0.8763 0.0175
vn 0.4815 0.8763 0.0175
vn 0.4872 -0.8731 0.0189
vn 0.4803 -0.8769 0.0195
vn -0.9998 -0.0000 0.0182
vn -0.9339 0.3571 0.0182
vn -0.7500 0.6612 0.0180
vn 0.1654 -0.9861 0.0175
vn 0.9357 0.3523 0.0197
vn -0.9357 0.3523 0.0195
vn -0.7550 0.6554 0.0192
vn -0.9335 0.3580 0.0190
vn -0.7490 0.6623 0.0192
vn -0.4872 0.8731 0.0189
vn -0.1680 0.9856 0.0188
vn 0.1680 0.9856 0.0189
vn 0.4872 0.8731 0.0192
vn -0.4872 -0.8731 0.0192
vn 0.7551 0.6554 0.0195
vn -0.9998 -0.0000 0.0197
vn 0.7551 -0.6554 0.0192
vn 0.9335 0.3580 0.0187
vn 0.7489 0.6624 0.0189
vn -0.4803 0.8769 0.0195
vn -0.1649 0.9861 0.0196
vn 0.1649 0.9861 0.0194
vn 0.4803 0.8769 0.0192
vn -0.4804 -0.8768 0.0192
vn -0.7490 -0.6623 0.0189
vn 0.7490 -0.6623 0.0192
vn -0.9335 -0.3581 0.0187
vn -0.9998 -0.0000 0.0187
vn -0.0000 -0.0000 1.0000
vn -0.9336 0.3582 -0.0000
vn -1.0000 -0.0000 -0.0000
vn 0.1649 -0.9863 -0.0000
vn 0.4803 -0.8771 -0.0000
vn -0.7490 -0.6626 -0.0000
vn -0.4803 -0.8771 -0.0000
vn -0.4804 0.8771 -0.0000
vn -0.7490 0.6626 -0.0000
vn 1.0000 -0.0000 -0.0000
vn 0.9336 0.3582 -0.0000
vn 0.4803 0.8771 -0.0000
vn 0.1649 0.9863 -0.0000
vn -0.1649 -0.9863 -0.0000
vn 0.7490 -0.6625 -0.0000
vn 0.7491 0.6625 -0.0000
vn -0.1649 0.9863 -0.0000
vn -0.9337 -0.3582 -0.0000
vn 0.9337 -0.3582 -0.0000
vt 0.167073 0.001268
vt 0.179808 0.001268
vt 0.179645 0.203621
vt 0.167073 0.203621
vt 0.090387 0.203621
vt 0.103270 0.203621
vt 0.103126 0.402494
vt 0.090029 0.402494
vt 0.192547 0.001268
vt 0.205291 0.001268
vt 0.205068 0.203621
vt 0.192295 0.203621
vt 0.039819 0.203621
vt 0.052391 0.203621
vt 0.052391 0.402494
vt 0.040076 0.402494
vt 0.218039 0.001268
vt 0.230788 0.001268
vt 0.230877 0.203621
vt 0.217950 0.203621
vt 0.001424 0.001268
vt 0.014172 0.001268
vt 0.014395 0.203621
vt 0.001513 0.203621
vt 0.077867 0.001268
vt 0.090610 0.001268
vt 0.077614 0.203621
vt 0.026916 0.001268
vt 0.039656 0.001268
vt 0.027168 0.203621
vt 0.103135 0.800239
vt 0.116330 0.800239
vt 0.116465 0.999112
vt 0.103002 0.999112
vt 0.154337 0.001268
vt 0.154501 0.203621
vt 0.141598 0.001268
vt 0.141851 0.203621
vt 0.116107 0.001268
vt 0.128855 0.001268
vt 0.129078 0.203621
vt 0.116196 0.203621
vt 0.217807 0.402494
vt 0.231019 0.402494
vt 0.231124 0.601367
vt 0.217702 0.601367
vt 0.103358 0.001268
vt 0.001655 0.402494
vt 0.014754 0.402494
vt 0.015013 0.601367
vt 0.001760 0.601367
vt 0.065128 0.001268
vt 0.064963 0.203621
vt 0.052391 0.001268
vt 0.154758 0.402494
vt 0.167073 0.402494
vt 0.167073 0.601367
vt 0.154940 0.601367
vt 0.027568 0.402494
vt 0.204710 0.402494
vt 0.191895 0.402494
vt 0.129436 0.402494
vt 0.116339 0.402494
vt 0.064524 0.601367
vt 0.076928 0.601367
vt 0.077237 0.800239
vt 0.064720 0.800239
vt 0.179387 0.402494
vt 0.064706 0.402494
vt 0.077215 0.402494
vt 0.142250 0.402494
vt 0.142537 0.601367
vt 0.129696 0.601367
vt 0.179205 0.601367
vt 0.191608 0.601367
vt 0.154744 0.800239
vt 0.167073 0.800239
vt 0.167073 0.999112
vt 0.154975 0.999112
vt 0.103022 0.601367
vt 0.089770 0.601367
vt 0.204450 0.601367
vt 0.129416 0.800239
vt 0.129746 0.999112
vt 0.052391 0.601367
vt 0.040259 0.601367
vt 0.027855 0.601367
vt 0.116444 0.601367
vt 0.179402 0.800239
vt 0.040062 0.800239
vt 0.027546 0.800239
vt 0.040294 0.999112
vt 0.027910 0.999112
vt 0.014733 0.800239
vt 0.001648 0.800239
vt 0.231012 0.800239
vt 0.217815 0.800239
vt 0.204730 0.800239
vt 0.090050 0.800239
vt 0.191917 0.800239
vt 0.052391 0.800239
vt 0.142229 0.800239
vt 0.179170 0.999112
vt 0.191553 0.999112
vt 0.015064 0.999112
vt 0.001780 0.999112
vt 0.231144 0.999112
vt 0.217681 0.999112
vt 0.204399 0.999112
vt 0.089719 0.999112
vt 0.076872 0.999112
vt 0.142593 0.999112
vt 0.064490 0.999112
vt 0.052391 0.999112
vt 0.121521 0.995688
vt 0.120991 0.995505
vt 0.121136 0.995268
vt 0.121571 0.995418
vt 0.120559 0.995163
vt 0.120781 0.994987
vt 0.120277 0.994701
vt 0.120549 0.994607
vt 0.120559 0.993190
vt 0.120991 0.992847
vt 0.121136 0.993084
vt 0.120781 0.993366
vt 0.122614 0.995505
vt 0.122085 0.995688
vt 0.122034 0.995418
vt 0.122470 0.995268
vt 0.120179 0.994176
vt 0.120469 0.994176
vt 0.123046 0.995163
vt 0.122825 0.994987
vt 0.121521 0.992665
vt 0.121571 0.992934
vt 0.120277 0.993651
vt 0.120549 0.993745
vt 0.122085 0.992665
vt 0.122034 0.992934
vt 0.123328 0.993651
vt 0.123426 0.994176
vt 0.123137 0.994176
vt 0.123056 0.993745
vt 0.123328 0.994701
vt 0.123056 0.994607
vt 0.122614 0.992847
vt 0.123046 0.993190
vt 0.122825 0.993366
vt 0.122470 0.993084
s 1
usemtl condor_chimney
f 20/1/1 22/2/2 21/3/3 19/4/4
f 7/5/5 9/6/6 41/7/7 40/8/8
f 24/9/9 26/10/10 25/11/11 23/12/12
f 35/13/13 3/14/14 38/15/15 54/16/16
f 28/17/17 30/18/18 29/19/19 27/20/20
f 30/21/18 32/22/21 31/23/22 29/24/19
f 6/25/23 8/26/24 7/5/5 5/27/25
f 34/28/26 36/29/27 35/13/13 33/30/28
f 77/31/29 78/32/30 96/33/31 95/34/32
f 18/35/33 20/1/1 19/4/4 17/36/34
f 16/37/35 18/35/33 17/36/34 15/38/36
f 32/22/21 34/28/26 33/30/28 31/23/22
f 12/39/37 14/40/38 13/41/39 11/42/40
f 50/43/41 51/44/42 69/45/43 68/46/44
f 8/26/24 10/47/45 9/6/6 7/5/5
f 51/48/42 52/49/46 70/50/47 69/51/43
f 4/52/48 6/25/23 5/27/25 2/53/49
f 1/54/50 4/52/48 2/53/49 3/14/14
f 45/55/51 46/56/52 64/57/53 63/58/54
f 33/30/28 35/13/13 54/16/16 53/59/55
f 23/12/12 25/11/11 49/60/56 48/61/57
f 11/42/40 13/41/39 43/62/58 42/63/59
f 27/20/20 29/19/19 51/44/42 50/43/41
f 25/11/11 27/20/20 50/43/41 49/60/56
f 55/64/60 57/65/61 75/66/62 73/67/63
f 21/3/3 23/12/12 48/61/57 47/68/64
f 3/14/14 2/53/49 37/69/65 38/15/15
f 17/36/34 19/4/4 46/56/52 45/55/51
f 2/53/49 5/27/25 39/70/66 37/69/65
f 13/41/39 15/38/36 44/71/67 43/62/58
f 29/24/19 31/23/22 52/49/46 51/48/42
f 10/47/45 12/39/37 11/42/40 9/6/6
f 14/40/38 16/37/35 15/38/36 13/41/39
f 5/27/25 7/5/5 40/8/8 39/70/66
f 43/62/58 44/71/67 62/72/68 61/73/69
f 19/4/4 21/3/3 47/68/64 46/56/52
f 46/56/52 47/68/64 65/74/70 64/57/53
f 47/68/64 48/61/57 66/75/71 65/74/70
f 31/23/22 33/30/28 53/59/55 52/49/46
f 81/76/72 82/77/73 100/78/74 99/79/75
f 36/29/27 1/54/50 3/14/14 35/13/13
f 40/8/8 41/7/7 59/80/76 58/81/77
f 48/61/57 49/60/56 67/82/78 66/75/71
f 78/32/30 79/83/79 97/84/80 96/33/31
f 38/15/15 37/69/65 55/64/60 56/85/81
f 54/16/16 38/15/15 56/85/81 72/86/82
f 53/59/55 54/16/16 72/86/82 71/87/83
f 52/49/46 53/59/55 71/87/83 70/50/47
f 42/63/59 43/62/58 61/73/69 60/88/84
f 41/7/7 42/63/59 60/88/84 59/80/76
f 49/60/56 50/43/41 68/46/44 67/82/78
f 39/70/66 40/8/8 58/81/77 57/65/61
f 44/71/67 45/55/51 63/58/54 62/72/68
f 63/58/54 64/57/53 82/77/73 81/76/72
f 64/57/53 65/74/70 83/89/85 82/77/73
f 71/87/83 72/86/82 90/90/86 89/91/87
f 89/91/87 90/90/86 108/92/88 107/93/89
f 69/51/43 70/50/47 88/94/90 87/95/91
f 68/46/44 69/45/43 87/96/91 86/97/92
f 67/82/78 68/46/44 86/97/92 85/98/93
f 57/65/61 58/81/77 76/99/94 75/66/62
f 65/74/70 66/75/71 84/100/95 83/89/85
f 56/85/81 55/64/60 73/67/63 74/101/96
f 72/86/82 56/85/81 74/101/96 90/90/86
f 70/50/47 71/87/83 89/91/87 88/94/90
f 61/73/69 62/72/68 80/102/97 79/83/79
f 58/81/77 59/80/76 77/31/29 76/99/94
f 26/10/10 28/17/17 27/20/20 25/11/11
f 37/69/65 39/70/66 57/65/61 55/64/60
f 66/75/71 67/82/78 85/98/93 84/100/95
f 62/72/68 63/58/54 81/76/72 80/102/97
f 22/2/2 24/9/9 23/12/12 21/3/3
f 82/77/73 83/89/85 101/103/98 100/78/74
f 83/89/85 84/100/95 102/104/99 101/103/98
f 88/94/90 89/91/87 107/93/89 106/105/100
f 87/95/91 88/94/90 106/105/100 105/106/101
f 86/97/92 87/96/91 105/107/101 104/108/102
f 85/98/93 86/97/92 104/108/102 103/109/103
f 75/66/62 76/99/94 94/110/104 93/111/105
f 79/83/79 80/102/97 98/112/106 97/84/80
f 74/101/96 73/67/63 91/113/107 92/114/108
f 90/90/86 74/101/96 92/114/108 108/92/88
f 80/102/97 81/76/72 99/79/75 98/112/106
f 76/99/94 77/31/29 95/34/32 94/110/104
f 59/80/76 60/88/84 78/32/30 77/31/29
f 15/38/36 17/36/34 45/55/51 44/71/67
f 84/100/95 85/98/93 103/109/103 102/104/99
f 73/67/63 75/66/62 93/111/105 91/113/107
f 60/88/84 61/73/69 79/83/79 78/32/30
f 105/115/109 106/116/109 124/117/109 123/118/109
f 106/116/109 107/119/109 125/120/109 124/117/109
f 107/119/109 108/121/109 126/122/109 125/120/109
f 93/123/109 94/124/109 112/125/109 111/126/109
f 103/127/109 104/128/109 122/129/109 121/130/109
f 108/121/109 92/131/109 110/132/109 126/122/109
f 102/133/109 103/127/109 121/130/109 120/134/109
f 94/124/109 95/135/109 113/136/109 112/125/109
f 92/131/109 91/137/109 109/138/109 110/132/109
f 95/135/109 96/139/109 114/140/109 113/136/109
f 99/141/109 100/142/109 118/143/109 117/144/109
f 100/142/109 101/145/109 119/146/109 118/143/109
f 97/147/109 98/148/109 116/149/109 115/150/109
f 98/148/109 99/141/109 117/144/109 116/149/109
f 101/145/109 102/133/109 120/134/109 119/146/109
f 104/128/109 105/115/109 123/118/109 122/129/109
f 96/139/109 97/147/109 115/150/109 114/140/109
f 91/137/109 93/123/109 111/126/109 109/138/109
f 117/144/110 118/143/111 136/143/111 135/144/110
f 123/118/112 124/117/113 142/117/113 141/118/112
f 120/134/114 121/130/115 139/130/115 138/134/114
f 115/150/116 116/149/117 134/149/117 133/150/116
f 110/132/118 109/138/119 127/138/119 128/132/118
f 112/125/120 113/136/121 131/136/121 130/125/120
f 121/130/115 122/129/122 140/129/122 139/130/115
f 122/129/122 123/118/112 141/118/112 140/129/122
f 124/117/113 125/120/123 143/120/123 142/117/113
f 109/138/119 111/126/124 129/126/124 127/138/119
f 111/126/124 112/125/120 130/125/120 129/126/124
f 113/136/121 114/140/125 132/140/125 131/136/121
f 119/146/126 120/134/114 138/134/114 137/146/126
f 118/143/111 119/146/126 137/146/126 136/143/111
f 114/140/125 115/150/116 133/150/116 132/140/125
f 125/120/123 126/122/127 144/122/127 143/120/123
f 116/149/117 117/144/110 135/144/110 134/149/117
f 126/122/127 110/132/118 128/132/118 144/122/127
f 140/129/109 141/118/109 142/117/109 143/120/109 144/122/109 128/132/109 127/138/109 129/126/109 130/125/109 131/136/109 132/140/109 133/150/109 134/149/109 135/144/109 136/143/109 137/146/109 138/134/109 139/130/109
f 9/6/6 11/42/40 42/63/59 41/7/7
