# Blender 5.1.2
# www.blender.org
mtllib chimney.mtl
o chimney_small_low
v 0.394025 -0.682471 29.654036
v -0.394025 -0.682471 29.654036
v -0.788050 0.000000 29.654036
v -0.394025 0.682471 29.654036
v 0.394025 0.682471 29.654036
v 0.788050 0.000000 29.654036
v 0.777164 -1.346088 -0.345965
v -0.777164 -1.346088 -0.345965
v -1.554329 0.000000 -0.345965
v -0.777164 1.346088 -0.345965
v 0.777164 1.346088 -0.345965
v 1.554329 0.000000 -0.345965
vn -0.9997 -0.0000 0.0255
vn -0.4998 -0.8657 0.0255
vn -0.3925 -0.6798 0.6196
vn -0.7849 -0.0000 0.6196
vn 0.7849 -0.0000 0.6196
vn 0.3925 0.6798 0.6196
vn -0.3925 0.6798 0.6196
vn 0.3925 -0.6798 0.6196
vn -0.4998 0.8657 0.0255
vn 0.4998 -0.8657 0.0255
vn 0.4998 0.8657 0.0255
vn 0.9997 -0.0000 0.0255
vt 0.505063 0.000247
vt 0.584566 0.000247
vt 0.584566 0.999310
vt 0.505063 0.999310
vt 0.261930 0.992594
vt 0.262061 0.992367
vt 0.262324 0.992367
vt 0.262455 0.992594
vt 0.262324 0.992821
vt 0.262061 0.992821
vt 0.425561 0.000247
vt 0.425561 0.999310
vt 0.664068 0.000247
vt 0.664068 0.999310
vt 0.346058 0.000247
vt 0.346058 0.999310
vt 0.743571 0.000247
vt 0.743571 0.999310
vt 0.266556 0.000247
vt 0.266556 0.999310
s 1
usemtl condor_chimney
f 9/1/1 8/2/2 2/3/3 3/4/4
f 6/5/5 5/6/6 4/7/7 3/8/4 2/9/3 1/10/8
f 10/11/9 9/1/1 3/4/4 4/12/7
f 8/2/2 7/13/10 1/14/8 2/3/3
f 11/15/11 10/11/9 4/12/7 5/16/6
f 7/13/10 12/17/12 6/18/5 1/14/8
f 12/19/12 11/15/11 5/16/6 6/20/5
