# Blender 5.1.2
# www.blender.org
mtllib chimney.mtl
o chimney_big_low
v 0.769814 -1.333356 99.651222
v -0.769814 -1.333356 99.651222
v -1.539627 0.000000 99.651222
v -0.769814 1.333356 99.651222
v 0.769814 1.333356 99.651222
v 1.539627 0.000000 99.651222
v 1.518324 -2.629815 -0.348781
v -1.518324 -2.629815 -0.348781
v -3.036649 0.000000 -0.348781
v -1.518324 2.629815 -0.348781
v 1.518324 2.629815 -0.348781
v 3.036649 0.000000 -0.348781
vn -0.9999 -0.0000 0.0150
vn -0.4999 -0.8659 0.0150
vn -0.3940 -0.6825 0.6156
vn -0.7880 -0.0000 0.6156
vn -0.4999 0.8659 0.0150
vn -0.3940 0.6825 0.6156
vn 0.4999 0.8659 0.0150
vn 0.3940 0.6825 0.6156
vn 0.4999 -0.8659 0.0150
vn 0.9999 -0.0000 0.0150
vn 0.7880 -0.0000 0.6156
vn 0.3940 -0.6825 0.6156
vt 0.116284 0.001268
vt 0.154571 0.001268
vt 0.154571 0.999112
vt 0.116284 0.999112
vt 0.077997 0.001268
vt 0.077997 0.999112
vt 0.039711 0.001268
vt 0.039711 0.999112
vt 0.192857 0.001268
vt 0.231144 0.001268
vt 0.231144 0.999112
vt 0.192857 0.999112
vt 0.168920 0.999227
vt 0.169006 0.999079
vt 0.169176 0.999079
vt 0.169262 0.999227
vt 0.169176 0.999375
vt 0.169006 0.999375
vt 0.001424 0.001268
vt 0.001424 0.999112
s 1
usemtl condor_chimney
f 9/1/1 8/2/2 2/3/3 3/4/4
f 10/5/5 9/1/1 3/4/4 4/6/6
f 11/7/7 10/5/5 4/6/6 5/8/8
f 7/9/9 12/10/10 6/11/11 1/12/12
f 6/13/11 5/14/8 4/15/6 3/16/4 2/17/3 1/18/12
f 8/2/2 7/9/9 1/12/12 2/3/3
f 12/19/10 11/7/7 5/8/8 6/20/11
