# Blender 5.1.2
# www.blender.org
mtllib chimney.mtl
o chimney_small
v -1.554366 0.000024 -0.345965
v -1.460609 -0.531546 -0.345964
v -1.190730 -0.999078 -0.345964
v -0.777252 -1.346022 -0.345964
v -0.269940 -1.530648 -0.345964
v 0.269821 -1.530648 -0.345964
v 0.777133 -1.346022 -0.345964
v 1.190611 -0.999078 -0.345964
v 1.460569 -0.531546 -0.345964
v 1.554324 0.000024 -0.345965
v 1.460569 0.531672 -0.345965
v 1.190611 0.999126 -0.345965
v 0.777133 1.346148 -0.345965
v 0.269898 1.530774 -0.345965
v -0.269940 1.530774 -0.345965
v -0.777252 1.346148 -0.345965
v -1.190730 0.999126 -0.345965
v -1.460609 0.531672 -0.345965
v -0.940116 -0.330301 23.723249
v -1.000488 0.000029 23.723249
v -0.766410 -0.620773 23.723249
v -0.500274 -0.836443 23.723249
v -0.173766 -0.951181 23.723249
v 0.173647 -0.951181 23.723249
v 0.500155 -0.836443 23.723249
v 0.766291 -0.620773 23.723249
v 0.940074 -0.330301 23.723249
v 1.000369 0.000029 23.723249
v 0.940074 0.330359 23.723249
v 0.766368 0.620909 23.723249
v 0.500155 0.836501 23.723249
v 0.173647 0.951239 23.723249
v -0.173766 0.951239 23.723249
v -0.500274 0.836501 23.723249
v -0.766410 0.620909 23.723249
v -0.940116 0.330359 23.723249
v -0.761027 -0.261972 29.654036
v -0.809856 0.000030 29.654036
v -0.620393 -0.492306 29.654036
v -0.404958 -0.663360 29.654036
v -0.140693 -0.754308 29.654036
v 0.140574 -0.754308 29.654036
v 0.404839 -0.663360 29.654036
v 0.620274 -0.492306 29.654036
v 0.760908 -0.261972 29.654036
v 0.809737 0.000030 29.654036
v 0.760908 0.262032 29.654036
v 0.620274 0.492444 29.654036
v 0.404839 0.663420 29.654036
v 0.140574 0.754368 29.654036
v -0.140693 0.754368 29.654036
v -0.404958 0.663420 29.654036
v -0.620393 0.492444 29.654036
v -0.761027 0.262032 29.654036
v -0.569108 -0.195892 29.654036
v -0.605622 0.000032 29.654036
v -0.463943 -0.368135 29.654036
v -0.302841 -0.496048 29.654036
v -0.105225 -0.564059 29.654036
v 0.105106 -0.564059 29.654036
v 0.302722 -0.496048 29.654036
v 0.463824 -0.368135 29.654036
v 0.568989 -0.195892 29.654036
v 0.605503 0.000032 29.654036
v 0.568989 0.195956 29.654036
v 0.463824 0.368258 29.654036
v 0.302722 0.496113 29.654036
v 0.105106 0.564124 29.654036
v -0.105225 0.564124 29.654036
v -0.302841 0.496113 29.654036
v -0.463943 0.368258 29.654036
v -0.569108 0.195956 29.654036
v -0.569108 -0.195892 21.746294
v -0.605622 0.000032 21.746294
v -0.463943 -0.368135 21.746294
v -0.302841 -0.496048 21.746294
v -0.105225 -0.564059 21.746294
v 0.105106 -0.564059 21.746294
v 0.302722 -0.496048 21.746294
v 0.463824 -0.368135 21.746294
v 0.568989 -0.195892 21.746294
v 0.605503 0.000032 21.746294
v 0.568989 0.195956 21.746294
v 0.463824 0.368258 21.746294
v 0.302722 0.496113 21.746294
v 0.105106 0.564124 21.746294
v -0.105225 0.564124 21.746294
v -0.302841 0.496113 21.746294
v -0.463943 0.368258 21.746294
v -0.569108 0.195956 21.746294
vn -0.1719 0.9848 0.0243
vn -0.1687 0.9853 0.0281
vn 0.1704 0.9850 0.0291
vn 0.1718 0.9848 0.0254
vn 0.9997 -0.0000 0.0231
vn 0.9386 0.3442 0.0233
vn 0.9365 0.3494 0.0298
vn 0.9996 -0.0000 0.0276
vn -0.1687 -0.9853 0.0277
vn 0.1683 -0.9853 0.0283
vn 0.1650 -0.9857 0.0336
vn -0.1650 -0.9857 0.0335
vn -0.7628 -0.6462 0.0244
vn -0.7569 -0.6528 0.0316
vn -0.9372 -0.3477 0.0279
vn -0.9382 -0.3452 0.0253
vn 0.9353 -0.3527 0.0280
vn 0.9383 -0.3450 0.0252
vn 0.4958 0.8680 0.0267
vn 0.4926 0.8698 0.0288
vn -0.1714 -0.9849 0.0249
vn 0.1724 -0.9847 0.0243
vn 0.7573 0.6526 0.0240
vn 0.7623 0.6466 0.0267
vn -0.9363 0.3500 0.0306
vn -0.9996 -0.0000 0.0276
vn -0.9995 -0.0000 0.0322
vn -0.9333 0.3577 0.0326
vn -0.4928 -0.8697 0.0288
vn -0.4967 -0.8675 0.0262
vn -0.9997 -0.0000 0.0231
vn 0.7598 -0.6496 0.0280
vn 0.9333 -0.3577 0.0326
vn 0.7489 -0.6619 0.0331
vn 0.7626 -0.6463 0.0266
vn 0.4910 -0.8706 0.0317
vn 0.4956 -0.8682 0.0256
vn -0.7626 0.6463 0.0266
vn -0.9380 0.3457 0.0254
vn -0.7599 0.6495 0.0280
vn -0.4804 -0.8764 0.0330
vn -0.4951 0.8684 0.0269
vn -0.4927 0.8697 0.0284
vn 0.9332 0.3578 0.0322
vn 0.9995 -0.0000 0.0322
vn 0.4803 0.8765 0.0330
vn 0.7489 0.6619 0.0325
vn -0.7489 0.6619 0.0331
vn -0.4803 0.8765 0.0335
vn 0.4804 -0.8764 0.0335
vn -0.1649 0.9857 0.0336
vn 0.1651 0.9857 0.0335
vn -0.7489 -0.6619 0.0325
vn -0.9332 -0.3578 0.0322
vn -0.0000 -0.0000 1.0000
vn 0.1650 -0.9863 -0.0000
vn 0.4804 -0.8770 -0.0000
vn -0.4805 0.8770 -0.0000
vn -0.7492 0.6623 -0.0000
vn 0.9337 0.3581 -0.0000
vn 0.7492 0.6623 -0.0000
vn -0.7492 -0.6624 -0.0000
vn -0.4804 -0.8770 -0.0000
vn 1.0000 -0.0000 -0.0000
vn 0.7492 -0.6624 -0.0000
vn 0.9337 -0.3580 -0.0000
vn 0.1650 0.9863 -0.0000
vn -0.1650 0.9863 -0.0000
vn -0.9337 0.3581 -0.0000
vn -1.0000 -0.0000 -0.0000
vn -0.9337 -0.3580 -0.0000
vn 0.4805 0.8770 -0.0000
vn -0.1650 -0.9863 -0.0000
vt 0.742792 0.000247
vt 0.743278 0.801803
vt 0.714639 0.801803
vt 0.715118 0.000247
vt 0.604426 0.000247
vt 0.632102 0.000247
vt 0.631216 0.801803
vt 0.604428 0.801803
vt 0.465572 0.801803
vt 0.494212 0.801803
vt 0.494504 0.999310
vt 0.465278 0.999310
vt 0.410711 0.000247
vt 0.409339 0.801803
vt 0.382153 0.801803
vt 0.383037 0.000247
vt 0.577639 0.801803
vt 0.576755 0.000247
vt 0.687447 0.000247
vt 0.686233 0.801803
vt 0.466058 0.000247
vt 0.493729 0.000247
vt 0.658407 0.801803
vt 0.659775 0.000247
vt 0.328578 0.801803
vt 0.355365 0.801803
vt 0.355365 0.999310
vt 0.329079 0.999310
vt 0.437165 0.801803
vt 0.438381 0.000247
vt 0.355367 0.000247
vt 0.550448 0.801803
vt 0.578139 0.999310
vt 0.551240 0.999310
vt 0.549078 0.000247
vt 0.522620 0.801803
vt 0.521406 0.000247
vt 0.300022 0.000247
vt 0.327692 0.000247
vt 0.301387 0.801803
vt 0.436446 0.999310
vt 0.272351 0.000247
vt 0.273569 0.801803
vt 0.245163 0.801803
vt 0.244677 0.000247
vt 0.630718 0.999310
vt 0.604428 0.999310
vt 0.685517 0.999310
vt 0.657622 0.999310
vt 0.302178 0.999310
vt 0.274286 0.999310
vt 0.523337 0.999310
vt 0.743571 0.999310
vt 0.714348 0.999310
vt 0.408546 0.999310
vt 0.381651 0.999310
vt 0.245457 0.999310
vt 0.123806 0.994254
vt 0.123582 0.994621
vt 0.123332 0.994424
vt 0.123500 0.994149
vt 0.122369 0.995039
vt 0.121948 0.994894
vt 0.122111 0.994627
vt 0.122426 0.994736
vt 0.123806 0.993420
vt 0.123884 0.993837
vt 0.123558 0.993837
vt 0.123500 0.993525
vt 0.123238 0.994894
vt 0.123076 0.994627
vt 0.121605 0.993053
vt 0.121948 0.992780
vt 0.122111 0.993047
vt 0.121854 0.993250
vt 0.121605 0.994621
vt 0.121381 0.994254
vt 0.121687 0.994149
vt 0.121854 0.994424
vt 0.121303 0.993837
vt 0.121381 0.993420
vt 0.121687 0.993525
vt 0.121628 0.993837
vt 0.122817 0.992635
vt 0.123238 0.992780
vt 0.123076 0.993047
vt 0.122761 0.992938
vt 0.123582 0.993053
vt 0.123332 0.993250
vt 0.122817 0.995039
vt 0.122761 0.994736
vt 0.122369 0.992635
vt 0.122426 0.992938
s 1
usemtl condor_chimney
f 15/1/1 33/2/2 32/3/3 14/4/4
f 10/5/5 11/6/6 29/7/7 28/8/8
f 23/9/9 24/10/10 42/11/11 41/12/12
f 3/13/13 21/14/14 19/15/15 2/16/16
f 10/5/5 28/8/8 27/17/17 9/18/18
f 13/19/19 14/4/4 32/3/3 31/20/20
f 24/10/10 23/9/9 5/21/21 6/22/22
f 13/19/19 31/20/20 30/23/23 12/24/24
f 36/25/25 20/26/26 38/27/27 54/28/28
f 5/21/21 23/9/9 22/29/29 4/30/30
f 2/16/16 19/15/15 20/26/26 1/31/31
f 26/32/32 27/17/17 45/33/33 44/34/34
f 4/30/30 22/29/29 21/14/14 3/13/13
f 8/35/35 26/32/32 25/36/36 7/37/37
f 17/38/38 18/39/39 36/25/25 35/40/40
f 9/18/18 27/17/17 26/32/32 8/35/35
f 1/31/31 20/26/26 36/25/25 18/39/39
f 22/29/29 23/9/9 41/12/12 40/41/41
f 16/42/42 34/43/43 33/44/2 15/45/1
f 11/6/6 12/24/24 30/23/23 29/7/7
f 17/38/38 35/40/40 34/43/43 16/42/42
f 28/8/8 29/7/7 47/46/44 46/47/45
f 30/23/23 31/20/20 49/48/46 48/49/47
f 34/43/43 35/40/40 53/50/48 52/51/49
f 24/10/10 25/36/36 43/52/50 42/11/11
f 32/3/3 33/2/2 51/53/51 50/54/52
f 31/20/20 32/3/3 50/54/52 49/48/46
f 21/14/14 22/29/29 40/41/41 39/55/53
f 35/40/40 36/25/25 54/28/28 53/50/48
f 27/17/17 28/8/8 46/47/45 45/33/33
f 19/15/15 21/14/14 39/55/53 37/56/54
f 25/36/36 26/32/32 44/34/34 43/52/50
f 33/44/2 34/43/43 52/51/49 51/57/51
f 6/22/22 7/37/37 25/36/36 24/10/10
f 29/7/7 30/23/23 48/49/47 47/46/44
f 20/26/26 19/15/15 37/56/54 38/27/27
f 47/58/55 48/59/55 66/60/55 65/61/55
f 51/62/55 52/63/55 70/64/55 69/65/55
f 45/66/55 46/67/55 64/68/55 63/69/55
f 48/59/55 49/70/55 67/71/55 66/60/55
f 39/72/55 40/73/55 58/74/55 57/75/55
f 46/67/55 47/58/55 65/61/55 64/68/55
f 53/76/55 54/77/55 72/78/55 71/79/55
f 38/80/55 37/81/55 55/82/55 56/83/55
f 42/84/55 43/85/55 61/86/55 60/87/55
f 54/77/55 38/80/55 56/83/55 72/78/55
f 37/81/55 39/72/55 57/75/55 55/82/55
f 44/88/55 45/66/55 63/69/55 62/89/55
f 50/90/55 51/62/55 69/65/55 68/91/55
f 49/70/55 50/90/55 68/91/55 67/71/55
f 43/85/55 44/88/55 62/89/55 61/86/55
f 52/63/55 53/76/55 71/79/55 70/64/55
f 40/73/55 41/92/55 59/93/55 58/74/55
f 41/92/55 42/84/55 60/87/55 59/93/55
f 69/65/56 70/64/57 88/64/57 87/65/56
f 61/86/58 62/89/59 80/89/59 79/86/58
f 55/82/60 57/75/61 75/75/61 73/82/60
f 66/60/62 67/71/63 85/71/63 84/60/62
f 56/83/64 55/82/60 73/82/60 74/83/64
f 70/64/57 71/79/65 89/79/65 88/64/57
f 72/78/66 56/83/64 74/83/64 90/78/66
f 59/93/67 60/87/68 78/87/68 77/93/67
f 63/69/69 64/68/70 82/68/70 81/69/69
f 65/61/71 66/60/62 84/60/62 83/61/71
f 57/75/61 58/74/72 76/74/72 75/75/61
f 68/91/73 69/65/56 87/65/56 86/91/73
f 62/89/59 63/69/69 81/69/69 80/89/59
f 71/79/65 72/78/66 90/78/66 89/79/65
f 58/74/72 59/93/67 77/93/67 76/74/72
f 64/68/70 65/61/71 83/61/71 82/68/70
f 60/87/68 61/86/58 79/86/58 78/87/68
f 67/71/63 68/91/73 86/91/73 85/71/63
f 84/60/55 85/71/55 86/91/55 87/65/55 88/64/55 89/79/55 90/78/55 74/83/55 73/82/55 75/75/55 76/74/55 77/93/55 78/87/55 79/86/55 80/89/55 81/69/55 82/68/55 83/61/55
