# Blender 5.1.2
# www.blender.org
mtllib transmitter.mtl
o silos
v -4.489601 9.543800 -0.212702
v -5.539600 7.722799 -0.212701
v -5.539600 7.722803 22.287298
v -4.489601 9.543803 22.287298
v -4.489601 5.901800 -0.212701
v -4.489601 5.901803 22.287298
v -5.539600 4.080800 -0.212701
v -5.539600 4.080803 22.287300
v -4.489600 2.259799 -0.212700
v -4.489600 2.259803 22.287300
v -5.539600 0.438800 -0.212700
v -5.539600 0.438803 22.287300
v -4.489600 -1.382200 -0.212700
v -4.489600 -1.382197 22.287300
v -5.539599 -3.203201 -0.212699
v -5.539599 -3.203197 22.287300
v -4.489600 -5.024200 -0.212699
v -4.489600 -5.024197 22.287300
v -5.539599 -6.845201 -0.212699
v -5.539599 -6.845197 22.287302
v -4.489599 -8.666200 -0.212699
v -4.489599 -8.666197 22.287302
v -5.539599 -10.487201 -0.212698
v -5.539599 -10.487197 22.287302
v -4.489599 -12.308200 -0.212698
v -4.489599 -12.308197 22.287302
v -5.539598 -14.129201 -0.212698
v -5.539598 -14.129197 22.287302
v -4.489599 -15.947900 -0.212697
v -4.489599 -15.947897 22.287302
v -2.391499 -15.953700 -0.212697
v -2.391499 -15.953696 22.287302
v -2.393398 -18.304199 -0.212697
v -2.393398 -18.304195 22.287304
v 1.806602 -18.304199 -0.212697
v 1.806602 -18.304195 22.287304
v 1.805401 -15.953700 -0.212697
v 1.805401 -15.953696 22.287302
v 3.904202 -15.947900 -0.212697
v 3.904202 -15.947896 22.287302
v 4.954201 -14.129200 -0.212698
v 4.954201 -14.129196 22.287302
v 3.904201 -12.308200 -0.212698
v 3.904201 -12.308196 22.287302
v 4.954201 -10.487200 -0.212698
v 4.954201 -10.487196 22.287302
v 3.904201 -8.666200 -0.212699
v 3.904201 -8.666196 22.287302
v 4.954200 -6.845200 -0.212699
v 4.954200 -6.845196 22.287302
v 3.904201 -5.024199 -0.212699
v 3.904201 -5.024196 22.287300
v 4.954200 -3.203200 -0.212699
v 4.954200 -3.203196 22.287300
v 3.904200 -1.382200 -0.212700
v 3.904200 -1.382196 22.287300
v 4.954200 0.438800 -0.212700
v 4.954200 0.438804 22.287300
v 3.904200 2.259800 -0.212700
v 3.904200 2.259804 22.287300
v 4.954199 4.080801 -0.212701
v 4.954199 4.080804 22.287300
v 3.904200 5.901801 -0.212701
v 3.904200 5.901804 22.287298
v 4.954199 7.722800 -0.212701
v 4.954199 7.722804 22.287298
v 3.904199 9.543800 -0.212702
v 3.904199 9.543804 22.287298
v 4.954199 11.364800 -0.212702
v 4.954199 11.364804 22.287298
v 3.904199 13.183400 -0.212702
v 3.904199 13.183404 22.287298
v 1.805399 13.183800 -0.212702
v 1.805399 13.183804 22.287298
v 0.756599 15.002800 -0.212702
v 0.756599 15.002804 22.287298
v -1.343401 15.002800 -0.212702
v -1.343401 15.002804 22.287298
v -2.391501 13.183800 -0.212702
v -2.391501 13.183804 22.287298
v -4.489601 13.183400 -0.212702
v -4.489601 13.183403 22.287298
v -5.539601 11.364799 -0.212702
v -5.539601 11.364803 22.287298
v -3.889599 -15.947897 22.287302
v -2.391499 -15.953696 24.387302
v -3.889599 -15.947896 24.387302
v -2.393398 -18.304195 24.387304
v 1.806602 -18.304195 24.387304
v 1.805401 -15.953696 24.387302
v 3.304201 -15.947896 22.287302
v 3.304201 -15.947896 24.387302
v 3.304200 0.337604 24.387300
v 3.304200 0.337604 22.287300
v 3.304199 13.183404 22.287298
v 3.304199 13.183404 24.387299
v 1.805399 13.183804 24.387299
v 0.756599 15.002804 24.387299
v -1.343401 15.002804 24.387299
v -2.391501 13.183804 24.387299
v -3.889601 13.183403 22.287298
v -3.889601 13.183404 24.387299
v -3.889599 -10.899996 24.387302
v -3.889599 -10.899997 22.287302
v 3.304201 -10.899996 24.387302
v 0.756601 -10.899995 26.799402
v 1.805401 -12.718995 26.799402
v 1.805401 -12.718996 24.387302
v 0.756601 -10.899996 24.387302
v -1.343399 -10.899996 26.799402
v -1.343399 -10.899996 24.387302
v -2.391499 -12.718996 26.799402
v -2.391499 -12.718996 24.387302
v 1.805401 -15.953695 26.799402
v -2.391499 -15.953696 26.799402
v -2.393398 -18.304195 26.799404
v 1.806602 -18.304195 26.799404
v 3.304201 -10.899996 22.287302
v -3.889600 0.337604 24.387300
v -3.889600 0.337603 22.287300
vn -0.8663 0.4995 -0.0000
vn -0.8663 -0.4995 -0.0000
vn -0.8660 -0.5000 -0.0000
vn -0.0028 -1.0000 -0.0000
vn -1.0000 0.0008 -0.0000
vn -0.0000 -1.0000 -0.0000
vn 1.0000 0.0005 -0.0000
vn 0.0028 -1.0000 -0.0000
vn 0.8660 -0.5000 -0.0000
vn 0.8663 0.4995 -0.0000
vn 0.8663 -0.4995 -0.0000
vn 0.8660 0.5000 -0.0000
vn 0.0002 1.0000 -0.0000
vn -0.0000 1.0000 -0.0000
vn -0.8665 0.4992 -0.0000
vn -0.0002 1.0000 -0.0000
vn -0.8660 0.5000 -0.0000
vn -0.0000 -0.0000 1.0000
vn -0.0039 -1.0000 -0.0000
vn 0.0039 -1.0000 -0.0000
vn 1.0000 -0.0000 -0.0000
vn 0.0003 1.0000 -0.0000
vn -0.0003 1.0000 -0.0000
vn -1.0000 -0.0000 -0.0000
vt 0.962600 0.501400
vt 0.944350 0.501400
vt 0.944350 0.727700
vt 0.962600 0.727700
vt 0.926050 0.501400
vt 0.926050 0.727700
vt 0.907800 0.501400
vt 0.907800 0.727700
vt 0.889550 0.501400
vt 0.889550 0.727700
vt 0.871250 0.501400
vt 0.871250 0.727700
vt 0.853000 0.501400
vt 0.853000 0.727700
vt 0.834700 0.501400
vt 0.834700 0.727700
vt 0.816450 0.501400
vt 0.816450 0.727700
vt 0.798200 0.501400
vt 0.798200 0.727700
vt 0.779900 0.501400
vt 0.779900 0.727700
vt 0.761650 0.501400
vt 0.761650 0.727700
vt 0.743350 0.501400
vt 0.743350 0.727700
vt 0.725100 0.501400
vt 0.725100 0.727700
vt 0.706850 0.501400
vt 0.706850 0.727700
vt 0.591700 0.501600
vt 0.612900 0.501600
vt 0.612900 0.726600
vt 0.591700 0.726600
vt 0.706800 0.501400
vt 0.683200 0.501400
vt 0.683200 0.727700
vt 0.706800 0.727700
vt 0.655300 0.501600
vt 0.655300 0.726600
vt 0.683300 0.751750
vt 0.706850 0.751750
vt 0.706850 0.978050
vt 0.683300 0.978050
vt 0.676450 0.501600
vt 0.676450 0.726600
vt 0.706900 0.751750
vt 0.725150 0.751750
vt 0.725150 0.978050
vt 0.706900 0.978050
vt 0.743450 0.751750
vt 0.743450 0.978050
vt 0.761700 0.751750
vt 0.761700 0.978050
vt 0.780000 0.751750
vt 0.780000 0.978050
vt 0.798250 0.751750
vt 0.798250 0.978050
vt 0.816500 0.751750
vt 0.816500 0.978050
vt 0.834800 0.751750
vt 0.834800 0.978050
vt 0.853050 0.751750
vt 0.853050 0.978050
vt 0.871350 0.751750
vt 0.871350 0.978050
vt 0.889600 0.751750
vt 0.889600 0.978050
vt 0.907900 0.751750
vt 0.907900 0.978050
vt 0.926150 0.751750
vt 0.926150 0.978050
vt 0.944400 0.751750
vt 0.944400 0.978050
vt 0.962700 0.751750
vt 0.962700 0.978050
vt 0.980950 0.751750
vt 0.980950 0.978050
vt 0.999200 0.751750
vt 0.999200 0.978050
vt 0.587100 0.501000
vt 0.565900 0.501000
vt 0.565900 0.726050
vt 0.587100 0.726050
vt 0.555350 0.501000
vt 0.555350 0.726050
vt 0.534100 0.501000
vt 0.534100 0.726050
vt 0.523550 0.501000
vt 0.523550 0.726050
vt 0.502350 0.501000
vt 0.502350 0.726050
vt 0.999150 0.501400
vt 0.980900 0.501400
vt 0.980900 0.727700
vt 0.999150 0.727700
vt 0.645100 0.983250
vt 0.645100 0.998900
vt 0.603550 0.998900
vt 0.603550 0.983250
vt 0.613900 0.777050
vt 0.634700 0.777050
vt 0.645100 0.789150
vt 0.603550 0.789150
vt 0.572350 0.801250
vt 0.582750 0.789150
vt 0.582750 0.813400
vt 0.665850 0.789150
vt 0.676250 0.801250
vt 0.665850 0.813400
vt 0.572350 0.825550
vt 0.582750 0.837650
vt 0.676250 0.825550
vt 0.665850 0.837650
vt 0.676250 0.849800
vt 0.665850 0.861900
vt 0.572350 0.849800
vt 0.582750 0.861900
vt 0.572350 0.874050
vt 0.582750 0.886200
vt 0.676250 0.874050
vt 0.665850 0.886200
vt 0.572350 0.898300
vt 0.582750 0.910450
vt 0.676250 0.898300
vt 0.665850 0.910450
vt 0.572350 0.922550
vt 0.582750 0.934700
vt 0.676250 0.922550
vt 0.665850 0.934700
vt 0.676250 0.946850
vt 0.665850 0.958950
vt 0.572350 0.946850
vt 0.582750 0.958950
vt 0.572350 0.971100
vt 0.582750 0.983200
vt 0.676250 0.971100
vt 0.665850 0.983200
vt 0.597750 0.726600
vt 0.612900 0.747600
vt 0.597750 0.747600
vt 0.683200 0.748800
vt 0.706800 0.748800
vt 0.655300 0.747600
vt 0.706850 0.999150
vt 0.683300 0.999150
vt 0.670400 0.726600
vt 0.670400 0.747600
vt 0.870300 0.999150
vt 0.870300 0.978050
vt 0.999200 0.999150
vt 0.581050 0.726050
vt 0.565900 0.747050
vt 0.581050 0.747050
vt 0.555350 0.747050
vt 0.534100 0.747050
vt 0.523550 0.747050
vt 0.508400 0.726050
vt 0.508400 0.747050
vt 0.757500 0.748800
vt 0.757500 0.727700
vt 0.706850 0.748800
vt 0.588700 0.949600
vt 0.659900 0.949600
vt 0.659900 0.983200
vt 0.588700 0.983200
vt 0.568003 0.776050
vt 0.583835 0.776050
vt 0.583835 0.751900
vt 0.568003 0.751900
vt 0.557073 0.776050
vt 0.578273 0.776050
vt 0.578273 0.751900
vt 0.557073 0.751900
vt 0.551802 0.776050
vt 0.569087 0.776050
vt 0.569087 0.751900
vt 0.551802 0.751900
vt 0.564172 0.751950
vt 0.564172 0.776100
vt 0.527200 0.776100
vt 0.527200 0.751950
vt 0.527100 0.751950
vt 0.527100 0.776100
vt 0.564022 0.776100
vt 0.564022 0.751950
vt 0.503350 0.776100
vt 0.503350 0.751950
vt 0.655300 0.771750
vt 0.612900 0.771750
vt 0.503450 0.776100
vt 0.503450 0.751950
vt 0.645100 0.961700
vt 0.603550 0.961700
vt 0.613900 0.949600
vt 0.634700 0.949600
vt 0.706900 0.999150
vt 0.757550 0.978050
vt 0.757550 0.999150
vt 0.870250 0.748800
vt 0.870250 0.727700
vt 0.588700 0.874700
vt 0.659900 0.874700
vt 0.999150 0.748800
vt 0.588700 0.789150
vt 0.659900 0.789150
s 1
usemtl condor_transmitter
f 1/1/1 2/2/1 3/3/1
f 1/1/1 3/3/1 4/4/1
f 2/2/2 5/5/2 6/6/2
f 2/2/2 6/6/2 3/3/2
f 5/5/1 7/7/1 8/8/1
f 5/5/1 8/8/1 6/6/1
f 7/7/2 9/9/2 10/10/2
f 7/7/2 10/10/2 8/8/2
f 9/9/1 11/11/1 12/12/1
f 9/9/1 12/12/1 10/10/1
f 11/11/2 13/13/2 14/14/2
f 11/11/2 14/14/2 12/12/2
f 13/13/1 15/15/1 16/16/1
f 13/13/1 16/16/1 14/14/1
f 15/15/2 17/17/2 18/18/2
f 15/15/2 18/18/2 16/16/2
f 17/17/1 19/19/1 20/20/1
f 17/17/1 20/20/1 18/18/1
f 19/19/2 21/21/2 22/22/2
f 19/19/2 22/22/2 20/20/2
f 21/21/1 23/23/1 24/24/1
f 21/21/1 24/24/1 22/22/1
f 23/23/2 25/25/2 26/26/2
f 23/23/2 26/26/2 24/24/2
f 25/25/1 27/27/1 28/28/1
f 25/25/1 28/28/1 26/26/1
f 27/27/3 29/29/3 30/30/3
f 27/27/3 30/30/3 28/28/3
f 29/31/4 31/32/4 32/33/4
f 29/31/4 32/33/4 30/34/4
f 31/35/5 33/36/5 34/37/5
f 31/35/5 34/37/5 32/38/5
f 33/32/6 35/39/6 36/40/6
f 33/32/6 36/40/6 34/33/6
f 35/41/7 37/42/7 38/43/7
f 35/41/7 38/43/7 36/44/7
f 37/39/8 39/45/8 40/46/8
f 37/39/8 40/46/8 38/40/8
f 39/47/9 41/48/9 42/49/9
f 39/47/9 42/49/9 40/50/9
f 41/48/10 43/51/10 44/52/10
f 41/48/10 44/52/10 42/49/10
f 43/51/11 45/53/11 46/54/11
f 43/51/11 46/54/11 44/52/11
f 45/53/10 47/55/10 48/56/10
f 45/53/10 48/56/10 46/54/10
f 47/55/11 49/57/11 50/58/11
f 47/55/11 50/58/11 48/56/11
f 49/57/10 51/59/10 52/60/10
f 49/57/10 52/60/10 50/58/10
f 51/59/11 53/61/11 54/62/11
f 51/59/11 54/62/11 52/60/11
f 53/61/10 55/63/10 56/64/10
f 53/61/10 56/64/10 54/62/10
f 55/63/11 57/65/11 58/66/11
f 55/63/11 58/66/11 56/64/11
f 57/65/10 59/67/10 60/68/10
f 57/65/10 60/68/10 58/66/10
f 59/67/11 61/69/11 62/70/11
f 59/67/11 62/70/11 60/68/11
f 61/69/10 63/71/10 64/72/10
f 61/69/10 64/72/10 62/70/10
f 63/71/11 65/73/11 66/74/11
f 63/71/11 66/74/11 64/72/11
f 65/73/10 67/75/10 68/76/10
f 65/73/10 68/76/10 66/74/10
f 67/75/11 69/77/11 70/78/11
f 67/75/11 70/78/11 68/76/11
f 69/77/12 71/79/12 72/80/12
f 69/77/12 72/80/12 70/78/12
f 71/81/13 73/82/13 74/83/13
f 71/81/13 74/83/13 72/84/13
f 73/82/10 75/85/10 76/86/10
f 73/82/10 76/86/10 74/83/10
f 75/85/14 77/87/14 78/88/14
f 75/85/14 78/88/14 76/86/14
f 77/87/15 79/89/15 80/90/15
f 77/87/15 80/90/15 78/88/15
f 79/89/16 81/91/16 82/92/16
f 79/89/16 82/92/16 80/90/16
f 81/93/17 83/94/17 84/95/17
f 81/93/17 84/95/17 82/96/17
f 83/94/2 1/1/2 4/4/2
f 83/94/2 4/4/2 84/95/2
f 32/97/18 34/98/18 36/99/18
f 32/97/18 36/99/18 38/100/18
f 76/101/18 78/102/18 80/103/18
f 74/104/18 76/101/18 80/103/18
f 70/105/18 72/106/18 74/104/18
f 68/107/18 70/105/18 74/104/18
f 68/107/18 74/104/18 80/103/18
f 80/103/18 82/108/18 84/109/18
f 80/103/18 84/109/18 4/110/18
f 68/107/18 80/103/18 4/110/18
f 66/111/18 68/107/18 4/110/18
f 64/112/18 66/111/18 4/110/18
f 64/112/18 4/110/18 3/113/18
f 64/112/18 3/113/18 6/114/18
f 64/112/18 6/114/18 8/115/18
f 64/112/18 8/115/18 10/116/18
f 62/117/18 64/112/18 10/116/18
f 60/118/18 62/117/18 10/116/18
f 58/119/18 60/118/18 10/116/18
f 56/120/18 58/119/18 10/116/18
f 56/120/18 10/116/18 12/121/18
f 56/120/18 12/121/18 14/122/18
f 54/123/18 56/120/18 14/122/18
f 52/124/18 54/123/18 14/122/18
f 52/124/18 14/122/18 16/125/18
f 52/124/18 16/125/18 18/126/18
f 50/127/18 52/124/18 18/126/18
f 48/128/18 50/127/18 18/126/18
f 48/128/18 18/126/18 20/129/18
f 48/128/18 20/129/18 22/130/18
f 48/128/18 22/130/18 24/131/18
f 48/128/18 24/131/18 26/132/18
f 46/133/18 48/128/18 26/132/18
f 44/134/18 46/133/18 26/132/18
f 42/135/18 44/134/18 26/132/18
f 40/136/18 42/135/18 26/132/18
f 38/100/18 40/136/18 26/132/18
f 32/97/18 38/100/18 26/132/18
f 32/97/18 26/132/18 28/137/18
f 32/97/18 28/137/18 30/138/18
s 0
f 85/139/19 32/33/19 86/140/19
f 86/140/19 87/141/19 85/139/19
f 32/38/5 34/37/5 88/142/5
f 88/142/5 86/143/5 32/38/5
f 34/33/6 36/40/6 89/144/6
f 89/144/6 88/140/6 34/33/6
f 36/44/7 38/43/7 90/145/7
f 90/145/7 89/146/7 36/44/7
f 38/40/20 91/147/20 92/148/20
f 92/148/20 90/144/20 38/40/20
f 93/149/21 94/150/21 95/80/21
f 95/80/21 96/151/21 93/149/21
f 95/152/22 74/83/22 97/153/22
f 97/153/22 96/154/22 95/152/22
f 74/83/10 76/86/10 98/155/10
f 98/155/10 97/153/10 74/83/10
f 76/86/14 78/88/14 99/156/14
f 99/156/14 98/155/14 76/86/14
f 78/88/15 80/90/15 100/157/15
f 100/157/15 99/156/15 78/88/15
f 80/90/23 101/158/23 102/159/23
f 102/159/23 100/157/23 80/90/23
f 103/160/24 104/161/24 85/30/24
f 85/30/24 87/162/24 103/160/24
f 105/163/18 103/164/18 87/165/18
f 86/97/18 88/98/18 89/99/18
f 86/97/18 89/99/18 90/100/18
f 87/165/18 86/97/18 90/100/18
f 105/163/18 87/165/18 90/100/18
f 92/166/18 105/163/18 90/100/18
f 106/167/10 107/168/10 108/169/10
f 108/169/10 109/170/10 106/167/10
f 110/171/14 106/172/14 109/173/14
f 109/173/14 111/174/14 110/171/14
f 112/175/15 110/176/15 111/177/15
f 111/177/15 113/178/15 112/175/15
f 108/179/21 107/180/21 114/181/21
f 114/181/21 90/182/21 108/179/21
f 86/183/24 115/184/24 112/185/24
f 112/185/24 113/186/24 86/183/24
f 116/187/5 115/184/5 88/188/5
f 86/183/5 88/188/5 115/184/5
f 117/189/6 116/190/6 89/144/6
f 88/140/6 89/144/6 116/190/6
f 114/181/7 117/191/7 90/182/7
f 89/192/7 90/182/7 117/191/7
f 116/98/18 117/99/18 114/100/18
f 114/100/18 115/97/18 116/98/18
f 112/193/18 115/97/18 114/100/18
f 112/193/18 114/100/18 107/194/18
f 112/193/18 107/194/18 106/195/18
f 112/193/18 106/195/18 110/196/18
f 92/197/21 91/50/21 118/198/21
f 118/198/21 105/199/21 92/197/21
f 119/200/24 120/201/24 104/161/24
f 104/161/24 103/160/24 119/200/24
f 93/202/18 119/203/18 103/164/18
f 103/164/18 105/163/18 93/202/18
f 105/199/21 118/198/21 94/150/21
f 94/150/21 93/149/21 105/199/21
f 102/204/24 101/96/24 120/201/24
f 120/201/24 119/200/24 102/204/24
f 96/205/18 97/104/18 100/103/18
f 96/205/18 100/103/18 102/206/18
f 96/205/18 102/206/18 119/203/18
f 93/202/18 96/205/18 119/203/18
f 98/101/18 99/102/18 100/103/18
f 100/103/18 97/104/18 98/101/18
