# Blender 5.1.2
# www.blender.org
mtllib transmitter.mtl
o transmitter_small
v 0.529576 0.547718 39.119499
v -0.558248 0.547717 39.119499
v -0.558248 -0.540106 39.119499
v 0.529576 -0.540106 39.119499
v 3.410581 3.428717 -0.285305
v -3.439355 3.428716 -0.285305
v -1.380220 1.369583 11.069822
v 1.351446 1.369584 11.069822
v -1.380220 1.379819 27.120615
v 1.351446 1.379819 27.120615
v -3.439354 -3.421118 -0.285304
v -1.380220 -1.362083 11.069822
v -1.380220 -1.372212 27.120615
v 3.410581 -3.421117 -0.285304
v 1.351446 -1.362083 11.069822
v 1.351446 -1.372211 27.120615
v -0.008916 0.002336 38.860191
v -0.321676 -0.310425 38.860191
v -0.451259 0.002336 38.860191
v -0.008916 -0.440007 38.860191
v 0.303946 -0.310425 38.860191
v 0.433529 0.002336 38.860191
v 0.303946 0.315198 38.860191
v -0.008916 0.444679 38.860191
v -0.321676 0.315198 38.860191
v -0.321676 -0.310423 49.731735
v -0.451259 0.002338 49.731735
v -0.008916 -0.440006 49.731735
v 0.303946 -0.310423 49.731735
v 0.433529 0.002338 49.731735
v 0.303946 0.315200 49.731735
v -0.008916 0.444681 49.731735
v -0.321676 0.315200 49.731735
v -0.008916 0.002338 49.731735
v 2.442715 -2.431466 14.250012
v 2.442714 2.526708 14.250012
v -2.451022 -2.431466 14.250012
v -2.451023 2.526707 14.250012
v -2.451023 2.526707 15.421625
v 2.442714 2.526708 15.421625
v -2.451022 -2.431466 15.421625
v 2.442715 -2.431466 15.421625
v 2.442714 2.526709 20.722345
v 2.442715 -2.431465 20.722345
v -2.451022 -2.431465 20.722345
v -2.451023 2.526708 20.722345
v -2.451023 2.526709 21.894058
v 2.442714 2.526709 21.894058
v -2.451022 -2.431465 21.894058
v 2.442715 -2.431465 21.894058
v 2.442715 -2.431464 23.964743
v 2.442714 2.526709 23.964743
v -2.451022 -2.431465 23.964743
v -2.451023 2.526709 23.964743
v -2.451023 2.526709 25.136456
v 2.442714 2.526709 25.136456
v -2.451022 -2.431465 25.136456
v 2.442715 -2.431464 25.136456
v 2.366121 -2.349095 27.056181
v 2.366120 2.392973 27.056181
v -2.374428 -2.349095 27.056181
v -2.374428 2.392973 27.056181
v -1.860252 1.772718 17.271542
v -1.351548 2.462170 17.990578
v -1.196130 2.672805 17.271542
v -1.744956 1.929048 18.373144
v -2.192364 1.322675 18.240221
v -2.484457 0.926937 17.654110
v -2.484457 0.926937 16.888975
v -2.192364 1.322675 16.302866
v -1.744956 1.929048 16.169941
v -1.351548 2.462170 16.552608
v -0.780635 2.040900 17.990578
v -0.625218 2.251434 17.271542
v -1.174043 1.507678 18.373144
v -1.621452 0.901406 18.240221
v -1.913544 0.505668 17.654110
v -1.913544 0.505668 16.888975
v -1.621452 0.901406 16.302866
v -1.174043 1.507677 16.169941
v -0.780635 2.040900 16.552608
v -1.289340 1.351449 17.271542
v -1.860252 1.772720 28.346331
v -1.351548 2.462172 29.065365
v -1.196130 2.672807 28.346331
v -1.744956 1.929050 29.447931
v -2.192364 1.322677 29.315109
v -2.484457 0.926939 28.729000
v -2.484457 0.926939 27.963764
v -2.192364 1.322677 27.377653
v -1.744956 1.929050 27.244829
v -1.351548 2.462172 27.627396
v -0.780635 2.040902 29.065365
v -0.625218 2.251436 28.346331
v -1.174043 1.507679 29.447931
v -1.621452 0.901408 29.315109
v -1.913544 0.505670 28.729000
v -1.913544 0.505670 27.963764
v -1.621452 0.901408 27.377653
v -1.174043 1.507679 27.244829
v -0.780635 2.040902 27.627396
v -1.289340 1.351451 28.346331
v -1.695615 -1.780513 28.346331
v -2.069468 -1.219428 28.912073
v -2.183550 -1.048002 28.346331
v -1.780416 -1.653362 29.213184
v -1.451748 -2.146768 29.108627
v -1.237162 -2.468849 28.647440
v -1.237162 -2.468849 28.045322
v -1.451748 -2.146768 27.584133
v -1.780416 -1.653362 27.479578
v -2.069468 -1.219428 27.780687
v -1.604735 -0.909909 28.912073
v -1.718917 -0.738484 28.346331
v -1.315783 -1.343843 29.213184
v -0.987015 -1.837350 29.108627
v -0.772530 -2.159432 28.647440
v -0.772530 -2.159432 28.045322
v -0.987015 -1.837351 27.584133
v -1.315783 -1.343843 27.479578
v -1.604735 -0.909909 27.780687
v -1.230982 -1.471095 28.346331
v 1.991861 -1.514459 18.832003
v 1.759444 -2.339268 19.551037
v 1.688523 -2.591138 18.832003
v 1.939177 -1.701488 19.933607
v 2.143530 -0.976171 19.800678
v 2.276861 -0.502724 19.214569
v 2.276861 -0.502724 18.449436
v 2.143530 -0.976171 17.863325
v 1.939177 -1.701488 17.730400
v 1.759444 -2.339269 18.112967
v 1.076476 -2.146870 19.551037
v 1.005556 -2.398741 18.832003
v 1.256210 -1.508988 19.933607
v 1.460563 -0.783773 19.800678
v 1.593894 -0.310326 19.214569
v 1.593894 -0.310326 18.449436
v 1.460563 -0.783773 17.863325
v 1.256210 -1.508989 17.730400
v 1.076476 -2.146871 18.112967
v 1.308894 -1.322062 18.832003
v -1.534321 -1.618611 23.287043
v -1.887405 -1.378190 23.645397
v -1.995204 -1.304736 23.287043
v -1.614360 -1.564104 23.836071
v -1.303929 -1.775448 23.769913
v -1.101298 -1.913439 23.477718
v -1.101298 -1.913439 23.096367
v -1.303929 -1.775448 22.804174
v -1.614360 -1.564104 22.737915
v -1.887405 -1.378190 22.928692
v -1.688320 -1.085895 23.645397
v -1.796119 -1.012441 23.287043
v -1.415275 -1.271809 23.836071
v -1.104844 -1.483153 23.769913
v -0.902214 -1.621144 23.477718
v -0.902214 -1.621144 23.096367
v -1.104844 -1.483153 22.804174
v -1.415275 -1.271809 22.737915
v -1.688320 -1.085895 22.928692
v -1.335236 -1.326215 23.287043
v 0.986609 1.896325 22.932947
v 1.557319 1.819831 23.416119
v 1.731683 1.796427 22.932947
v 1.115989 1.878999 23.673260
v 0.614073 1.946374 23.583899
v 0.286419 1.990244 23.189983
v 0.286419 1.990244 22.675808
v 0.614073 1.946374 22.281893
v 1.115989 1.878999 22.192533
v 1.557319 1.819831 22.449671
v 1.493896 1.347195 23.416119
v 1.668260 1.323791 22.932947
v 1.052566 1.406363 23.673260
v 0.550649 1.473738 23.583899
v 0.222995 1.517709 23.189983
v 0.222995 1.517709 22.675808
v 0.550649 1.473738 22.281893
v 1.052566 1.406363 22.192533
v 1.493896 1.347195 22.449671
v 0.923186 1.423789 22.932947
v 1.783759 1.554690 27.904087
v 1.958022 1.005763 28.387262
v 2.011212 0.838187 27.904087
v 1.823272 1.430275 28.644400
v 1.670083 1.912941 28.555141
v 1.570085 2.228032 28.161228
v 1.570085 2.228032 27.646950
v 1.670083 1.912941 27.253036
v 1.823272 1.430274 27.163776
v 1.958022 1.005763 27.420916
v 1.503521 0.861591 28.387262
v 1.556711 0.693914 27.904087
v 1.368771 1.286001 28.644400
v 1.215582 1.768668 28.555141
v 1.115584 2.083759 28.161228
v 1.115584 2.083759 27.646950
v 1.215582 1.768668 27.253036
v 1.368771 1.286001 27.163776
v 1.503521 0.861591 27.420916
v 1.329258 1.410416 27.904087
v 2.709275 -2.520926 24.526638
v 2.248899 -2.933685 25.045473
v 2.108273 -3.059721 24.526638
v 2.604921 -2.614440 25.321558
v 3.009777 -2.251528 25.225714
v 3.274008 -2.014551 24.802721
v 3.274008 -2.014551 24.250656
v 3.009777 -2.251528 23.827662
v 2.604921 -2.614440 23.731819
v 2.248899 -2.933685 24.007902
v 1.907162 -2.552435 25.045473
v 1.766536 -2.678471 24.526638
v 2.263184 -2.233291 25.321558
v 2.668040 -1.870278 25.225714
v 2.932271 -1.633403 24.802721
v 2.932271 -1.633403 24.250656
v 2.668040 -1.870278 23.827662
v 2.263184 -2.233291 23.731819
v 1.907162 -2.552435 24.007902
v 2.367539 -2.139676 24.526638
v 0.529576 0.547718 39.119499
v -0.558248 0.547717 39.119499
v -0.558248 -0.540106 39.119499
v 0.529576 -0.540106 39.119499
v 3.410581 3.428717 -0.285305
v -3.439355 3.428716 -0.285305
v -1.380220 1.369583 11.069822
v 1.351446 1.369584 11.069822
v -1.380220 1.379819 27.120615
v 1.351446 1.379819 27.120615
v -3.439354 -3.421118 -0.285304
v -1.380220 -1.362083 11.069822
v -1.380220 -1.372212 27.120615
v 3.410581 -3.421117 -0.285304
v 1.351446 -1.362083 11.069822
v 1.351446 -1.372211 27.120615
v 2.442715 -2.431466 14.250012
v 2.442714 2.526708 14.250012
v -2.451022 -2.431466 14.250012
v -2.451023 2.526707 14.250012
v -2.451023 2.526707 15.421625
v 2.442714 2.526708 15.421625
v -2.451022 -2.431466 15.421625
v 2.442715 -2.431466 15.421625
v 2.442714 2.526709 20.722345
v 2.442715 -2.431465 20.722345
v -2.451022 -2.431465 20.722345
v -2.451023 2.526708 20.722345
v -2.451023 2.526709 21.894058
v 2.442714 2.526709 21.894058
v -2.451022 -2.431465 21.894058
v 2.442715 -2.431465 21.894058
v 2.442715 -2.431464 23.964743
v 2.442714 2.526709 23.964743
v -2.451022 -2.431465 23.964743
v -2.451023 2.526709 23.964743
v -2.451023 2.526709 25.136456
v 2.442714 2.526709 25.136456
v -2.451022 -2.431465 25.136456
v 2.442715 -2.431464 25.136456
v 2.366121 -2.349095 27.056181
v 2.366120 2.392973 27.056181
v -2.374428 -2.349095 27.056181
v -2.374428 2.392973 27.056181
v 3.410581 3.428717 -5.285305
v -3.439355 3.428716 -5.285305
v -3.439354 -3.421118 -5.285304
v 3.410581 -3.421117 -5.285304
v 3.410581 3.428717 -5.285305
v -3.439355 3.428716 -5.285305
v -3.439354 -3.421118 -5.285304
v 3.410581 -3.421117 -5.285304
vn 0.8100 0.5239 0.2635
vn 0.8100 0.5239 -0.2635
vn -0.4325 0.9010 -0.0339
vn -0.1976 0.9311 0.3067
vn 0.7009 -0.7008 0.1326
vn -0.7009 -0.7008 0.1326
vn -0.7021 -0.7021 0.1187
vn 0.7021 -0.7021 0.1187
vn -0.7071 -0.7071 -0.0000
vn -1.0000 -0.0000 -0.0000
vn -0.6660 -0.6660 -0.3358
vn -0.5586 -0.5583 0.6134
vn -0.5586 0.5583 0.6134
vn -0.7062 0.7065 0.0473
vn -0.7062 -0.7065 0.0473
vn 0.7009 0.7008 0.1326
vn 0.7021 0.7021 0.1187
vn 0.5586 -0.5583 0.6134
vn 0.7062 -0.7065 0.0473
vn 0.5586 0.5583 0.6134
vn 0.7062 0.7065 0.0473
vn -0.0000 1.0000 -0.0000
vn 0.6486 0.7611 -0.0000
vn 0.5774 0.5774 -0.5774
vn -0.1039 0.7033 -0.7033
vn -0.7009 0.7008 0.1326
vn -0.7021 0.7021 0.1187
vn -0.0000 -0.0000 -1.0000
vn -0.5490 -0.5490 -0.6303
vn -0.7764 -0.0000 -0.6302
vn -0.0000 -0.7764 -0.6302
vn 0.5490 -0.5490 -0.6303
vn 0.7764 -0.0000 -0.6302
vn 0.5489 0.5491 -0.6302
vn -0.0000 0.7764 -0.6303
vn -0.5490 0.5490 -0.6302
vn 0.9646 0.0086 0.2634
vn 0.9646 0.0085 -0.2634
vn 0.1175 0.9925 -0.0337
vn 0.3319 0.8921 0.3067
vn 0.8483 0.5295 -0.0000
vn 0.6696 0.5535 0.4952
vn 0.5992 -0.7469 0.2883
vn 0.8299 -0.5579 -0.0000
vn -0.0000 0.7764 0.6303
vn 0.5489 0.5491 0.6302
vn -0.6327 0.7282 0.2635
vn -0.6327 0.7282 -0.2635
vn -0.8312 -0.5550 -0.0338
vn -0.8940 -0.3267 0.3067
vn 0.2394 -0.9345 0.2635
vn 0.2394 -0.9345 -0.2635
vn 0.9917 0.1238 -0.0337
vn 0.9456 -0.1084 0.3067
vn 0.7071 -0.7071 -0.0000
vn 0.5162 -0.6056 -0.6056
vn -0.0000 -0.0000 1.0000
vn -0.7764 -0.0000 0.6302
vn -0.5490 -0.5490 0.6303
vn -0.0000 -0.7764 0.6302
vn 0.5490 -0.5490 0.6303
vn 0.7764 -0.0000 0.6302
vn -0.5490 0.5490 0.6302
vn 0.5162 -0.6056 0.6056
vn -0.0000 -0.2844 0.9587
vn 0.7618 -0.6478 -0.0000
vn 1.0000 -0.0000 -0.0000
vn -0.0000 -0.7071 -0.7071
vn -0.6487 -0.7611 -0.0000
vn -0.9429 -0.2039 0.2635
vn -0.9429 -0.2039 -0.2635
vn 0.0862 -0.9957 -0.0338
vn -0.1441 -0.9408 0.3067
vn -0.0000 -0.7071 0.7071
vn -0.6660 -0.6660 0.3358
vn -0.6486 -0.7611 -0.0000
vn -0.6486 0.7611 -0.0000
vn -0.7618 0.6478 -0.0000
vn -0.0000 -1.0000 -0.0000
vn -0.6060 -0.5153 -0.6060
vn 0.1461 -0.0000 -0.9893
vn -0.8046 0.5938 -0.0000
vn -0.1627 0.8534 0.4952
vn -0.0556 0.9985 -0.0000
vn -0.4336 0.4862 0.7587
vn -0.7417 0.0686 0.6672
vn -0.7417 0.0686 -0.6672
vn -0.4336 0.4862 -0.7587
vn -0.1627 0.8534 -0.4952
vn 0.9569 0.1841 -0.2247
vn 0.7641 0.2898 -0.5763
vn -0.4336 0.4863 -0.7586
vn 0.7716 -0.0669 -0.6326
vn 0.4487 -0.1375 -0.8830
vn 0.2033 -0.8370 -0.5080
vn -0.1441 -0.9408 -0.3067
vn -0.7417 0.0687 -0.6672
vn 0.2033 -0.8370 -0.5081
vn 0.1775 -0.8720 0.4562
vn 0.0900 -0.6237 0.7765
vn 0.4486 -0.1375 0.8831
vn -0.2970 0.6832 -0.6671
vn -0.6357 -0.5812 -0.5081
vn 0.8046 -0.5938 -0.0000
vn 0.9162 -0.1024 0.3873
vn 0.7044 -0.3897 -0.5933
vn -0.4336 0.4863 0.7586
vn -0.7417 0.0687 0.6672
vn 0.7124 -0.2177 -0.6671
vn 0.3260 -0.5640 -0.7587
vn -0.3689 0.5565 -0.7445
vn 0.0384 0.6288 -0.7766
vn 0.0900 -0.6236 0.7766
vn 0.4487 -0.1376 0.8830
vn -0.6049 -0.2421 -0.7586
vn -0.8579 0.1376 -0.4951
vn 0.3257 0.7027 -0.6326
vn 0.2819 0.3749 -0.8831
vn -0.8323 -0.5544 -0.0000
vn -0.8579 0.1377 0.4951
vn -0.9577 0.2877 -0.0000
vn -0.6049 -0.2421 0.7586
vn -0.3172 -0.6741 0.6671
vn -0.1294 -0.9560 0.2635
vn -0.1294 -0.9560 -0.2635
vn -0.3172 -0.6741 -0.6671
vn 0.1527 0.9624 -0.2248
vn 0.8408 -0.5414 -0.0000
vn 0.7862 -0.3696 0.4952
vn -0.4199 -0.8606 0.2882
vn -0.1507 -0.9886 -0.0000
vn 0.7124 -0.2177 0.6671
vn 0.0384 0.6288 0.7766
vn 0.8803 -0.1301 0.4562
vn 0.6169 -0.1278 0.7766
vn 0.2819 0.3749 0.8831
vn -0.0122 0.8171 0.5763
vn 0.8562 -0.0939 -0.5080
vn 0.8355 -0.4559 -0.3067
vn 0.8323 0.5543 -0.0000
vn 0.9625 -0.2712 -0.0000
vn 0.4536 -0.7409 0.4952
vn 0.4048 -0.9144 -0.0000
vn 0.5774 -0.3017 0.7587
vn 0.7182 0.1979 0.6671
vn 0.7182 0.1979 -0.6671
vn 0.5774 -0.3017 -0.7587
vn 0.4536 -0.7409 -0.4952
vn -0.8301 -0.5103 -0.2248
vn -0.6123 -0.5412 -0.5764
vn -0.4683 -0.0298 -0.8831
vn -0.4859 0.7112 -0.5080
vn -0.9956 -0.0933 -0.0000
vn -0.8466 -0.1949 0.4952
vn -0.2011 0.9361 0.2885
vn -0.4920 0.8706 -0.0000
vn -0.5915 0.3366 0.7327
vn -0.4683 -0.0298 0.8831
vn 0.2174 0.6141 0.7587
vn -0.2970 0.6832 0.6671
vn -0.2500 -0.6330 0.7327
vn 0.0955 -0.4594 0.8831
vn -0.9625 0.2712 -0.0000
vn -0.8934 -0.2278 0.3872
vn -0.5628 -0.8266 -0.0000
vn -0.4695 -0.4517 0.7586
vn -0.0405 -0.7438 0.6672
vn -0.0404 -0.7438 -0.6671
vn -0.4694 -0.4517 -0.7587
vn -0.8467 -0.1948 -0.4951
vn -0.3186 0.7526 -0.5763
vn 0.4520 0.4914 -0.7445
vn 0.6198 0.1135 -0.7765
vn 0.6196 0.1134 0.7767
vn 0.0860 0.7406 0.6664
vn 0.5628 0.8266 -0.0000
vn 0.1329 0.9911 -0.0000
vn 0.2174 0.6141 -0.7587
vn 0.6697 0.5535 -0.4952
vn 0.6219 -0.5302 -0.5763
vn -0.1841 -0.6418 -0.7444
vn -0.0138 -0.8687 -0.4952
vn -0.7420 0.2220 -0.6326
vn 0.6482 0.0654 0.7587
vn 0.4912 0.5600 0.6672
vn -0.6791 -0.0441 0.7328
vn -0.3748 -0.2824 0.8830
vn -0.1480 -0.9890 -0.0000
vn -0.0138 -0.8687 0.4952
vn -0.9571 0.0292 0.2882
vn -0.9632 -0.2690 -0.0000
vn -0.1330 -0.9911 -0.0000
vn 0.9531 0.3025 -0.0000
vn 0.3887 0.8829 0.2635
vn 0.3887 0.8829 -0.2635
vn 0.4912 0.5600 -0.6672
vn 0.6482 0.0654 -0.7587
vn 0.7863 -0.3696 -0.4952
vn -0.2141 -0.7887 -0.5763
vn -0.3748 -0.2824 -0.8830
vn -0.5576 0.2934 -0.7766
vn -0.6768 0.6692 -0.3067
vn -0.9531 -0.3025 -0.0000
vn -0.9320 0.2982 0.2061
vn 0.6676 -0.7446 -0.0000
vn 0.3260 -0.5640 0.7587
vn -0.4114 0.2256 0.8831
vn -0.6675 0.7446 -0.0000
vn -0.7009 0.7008 -0.1326
vn -0.7021 0.7021 -0.1187
vn 0.7021 0.7021 -0.1187
vn 0.7009 0.7008 -0.1326
vn 0.7071 0.7071 -0.0000
vn 0.6660 0.6660 0.3358
vn 0.7040 0.7036 -0.0970
vn 0.7062 0.7065 -0.0473
vn 0.7062 -0.7065 -0.0473
vn 0.7040 -0.7036 -0.0970
vn -0.7009 -0.7008 -0.1326
vn -0.7021 -0.7021 -0.1187
vn -0.7040 0.7036 -0.0970
vn -0.7062 0.7065 -0.0473
vn -0.7040 -0.7036 -0.0970
vn -0.7062 -0.7065 -0.0473
vn 0.1039 -0.7033 0.7033
vn -0.5774 -0.5774 0.5774
vn 0.7009 -0.7008 -0.1326
vn 0.7021 -0.7021 -0.1187
vn -0.7071 0.7071 -0.0000
vn -0.5162 0.6056 0.6056
vn -0.5162 0.6056 -0.6056
vn -0.0000 0.2844 -0.9587
vn -0.0000 0.7071 0.7071
vn 0.6487 0.7611 -0.0000
vn -0.0000 0.7071 -0.7071
vn 0.6660 0.6660 -0.3358
vn 0.6486 -0.7611 -0.0000
vn 0.6060 0.5153 0.6060
vn -0.1461 -0.0000 0.9893
vt 0.284300 0.096250
vt 0.248850 0.096250
vt 0.248850 0.129100
vt 0.284300 0.129100
vt 0.279350 0.499400
vt 0.170900 0.499400
vt 0.124000 0.204250
vt 0.325850 0.204250
vt 0.499300 0.056250
vt 0.328550 0.056250
vt 0.328550 0.003050
vt 0.499300 0.003050
vt 0.461150 0.498700
vt 0.423900 0.498700
vt 0.386300 0.204150
vt 0.496550 0.204150
vt 0.114500 0.499100
vt 0.000700 0.499100
vt 0.000700 0.203850
vt 0.114500 0.203850
vt 0.363200 0.207700
vt 0.376100 0.207700
vt 0.371800 0.207700
vt 0.345900 0.207700
vt 0.341600 0.207700
vt 0.350250 0.207700
vt 0.354550 0.207700
vt 0.358850 0.207700
vt 0.367500 0.207700
vt 0.266600 0.096250
vt 0.299900 0.096250
vt 0.299900 0.129100
vt 0.266600 0.129100
vt 0.363200 0.438000
vt 0.358850 0.438000
vt 0.371800 0.438000
vt 0.376100 0.438000
vt 0.341600 0.438000
vt 0.345900 0.438000
vt 0.350250 0.438000
vt 0.354550 0.438000
vt 0.367500 0.438000
vt 0.201250 0.200650
vt 0.201250 0.001950
vt 0.000000 0.200650
vt 0.000000 0.001950
vt 0.264650 0.144400
vt 0.298750 0.115750
vt 0.309200 0.144400
vt 0.272400 0.100550
vt 0.242400 0.105850
vt 0.222850 0.129150
vt 0.222850 0.159600
vt 0.242400 0.182950
vt 0.272400 0.188200
vt 0.298750 0.173000
vt 0.233300 0.096250
vt 0.233300 0.129100
vt 0.215550 0.096250
vt 0.215550 0.129100
vt 0.221700 0.096250
vt 0.221700 0.129100
vt 0.311450 0.096250
vt 0.311450 0.129100
vt 0.317600 0.096250
vt 0.317600 0.129100
vt 0.110300 0.323350
vt 0.006700 0.323600
vt 0.006700 0.260950
vt 0.110300 0.260700
s 1
usemtl condor_transmitter
f 128/1/1 129/2/2 138/3/3 137/4/4
f 15/5/5 12/6/6 11/7/7 14/8/8
f 49/9/9 47/10/10 46/11/10 45/12/11
f 3/13/12 2/14/13 9/15/14 13/16/15
f 8/5/16 15/6/5 14/7/8 5/8/17
f 4/13/18 3/14/12 13/15/15 16/16/19
f 1/13/20 4/14/18 16/15/19 10/16/21
f 55/9/22 56/10/23 52/11/24 54/12/25
f 2/13/13 1/14/20 10/15/21 9/16/14
f 7/5/26 8/6/16 5/7/17 6/8/27
f 13/17/15 9/18/14 7/19/26 12/20/6
f 12/5/6 7/6/26 6/7/27 11/8/7
f 17/21/28 18/22/29 19/23/30
f 17/21/28 20/24/31 18/25/29
f 17/21/28 21/26/32 20/24/31
f 17/21/28 22/27/33 21/26/32
f 17/21/28 23/28/34 22/27/33
f 17/21/28 24/21/35 23/28/34
f 17/21/28 25/29/36 24/21/35
f 17/21/28 19/23/30 25/29/36
f 208/1/37 209/2/38 218/3/39 217/4/40
f 165/30/41 164/31/42 173/32/43 174/33/44
f 23/28/34 24/21/35 32/34/45 31/35/46
f 168/1/47 169/2/48 178/3/49 177/4/50
f 16/17/19 13/18/15 12/19/6 15/20/5
f 148/1/51 149/2/52 158/3/53 157/4/54
f 50/9/55 49/10/9 45/11/11 44/12/56
f 34/34/57 27/36/58 26/37/59
f 34/34/57 26/38/59 28/39/60
f 34/34/57 28/39/60 29/40/61
f 34/34/57 29/40/61 30/41/62
f 34/34/57 30/41/62 31/35/46
f 34/34/57 31/35/46 32/34/45
f 34/34/57 32/34/45 33/42/63
f 34/34/57 33/42/63 27/36/58
f 38/43/64 37/44/57 36/45/65
f 38/12/64 36/11/65 39/9/66
f 39/10/66 41/9/67 38/11/64
f 36/45/28 35/46/68 37/44/11
f 39/9/22 40/10/22 36/11/22
f 38/11/10 37/12/11 41/9/69
f 88/1/70 89/2/71 98/3/72 97/4/73
f 43/45/28 44/46/56 45/44/11
f 22/27/33 23/28/34 31/35/46 30/41/62
f 48/9/67 50/10/55 44/11/56
f 46/43/74 45/44/57 43/45/75
f 25/29/36 19/23/30 27/36/58 33/42/63
f 43/12/75 44/11/10 48/9/76
f 55/10/67 57/9/67 54/11/67
f 51/12/77 53/11/22 58/9/78
f 58/10/78 56/9/10 51/11/77
f 48/10/76 47/9/79 46/12/74 43/11/75
f 54/11/25 53/12/80 57/9/76
f 58/9/79 57/10/76 53/11/80
f 51/11/81 52/12/24 56/9/23
f 62/43/57 61/44/57 60/45/57
f 60/45/28 59/46/28 61/44/28
f 20/24/31 21/26/32 29/40/61 28/39/60
f 21/26/32 22/27/33 30/41/62 29/40/61
f 9/17/14 10/18/21 8/19/16 7/20/26
f 53/44/80 54/43/25 52/45/24 51/46/81
f 63/47/82 64/48/83 65/49/84
f 63/47/82 66/50/85 64/48/83
f 63/47/82 67/51/86 66/50/85
f 63/47/82 68/52/70 67/51/86
f 63/47/82 69/53/71 68/52/70
f 63/47/82 70/54/87 69/53/71
f 63/47/82 71/55/88 70/54/87
f 63/47/82 72/56/89 71/55/88
f 63/47/82 65/49/84 72/56/89
f 72/57/89 65/30/84 74/33/90 81/58/91
f 91/59/92 92/57/89 101/58/93 100/60/94
f 69/2/71 70/61/87 79/62/95 78/3/96
f 89/2/71 90/61/97 99/62/98 98/3/72
f 42/10/10 40/9/10 36/12/10 35/11/10
f 67/63/86 68/1/70 77/4/99 76/64/100
f 66/65/85 67/63/86 76/64/100 75/66/101
f 169/2/48 170/61/102 179/62/103 178/3/49
f 92/57/89 85/30/84 94/33/90 101/58/93
f 82/33/104 74/33/90 73/32/105
f 82/33/104 73/32/105 75/66/101
f 82/33/104 75/66/101 76/64/100
f 82/33/104 76/64/100 77/4/99
f 82/33/104 77/4/99 78/3/96
f 82/33/104 78/3/96 79/62/95
f 82/33/104 79/62/95 80/60/106
f 82/33/104 80/60/106 81/58/91
f 82/33/104 81/58/91 74/33/90
f 83/47/82 84/48/83 85/49/84
f 83/47/82 86/50/107 84/48/83
f 83/47/82 87/51/108 86/50/107
f 83/47/82 88/52/70 87/51/108
f 83/47/82 89/53/71 88/52/70
f 83/47/82 90/54/97 89/53/71
f 83/47/82 91/55/92 90/54/97
f 83/47/82 92/56/89 91/55/92
f 83/47/82 85/49/84 92/56/89
f 65/30/84 64/31/83 73/32/105 74/33/90
f 64/31/83 66/65/85 75/66/101 73/32/105
f 70/61/87 71/59/88 80/60/106 79/62/95
f 210/61/109 211/59/110 220/60/111 219/62/112
f 68/1/70 69/2/71 78/3/96 77/4/99
f 87/63/108 88/1/70 97/4/73 96/64/113
f 86/65/107 87/63/108 96/64/113 95/66/114
f 71/59/88 72/57/89 81/58/91 80/60/106
f 111/59/115 112/57/116 121/58/117 120/60/118
f 102/33/104 94/33/90 93/32/105
f 102/33/104 93/32/105 95/66/114
f 102/33/104 95/66/114 96/64/113
f 102/33/104 96/64/113 97/4/73
f 102/33/104 97/4/73 98/3/72
f 102/33/104 98/3/72 99/62/98
f 102/33/104 99/62/98 100/60/94
f 102/33/104 100/60/94 101/58/93
f 102/33/104 101/58/93 94/33/90
f 103/47/119 104/48/120 105/49/121
f 103/47/119 106/50/122 104/48/120
f 103/47/119 107/51/123 106/50/122
f 103/47/119 108/52/124 107/51/123
f 103/47/119 109/53/125 108/52/124
f 103/47/119 110/54/126 109/53/125
f 103/47/119 111/55/115 110/54/126
f 103/47/119 112/56/116 111/55/115
f 103/47/119 105/49/121 112/56/116
f 112/57/116 105/30/121 114/33/127 121/58/117
f 84/31/83 86/65/107 95/66/114 93/32/105
f 185/30/128 184/31/129 193/32/130 194/33/131
f 207/63/132 208/1/37 217/4/40 216/64/133
f 42/9/79 41/10/69 37/11/11 35/12/68
f 107/63/123 108/1/124 117/4/134 116/64/135
f 106/65/122 107/63/123 116/64/135 115/66/136
f 104/31/120 106/65/122 115/66/136 113/32/137
f 109/2/125 110/61/126 119/62/138 118/3/139
f 122/33/140 114/33/127 113/32/137
f 122/33/140 113/32/137 115/66/136
f 122/33/140 115/66/136 116/64/135
f 122/33/140 116/64/135 117/4/134
f 122/33/140 117/4/134 118/3/139
f 122/33/140 118/3/139 119/62/138
f 122/33/140 119/62/138 120/60/118
f 122/33/140 120/60/118 121/58/117
f 122/33/140 121/58/117 114/33/127
f 123/47/141 124/48/142 125/49/143
f 123/47/141 126/50/144 124/48/142
f 123/47/141 127/51/145 126/50/144
f 123/47/141 128/52/1 127/51/145
f 123/47/141 129/53/2 128/52/1
f 123/47/141 130/54/146 129/53/2
f 123/47/141 131/55/147 130/54/146
f 123/47/141 132/56/148 131/55/147
f 123/47/141 125/49/143 132/56/148
f 132/57/148 125/30/143 134/33/149 141/58/150
f 131/59/147 132/57/148 141/58/150 140/60/151
f 90/61/97 91/59/92 100/60/94 99/62/98
f 129/2/2 130/61/146 139/62/152 138/3/3
f 19/23/30 18/22/29 26/37/59 27/36/58
f 145/30/153 144/31/154 153/32/155 154/33/156
f 126/65/144 127/63/145 136/64/157 135/66/158
f 85/30/84 84/31/83 93/32/105 94/33/90
f 166/65/159 167/63/160 176/64/161 175/66/162
f 142/33/163 134/33/149 133/32/164
f 142/33/163 133/32/164 135/66/158
f 142/33/163 135/66/158 136/64/157
f 142/33/163 136/64/157 137/4/4
f 142/33/163 137/4/4 138/3/3
f 142/33/163 138/3/3 139/62/152
f 142/33/163 139/62/152 140/60/151
f 142/33/163 140/60/151 141/58/150
f 142/33/163 141/58/150 134/33/149
f 143/47/165 144/48/154 145/49/153
f 143/47/165 146/50/166 144/48/154
f 143/47/165 147/51/167 146/50/166
f 143/47/165 148/52/51 147/51/167
f 143/47/165 149/53/52 148/52/51
f 143/47/165 150/54/168 149/53/52
f 143/47/165 151/55/169 150/54/168
f 143/47/165 152/56/170 151/55/169
f 143/47/165 145/49/153 152/56/170
f 152/57/170 145/30/153 154/33/156 161/58/171
f 105/30/121 104/31/120 113/32/137 114/33/127
f 150/61/168 151/59/169 160/60/172 159/62/173
f 127/63/145 128/1/1 137/4/4 136/64/157
f 108/1/124 109/2/125 118/3/139 117/4/134
f 147/63/167 148/1/51 157/4/54 156/64/174
f 10/17/21 16/18/19 15/19/5 8/20/16
f 144/31/154 146/65/166 155/66/175 153/32/155
f 130/61/146 131/59/147 140/60/151 139/62/152
f 162/33/176 154/33/156 153/32/155
f 162/33/176 153/32/155 155/66/175
f 162/33/176 155/66/175 156/64/174
f 162/33/176 156/64/174 157/4/54
f 162/33/176 157/4/54 158/3/53
f 162/33/176 158/3/53 159/62/173
f 162/33/176 159/62/173 160/60/172
f 162/33/176 160/60/172 161/58/171
f 162/33/176 161/58/171 154/33/156
f 163/47/177 164/48/42 165/49/41
f 163/47/177 166/50/159 164/48/42
f 163/47/177 167/51/160 166/50/159
f 163/47/177 168/52/47 167/51/160
f 163/47/177 169/53/48 168/52/47
f 163/47/177 170/54/102 169/53/48
f 163/47/177 171/55/178 170/54/102
f 163/47/177 172/56/179 171/55/178
f 163/47/177 165/49/41 172/56/179
f 172/57/179 165/30/41 174/33/44 181/58/180
f 124/31/142 126/65/144 135/66/158 133/32/164
f 170/61/102 171/59/178 180/60/181 179/62/103
f 211/59/110 212/57/182 221/58/183 220/60/111
f 3/67/12 4/68/18 1/69/20 2/70/13
f 167/63/160 168/1/47 177/4/50 176/64/161
f 186/65/184 187/63/185 196/64/186 195/66/187
f 164/31/42 166/65/159 175/66/162 173/32/43
f 205/30/188 204/31/189 213/32/190 214/33/191
f 182/33/192 174/33/44 173/32/43
f 182/33/192 173/32/43 175/66/162
f 182/33/192 175/66/162 176/64/161
f 182/33/192 176/64/161 177/4/50
f 182/33/192 177/4/50 178/3/49
f 182/33/192 178/3/49 179/62/103
f 182/33/192 179/62/103 180/60/181
f 182/33/192 180/60/181 181/58/180
f 182/33/192 181/58/180 174/33/44
f 183/47/193 184/48/129 185/49/128
f 183/47/193 186/50/184 184/48/129
f 183/47/193 187/51/185 186/50/184
f 183/47/193 188/52/194 187/51/185
f 183/47/193 189/53/195 188/52/194
f 183/47/193 190/54/196 189/53/195
f 183/47/193 191/55/197 190/54/196
f 183/47/193 192/56/198 191/55/197
f 183/47/193 185/49/128 192/56/198
f 192/57/198 185/30/128 194/33/131 201/58/199
f 191/59/197 192/57/198 201/58/199 200/60/200
f 190/61/196 191/59/197 200/60/200 199/62/201
f 189/2/195 190/61/196 199/62/201 198/3/202
f 24/21/35 25/29/36 33/42/63 32/34/45
f 125/30/143 124/31/142 133/32/164 134/33/149
f 149/2/52 150/61/168 159/62/173 158/3/53
f 146/65/166 147/63/167 156/64/174 155/66/175
f 184/31/129 186/65/184 195/66/187 193/32/130
f 202/33/203 194/33/131 193/32/130
f 202/33/203 193/32/130 195/66/187
f 202/33/203 195/66/187 196/64/186
f 202/33/203 196/64/186 197/4/204
f 202/33/203 197/4/204 198/3/202
f 202/33/203 198/3/202 199/62/201
f 202/33/203 199/62/201 200/60/200
f 202/33/203 200/60/200 201/58/199
f 202/33/203 201/58/199 194/33/131
f 203/47/205 204/48/189 205/49/188
f 203/47/205 206/50/206 204/48/189
f 203/47/205 207/51/132 206/50/206
f 203/47/205 208/52/37 207/51/132
f 203/47/205 209/53/38 208/52/37
f 203/47/205 210/54/109 209/53/38
f 203/47/205 211/55/110 210/54/109
f 203/47/205 212/56/182 211/55/110
f 203/47/205 205/49/188 212/56/182
f 212/57/182 205/30/188 214/33/191 221/58/183
f 151/59/169 152/57/170 161/58/171 160/60/172
f 171/59/178 172/57/179 181/58/180 180/60/181
f 209/2/38 210/61/109 219/62/112 218/3/39
f 18/25/29 20/24/31 28/39/60 26/38/59
f 110/61/126 111/59/115 120/60/118 119/62/138
f 206/65/206 207/63/132 216/64/133 215/66/207
f 204/31/189 206/65/206 215/66/207 213/32/190
f 187/63/185 188/1/194 197/4/204 196/64/186
f 222/33/208 214/33/191 213/32/190
f 222/33/208 213/32/190 215/66/207
f 222/33/208 215/66/207 216/64/133
f 222/33/208 216/64/133 217/4/40
f 222/33/208 217/4/40 218/3/39
f 222/33/208 218/3/39 219/62/112
f 222/33/208 219/62/112 220/60/111
f 222/33/208 220/60/111 221/58/183
f 222/33/208 221/58/183 214/33/191
f 188/1/194 189/2/195 198/3/202 197/4/204
f 237/5/209 236/8/210 233/7/211 234/6/212
f 253/9/213 249/12/214 250/11/67 251/10/67
f 225/13/215 235/16/216 231/15/217 224/14/218
f 230/5/219 227/8/220 236/7/210 237/6/209
f 226/13/221 238/16/222 235/15/216 225/14/215
f 223/13/223 232/16/224 238/15/222 226/14/221
f 259/9/79 258/12/225 256/11/226 260/10/76
f 224/13/218 231/16/217 232/15/224 223/14/223
f 229/5/227 228/8/228 227/7/220 230/6/219
f 235/17/216 234/20/212 229/19/227 231/18/217
f 234/5/212 233/8/211 228/7/228 229/6/227
f 238/17/222 237/20/209 234/19/212 235/18/216
f 254/9/229 248/12/230 249/11/214 253/10/213
f 242/43/231 240/45/232 241/44/28
f 242/12/231 243/9/78 240/11/232
f 243/10/78 242/11/231 245/9/10
f 240/45/57 241/44/214 239/46/233
f 243/9/79 240/11/79 244/10/79
f 242/11/67 245/9/234 241/12/214
f 247/45/57 249/44/214 248/46/230
f 252/9/10 248/11/230 254/10/229
f 250/43/235 247/45/236 249/44/28
f 247/12/236 252/9/23 248/11/67
f 259/10/10 258/11/10 261/9/10
f 255/12/237 262/9/66 257/11/79
f 262/10/66 255/11/237 260/9/67
f 252/10/23 247/11/236 250/12/235 251/9/22
f 258/11/225 261/9/23 257/12/238
f 262/9/22 257/11/238 261/10/23
f 255/11/239 260/9/76 256/12/226
f 266/43/28 264/45/28 265/44/28
f 264/45/57 265/44/57 263/46/57
f 231/17/217 229/20/227 230/19/219 232/18/224
f 257/44/238 255/46/239 256/45/226 258/43/225
f 246/10/67 239/11/67 240/12/67 244/9/67
f 246/9/22 239/12/233 241/11/214 245/10/234
f 232/17/224 230/20/219 237/19/209 238/18/222
f 6/8/27 5/7/17 267/7/213 268/8/229
f 14/8/8 11/7/7 269/7/9 270/8/55
f 233/7/211 236/8/210 274/8/229 273/7/213
f 228/7/228 233/8/211 273/8/213 272/7/55
f 236/7/210 227/8/220 271/8/9 274/7/229
f 11/8/7 6/7/27 268/7/229 269/8/9
f 227/7/220 228/8/228 272/8/55 271/7/9
f 5/8/17 14/7/8 270/7/55 267/8/213
