# Blender 5.1.2
# www.blender.org
mtllib transmitter.mtl
o watertowerLOD1
v -0.000000 0.992716 -0.300000
v -0.704524 0.700882 -0.300000
v -0.704524 0.700885 20.400036
v -0.000000 0.992719 20.400036
v -0.996358 -0.003639 20.400036
v -0.996358 -0.003642 -0.300000
v -0.704524 -0.708166 -0.300000
v -0.704524 -0.708162 20.400036
v 0.000000 -1.000000 -0.300000
v 0.000000 -0.999997 20.400036
v 0.704524 -0.708166 -0.300000
v 0.704524 -0.708162 20.400036
v 0.996358 -0.003642 -0.300000
v 0.996358 -0.003639 20.400036
v 0.704524 0.700882 -0.300000
v 0.704524 0.700885 20.400036
v -4.622928 2.058264 25.432224
v -5.060424 0.000004 25.432224
v -3.183911 3.536095 23.345940
v -4.027581 1.793199 27.448372
v -4.027581 -1.793190 27.448372
v -2.950020 -3.276325 27.448372
v -1.362374 -4.192953 27.448372
v 0.460839 -4.384580 27.448372
v 2.204368 -3.818073 27.448372
v 3.566743 -2.591385 27.448372
v 4.312395 -0.916623 27.448372
v 4.312395 0.916633 27.448372
v 3.566742 2.591395 27.448372
v 2.204368 3.818082 27.448372
v 0.460838 4.384589 27.448372
v -1.362375 4.192962 27.448372
v -2.950021 3.276334 27.448372
v -4.408736 0.000004 27.448372
v -1.563758 4.812753 25.432224
v -0.925643 2.848840 29.026939
v -2.736473 -1.218352 29.026939
v -2.004342 -2.226043 29.026939
v -0.925642 -2.848830 29.026939
v 0.313109 -2.979028 29.026939
v 1.497721 -2.594125 29.026939
v 2.423364 -1.760672 29.026939
v 2.929985 -0.622782 29.026939
v 2.929985 0.622792 29.026939
v 2.423364 1.760682 29.026939
v 1.497721 2.594134 29.026939
v 0.313109 2.979038 29.026939
v -2.004342 2.226052 29.026939
v -2.736473 1.218361 29.026939
v -2.995442 0.000004 29.026939
v -0.967152 -0.430599 29.884233
v -0.708395 -0.786748 29.884233
v -0.327150 -1.006860 29.884233
v 0.110662 -1.052876 29.884233
v 0.529340 -0.916839 29.884233
v 0.856490 -0.622272 29.884233
v 1.035545 -0.220107 29.884233
v 1.035545 0.220117 29.884233
v 0.856490 0.622281 29.884233
v 0.529340 0.916849 29.884233
v 0.110662 1.052885 29.884233
v -0.327150 1.006869 29.884233
v -0.708395 0.786757 29.884233
v -0.967152 0.430609 29.884233
v -1.058680 0.000005 29.884233
v -3.386085 3.760632 25.432224
v 0.528958 5.032707 25.432226
v 2.530212 4.382460 25.432224
v 4.093969 2.974447 25.432224
v 4.949841 1.052126 25.432224
v 4.949841 -1.052117 25.432224
v 4.093970 -2.974438 25.432224
v 2.530213 -4.382452 25.432224
v 0.528959 -5.032698 25.432224
v -1.563757 -4.812746 25.432224
v -3.386084 -3.760624 25.432224
v -4.622928 -2.058256 25.432224
v -4.758280 0.000003 23.345940
v -4.346905 1.935370 23.345940
v -1.470390 4.525397 23.345940
v 0.497375 4.732217 23.345940
v 2.379139 4.120795 23.345940
v 3.849529 2.796851 23.345940
v 4.654300 0.989306 23.345940
v 4.654300 -0.989298 23.345940
v 3.849530 -2.796843 23.345940
v 2.379140 -4.120788 23.345940
v 0.497376 -4.732210 23.345940
v -1.470389 -4.525389 23.345940
v -3.183911 -3.536088 23.345940
v -4.346905 -1.935363 23.345940
v -3.775918 0.000003 21.452108
v -3.449473 1.535807 21.452108
v -2.526582 2.806057 21.452108
v -1.166823 3.591115 21.452108
v 0.394691 3.755237 21.452108
v 1.887959 3.270045 21.452108
v 3.054782 2.219433 21.452108
v 3.693405 0.785061 21.452108
v 3.693405 -0.785054 21.452108
v 3.054782 -2.219425 21.452108
v 1.887959 -3.270037 21.452108
v 0.394691 -3.755229 21.452108
v -1.166822 -3.591108 21.452108
v -2.526582 -2.806051 21.452108
v -3.449472 -1.535801 21.452108
v -2.496231 0.000003 19.800032
v -2.280420 1.015311 19.800032
v -1.670304 1.855064 19.800032
v -0.771378 2.374059 19.800032
v 0.260927 2.482559 19.800032
v 1.248115 2.161803 19.800032
v 2.019493 1.467251 19.800032
v 2.441682 0.518999 19.800032
v 2.441682 -0.518992 19.800032
v 2.019493 -1.467244 19.800032
v 1.248116 -2.161796 19.800032
v 0.260927 -2.482553 19.800032
v -0.771378 -2.374053 19.800032
v -1.670304 -1.855058 19.800032
v -2.280420 -1.015306 19.800032
v -0.993690 0.000003 18.242901
v -0.907781 0.404173 18.242901
v -0.664909 0.738459 18.242901
v -0.307067 0.945059 18.242901
v 0.103869 0.988250 18.242901
v 0.496845 0.860564 18.242901
v 0.803912 0.584080 18.242901
v 0.971976 0.206603 18.242901
v 0.971976 -0.206597 18.242901
v 0.803912 -0.584073 18.242901
v 0.496845 -0.860558 18.242901
v 0.103869 -0.988244 18.242901
v -0.307067 -0.945053 18.242901
v -0.664909 -0.738453 18.242901
v -0.907781 -0.404167 18.242901
v -0.000000 0.000005 30.000000
v -0.000000 0.000003 17.900036
vn -0.0000 1.0000 -0.0000
vn -0.7071 0.7071 -0.0000
vn -1.0000 -0.0000 -0.0000
vn -0.7071 -0.7071 -0.0000
vn -0.0000 -1.0000 -0.0000
vn 0.7071 -0.7071 -0.0000
vn 1.0000 -0.0000 -0.0000
vn 0.7071 0.7071 -0.0000
vn -0.9105 0.4054 0.0819
vn -0.9966 -0.0000 0.0819
vn -0.6383 0.7089 -0.2999
vn -0.7981 0.3553 0.4866
vn -0.7981 -0.3553 0.4866
vn -0.5846 -0.6492 0.4866
vn -0.2700 -0.8309 0.4866
vn 0.0913 -0.8688 0.4866
vn 0.4368 -0.7566 0.4866
vn 0.7068 -0.5135 0.4866
vn 0.8545 -0.1816 0.4866
vn 0.8545 0.1816 0.4866
vn 0.7068 0.5135 0.4866
vn 0.4368 0.7566 0.4866
vn 0.0913 0.8688 0.4866
vn -0.2700 0.8309 0.4866
vn -0.5846 0.6492 0.4866
vn -0.8736 -0.0000 0.4866
vn -0.3080 0.9479 0.0819
vn -0.1872 0.5761 0.7956
vn -0.5534 -0.2464 0.7956
vn -0.4053 -0.4502 0.7956
vn -0.1872 -0.5761 0.7956
vn 0.0633 -0.6024 0.7956
vn 0.3029 -0.5246 0.7956
vn 0.4901 -0.3561 0.7956
vn 0.5925 -0.1259 0.7956
vn 0.5925 0.1259 0.7956
vn 0.4901 0.3561 0.7956
vn 0.3029 0.5246 0.7956
vn 0.0633 0.6024 0.7956
vn -0.4053 0.4502 0.7956
vn -0.5534 0.2464 0.7956
vn -0.6058 -0.0000 0.7956
vn -0.2546 -0.1133 0.9604
vn -0.1865 -0.2071 0.9604
vn -0.0861 -0.2650 0.9604
vn 0.0291 -0.2771 0.9604
vn 0.1393 -0.2413 0.9604
vn 0.2254 -0.1638 0.9604
vn 0.2726 -0.0579 0.9604
vn 0.2726 0.0579 0.9604
vn 0.2254 0.1638 0.9604
vn 0.1393 0.2413 0.9604
vn 0.0291 0.2771 0.9604
vn -0.0861 0.2650 0.9604
vn -0.1865 0.2071 0.9604
vn -0.2546 0.1133 0.9604
vn -0.2786 -0.0000 0.9604
vn -0.6669 0.7406 0.0819
vn 0.1042 0.9912 0.0819
vn 0.4983 0.8631 0.0819
vn 0.8063 0.5858 0.0819
vn 0.9749 0.2072 0.0819
vn 0.9749 -0.2072 0.0819
vn 0.8063 -0.5858 0.0819
vn 0.4983 -0.8631 0.0819
vn 0.1042 -0.9912 0.0819
vn -0.3080 -0.9479 0.0819
vn -0.6669 -0.7406 0.0819
vn -0.9105 -0.4054 0.0819
vn -0.9540 -0.0000 -0.2999
vn -0.8715 0.3880 -0.2999
vn -0.2948 0.9073 -0.2999
vn 0.0997 0.9487 -0.2999
vn 0.4770 0.8262 -0.2999
vn 0.7718 0.5607 -0.2999
vn 0.9331 0.1983 -0.2999
vn 0.9331 -0.1983 -0.2999
vn 0.7718 -0.5607 -0.2999
vn 0.4770 -0.8262 -0.2999
vn 0.0997 -0.9487 -0.2999
vn -0.2948 -0.9073 -0.2999
vn -0.6383 -0.7089 -0.2999
vn -0.8715 -0.3880 -0.2999
vn -0.8460 -0.0000 -0.5333
vn -0.7728 0.3441 -0.5333
vn -0.5661 0.6287 -0.5333
vn -0.2614 0.8046 -0.5333
vn 0.0884 0.8413 -0.5333
vn 0.4230 0.7326 -0.5333
vn 0.6844 0.4972 -0.5333
vn 0.8275 0.1759 -0.5333
vn 0.8275 -0.1759 -0.5333
vn 0.6844 -0.4972 -0.5333
vn 0.4230 -0.7326 -0.5333
vn 0.0884 -0.8413 -0.5333
vn -0.2614 -0.8046 -0.5333
vn -0.5661 -0.6287 -0.5333
vn -0.7728 -0.3441 -0.5333
vn -0.7593 -0.0000 -0.6508
vn -0.6936 0.3088 -0.6508
vn -0.5080 0.5642 -0.6508
vn -0.2346 0.7221 -0.6508
vn 0.0794 0.7551 -0.6508
vn 0.3796 0.6575 -0.6508
vn 0.6142 0.4463 -0.6508
vn 0.7427 0.1579 -0.6508
vn 0.7427 -0.1579 -0.6508
vn 0.6142 -0.4463 -0.6508
vn 0.3796 -0.6575 -0.6508
vn 0.0794 -0.7551 -0.6508
vn -0.2346 -0.7221 -0.6508
vn -0.5080 -0.5642 -0.6508
vn -0.6936 -0.3088 -0.6508
vn -0.5591 -0.0000 -0.8291
vn -0.5107 0.2274 -0.8291
vn -0.3741 0.4155 -0.8291
vn -0.1728 0.5317 -0.8291
vn 0.0584 0.5560 -0.8291
vn 0.2795 0.4842 -0.8291
vn 0.4523 0.3286 -0.8291
vn 0.5469 0.1162 -0.8291
vn 0.5469 -0.1162 -0.8291
vn 0.4523 -0.3286 -0.8291
vn 0.2795 -0.4842 -0.8291
vn 0.0584 -0.5560 -0.8291
vn -0.1728 -0.5317 -0.8291
vn -0.3741 -0.4155 -0.8291
vn -0.5107 -0.2274 -0.8291
vn -0.0000 -0.0000 1.0000
vn -0.0000 -0.0000 -1.0000
vt 0.444092 0.503906
vt 0.425108 0.503906
vt 0.425108 0.653320
vt 0.444092 0.653320
vt 0.406162 0.653320
vt 0.406162 0.503906
vt 0.387267 0.503906
vt 0.387267 0.653320
vt 0.368408 0.503906
vt 0.368408 0.653320
vt 0.349549 0.503906
vt 0.349549 0.653320
vt 0.330654 0.503906
vt 0.330654 0.653320
vt 0.482022 0.503906
vt 0.463075 0.503906
vt 0.463075 0.653320
vt 0.482022 0.653320
vt 0.157747 0.761050
vt 0.135352 0.761050
vt 0.135352 0.781625
vt 0.157747 0.781625
vt 0.336914 0.761050
vt 0.314518 0.761050
vt 0.314518 0.781625
vt 0.336914 0.781625
vt 0.292122 0.781625
vt 0.292122 0.761050
vt 0.269727 0.761050
vt 0.269727 0.781625
vt 0.202539 0.761050
vt 0.180143 0.761050
vt 0.180143 0.781625
vt 0.202539 0.781625
vt 0.045768 0.797100
vt 0.068164 0.797100
vt 0.068164 0.781625
vt 0.045768 0.781625
vt 0.224935 0.797100
vt 0.247331 0.797100
vt 0.247331 0.781625
vt 0.224935 0.781625
vt 0.045768 0.734744
vt 0.023372 0.734744
vt 0.023372 0.761050
vt 0.045768 0.761050
vt 0.090560 0.797100
vt 0.090560 0.781625
vt 0.269727 0.797100
vt 0.292122 0.797100
vt 0.068164 0.708878
vt 0.045768 0.708878
vt 0.068164 0.734744
vt 0.314518 0.797100
vt 0.336914 0.797100
vt 0.000977 0.781625
vt 0.023372 0.781625
vt 0.000977 0.761050
vt 0.112956 0.761050
vt 0.112956 0.781625
vt 0.090560 0.761050
vt 0.202539 0.797100
vt 0.023372 0.797100
vt 0.000977 0.797100
vt 0.135352 0.797100
vt 0.157747 0.797100
vt 0.112956 0.797100
vt 0.224935 0.761050
vt 0.180143 0.797100
vt 0.068164 0.761050
vt 0.247331 0.812575
vt 0.269727 0.812575
vt 0.247331 0.761050
vt 0.157747 0.812575
vt 0.180143 0.812575
vt 0.135352 0.812575
vt 0.090560 0.812575
vt 0.112956 0.812575
vt 0.045768 0.812575
vt 0.068164 0.812575
vt 0.292122 0.812575
vt 0.314518 0.812575
vt 0.336914 0.812575
vt 0.202539 0.812575
vt 0.224935 0.812575
vt 0.023372 0.812575
vt 0.000977 0.812575
vt 0.090560 0.734744
vt 0.090560 0.708878
vt 0.112956 0.734744
vt 0.269727 0.734744
vt 0.247331 0.734744
vt 0.000977 0.734744
vt 0.314518 0.734744
vt 0.292122 0.734744
vt 0.135352 0.734744
vt 0.157747 0.734744
vt 0.180143 0.734744
vt 0.202539 0.734744
vt 0.224935 0.734744
vt 0.336914 0.734744
vt 0.023372 0.708878
vt 0.112956 0.708878
vt 0.269727 0.708878
vt 0.247331 0.708878
vt 0.000977 0.708878
vt 0.314518 0.708878
vt 0.292122 0.708878
vt 0.135352 0.708878
vt 0.157747 0.708878
vt 0.180143 0.708878
vt 0.202539 0.708878
vt 0.224935 0.708878
vt 0.336914 0.708878
vt 0.292122 0.690170
vt 0.269727 0.690170
vt 0.023372 0.690170
vt 0.000977 0.690170
vt 0.045768 0.690170
vt 0.068164 0.690170
vt 0.090560 0.690170
vt 0.112956 0.690170
vt 0.135352 0.690170
vt 0.157747 0.690170
vt 0.180143 0.690170
vt 0.202539 0.690170
vt 0.224935 0.690170
vt 0.247331 0.690170
vt 0.314518 0.690170
vt 0.336914 0.690170
vt 0.023372 0.671463
vt 0.000977 0.671463
vt 0.045768 0.671463
vt 0.068164 0.671463
vt 0.090560 0.671463
vt 0.112956 0.671463
vt 0.135352 0.671463
vt 0.157747 0.671463
vt 0.180143 0.671463
vt 0.202539 0.671463
vt 0.224935 0.671463
vt 0.247331 0.671463
vt 0.269727 0.671463
vt 0.292122 0.671463
vt 0.314518 0.671463
vt 0.336914 0.671463
vt 0.012174 0.820312
vt 0.012174 0.662109
vt 0.034570 0.820312
vt 0.034570 0.662109
vt 0.056966 0.820312
vt 0.056966 0.662109
vt 0.079362 0.820312
vt 0.079362 0.662109
vt 0.101758 0.820312
vt 0.101758 0.662109
vt 0.124154 0.820312
vt 0.124154 0.662109
vt 0.146549 0.820312
vt 0.146549 0.662109
vt 0.168945 0.820312
vt 0.168945 0.662109
vt 0.191341 0.820312
vt 0.191341 0.662109
vt 0.213737 0.820312
vt 0.213737 0.662109
vt 0.236133 0.820312
vt 0.236133 0.662109
vt 0.258529 0.820312
vt 0.258529 0.662109
vt 0.280924 0.820312
vt 0.280924 0.662109
vt 0.303320 0.820312
vt 0.303320 0.662109
vt 0.325716 0.820312
vt 0.325716 0.662109
s 1
usemtl condor_transmitter
f 1/1/1 2/2/2 3/3/2
f 3/3/2 4/4/1 1/1/1
f 2/2/2 5/5/3 3/3/2
f 2/2/2 6/6/3 5/5/3
f 6/6/3 7/7/4 8/8/4
f 8/8/4 5/5/3 6/6/3
f 7/7/4 9/9/5 10/10/5
f 10/10/5 8/8/4 7/7/4
f 9/9/5 11/11/6 12/12/6
f 12/12/6 10/10/5 9/9/5
f 11/11/6 13/13/7 14/14/7
f 14/14/7 12/12/6 11/11/6
f 13/15/7 15/16/8 16/17/8
f 16/17/8 14/18/7 13/15/7
f 15/16/8 1/1/1 4/4/1
f 4/4/1 16/17/8 15/16/8
f 70/19/62 69/20/61 29/21/21 28/22/20
f 18/23/10 77/24/69 21/25/13 34/26/26
f 22/27/14 76/28/68 75/29/67 23/30/15
f 72/31/64 71/32/63 27/33/19 26/34/18
f 48/35/40 36/36/28 32/37/24 33/38/25
f 41/39/33 40/40/32 24/41/16 25/42/17
f 19/43/11 79/44/71 17/45/9 66/46/58
f 47/47/39 31/48/23 32/37/24 36/36/28
f 39/49/31 38/50/30 22/27/14 23/30/15
f 95/51/87 94/52/86 19/43/11 80/53/72
f 37/54/29 50/55/42 34/26/26 21/25/13
f 34/56/26 20/57/12 17/45/9 18/58/10
f 38/50/30 37/54/29 21/25/13 22/27/14
f 21/25/13 77/24/69 76/28/68 22/27/14
f 69/20/61 68/59/60 30/60/22 29/21/21
f 31/48/23 30/60/22 68/59/60 67/61/59
f 42/62/34 41/39/33 25/42/17 26/34/18
f 49/63/41 20/57/12 34/56/26 50/64/42
f 39/49/31 23/30/15 24/41/16 40/40/32
f 45/65/37 44/66/36 28/22/20 29/21/21
f 71/32/63 70/19/62 28/22/20 27/33/19
f 46/67/38 45/65/37 29/21/21 30/60/22
f 47/47/39 46/67/38 30/60/22 31/48/23
f 73/68/65 72/31/64 26/34/18 25/42/17
f 43/69/35 42/62/34 26/34/18 27/33/19
f 48/35/40 33/38/25 20/57/12 49/63/41
f 27/33/19 28/22/20 44/66/36 43/69/35
f 32/37/24 31/48/23 67/61/59 35/70/27
f 39/49/31 40/40/32 54/71/46 53/72/45
f 23/30/15 75/29/67 74/73/66 24/41/16
f 25/42/17 24/41/16 74/73/66 73/68/65
f 58/74/50 57/75/49 43/69/35 44/66/36
f 59/76/51 58/74/50 44/66/36 45/65/37
f 46/67/38 47/47/39 61/77/53 60/78/52
f 63/79/55 62/80/54 36/36/28 48/35/40
f 38/50/30 39/49/31 53/72/45 52/81/44
f 51/82/43 65/83/57 50/55/42 37/54/29
f 37/54/29 38/50/30 52/81/44 51/82/43
f 47/47/39 36/36/28 62/80/54 61/77/53
f 41/39/33 42/62/34 56/84/48 55/85/47
f 42/62/34 43/69/35 57/75/49 56/84/48
f 48/35/40 49/63/41 64/86/56 63/79/55
f 49/63/41 50/64/42 65/87/57 64/86/56
f 40/40/32 41/39/33 55/85/47 54/71/46
f 45/65/37 46/67/38 60/78/52 59/76/51
f 35/70/27 67/61/59 81/88/73 80/53/72
f 80/53/72 81/88/73 96/89/88 95/51/87
f 67/61/59 68/59/60 82/90/74 81/88/73
f 74/73/66 75/29/67 89/91/81 88/92/80
f 18/58/10 17/45/9 79/44/71 78/93/70
f 76/28/68 77/24/69 91/94/83 90/95/82
f 33/38/25 32/37/24 35/70/27 66/46/58
f 68/59/60 69/20/61 83/96/75 82/90/74
f 69/20/61 70/19/62 84/97/76 83/96/75
f 70/19/62 71/32/63 85/98/77 84/97/76
f 71/32/63 72/31/64 86/99/78 85/98/77
f 72/31/64 73/68/65 87/100/79 86/99/78
f 73/68/65 74/73/66 88/92/80 87/100/79
f 75/29/67 76/28/68 90/95/82 89/91/81
f 77/24/69 18/23/10 78/101/70 91/94/83
f 79/44/71 19/43/11 94/52/86 93/102/85
f 20/57/12 33/38/25 66/46/58 17/45/9
f 66/46/58 35/70/27 80/53/72 19/43/11
f 81/88/73 82/90/74 97/103/89 96/89/88
f 88/92/80 89/91/81 104/104/96 103/105/95
f 78/93/70 79/44/71 93/102/85 92/106/84
f 90/95/82 91/94/83 106/107/98 105/108/97
f 82/90/74 83/96/75 98/109/90 97/103/89
f 83/96/75 84/97/76 99/110/91 98/109/90
f 84/97/76 85/98/77 100/111/92 99/110/91
f 85/98/77 86/99/78 101/112/93 100/111/92
f 86/99/78 87/100/79 102/113/94 101/112/93
f 87/100/79 88/92/80 103/105/95 102/113/94
f 89/91/81 90/95/82 105/108/97 104/104/96
f 91/94/83 78/101/70 92/114/84 106/107/98
f 104/104/96 105/108/97 120/115/112 119/116/111
f 92/106/84 93/102/85 108/117/100 107/118/99
f 93/102/85 94/52/86 109/119/101 108/117/100
f 94/52/86 95/51/87 110/120/102 109/119/101
f 95/51/87 96/89/88 111/121/103 110/120/102
f 96/89/88 97/103/89 112/122/104 111/121/103
f 97/103/89 98/109/90 113/123/105 112/122/104
f 98/109/90 99/110/91 114/124/106 113/123/105
f 99/110/91 100/111/92 115/125/107 114/124/106
f 100/111/92 101/112/93 116/126/108 115/125/107
f 101/112/93 102/113/94 117/127/109 116/126/108
f 102/113/94 103/105/95 118/128/110 117/127/109
f 103/105/95 104/104/96 119/116/111 118/128/110
f 105/108/97 106/107/98 121/129/113 120/115/112
f 106/107/98 92/114/84 107/130/99 121/129/113
f 107/118/99 108/117/100 123/131/115 122/132/114
f 108/117/100 109/119/101 124/133/116 123/131/115
f 109/119/101 110/120/102 125/134/117 124/133/116
f 110/120/102 111/121/103 126/135/118 125/134/117
f 111/121/103 112/122/104 127/136/119 126/135/118
f 112/122/104 113/123/105 128/137/120 127/136/119
f 113/123/105 114/124/106 129/138/121 128/137/120
f 114/124/106 115/125/107 130/139/122 129/138/121
f 115/125/107 116/126/108 131/140/123 130/139/122
f 116/126/108 117/127/109 132/141/124 131/140/123
f 117/127/109 118/128/110 133/142/125 132/141/124
f 118/128/110 119/116/111 134/143/126 133/142/125
f 119/116/111 120/115/112 135/144/127 134/143/126
f 120/115/112 121/129/113 136/145/128 135/144/127
f 121/129/113 107/130/99 122/146/114 136/145/128
f 64/86/56 65/87/57 137/147/129
f 122/132/114 123/131/115 138/148/130
f 63/79/55 64/86/56 137/149/129
f 123/131/115 124/133/116 138/150/130
f 62/80/54 63/79/55 137/151/129
f 124/133/116 125/134/117 138/152/130
f 61/77/53 62/80/54 137/153/129
f 125/134/117 126/135/118 138/154/130
f 60/78/52 61/77/53 137/155/129
f 126/135/118 127/136/119 138/156/130
f 59/76/51 60/78/52 137/157/129
f 127/136/119 128/137/120 138/158/130
f 58/74/50 59/76/51 137/159/129
f 128/137/120 129/138/121 138/160/130
f 57/75/49 58/74/50 137/161/129
f 129/138/121 130/139/122 138/162/130
f 56/84/48 57/75/49 137/163/129
f 130/139/122 131/140/123 138/164/130
f 55/85/47 56/84/48 137/165/129
f 131/140/123 132/141/124 138/166/130
f 54/71/46 55/85/47 137/167/129
f 132/141/124 133/142/125 138/168/130
f 53/72/45 54/71/46 137/169/129
f 133/142/125 134/143/126 138/170/130
f 52/81/44 53/72/45 137/171/129
f 134/143/126 135/144/127 138/172/130
f 51/82/43 52/81/44 137/173/129
f 135/144/127 136/145/128 138/174/130
f 65/83/57 51/82/43 137/175/129
f 136/145/128 122/146/114 138/176/130
