# Blender 5.1.2
# www.blender.org
mtllib transmitter.mtl
o watertower
v -0.000000 0.992716 -0.300000
v -0.704524 0.700882 -0.300000
v -0.704524 0.700885 20.400036
v -0.000000 0.992719 20.400036
v -0.996358 -0.003639 20.400036
v -0.996358 -0.003642 -0.300000
v -0.704524 -0.708166 -0.300000
v -0.704524 -0.708162 20.400036
v 0.000000 -1.000000 -0.300000
v 0.000000 -0.999997 20.400036
v 0.704524 -0.708166 -0.300000
v 0.704524 -0.708162 20.400036
v 0.996358 -0.003642 -0.300000
v 0.996358 -0.003639 20.400036
v 0.704524 0.700882 -0.300000
v 0.704524 0.700885 20.400036
v -4.622928 2.058264 25.432224
v -5.060424 0.000004 25.432224
v -4.420680 -1.968210 26.473919
v -3.237947 -3.596101 26.473919
v -1.495344 -4.602193 26.473919
v 0.505817 -4.812523 26.473919
v 2.419519 -4.190724 26.473919
v 3.914863 -2.844309 26.473919
v 4.733292 -1.006087 26.473919
v 4.733292 1.006097 26.473919
v 3.914862 2.844319 26.473919
v 2.419518 4.190732 26.473919
v 0.505817 4.812532 26.473919
v -1.495345 4.602201 26.473919
v -3.237947 3.596109 26.473919
v -4.420680 1.968217 26.473919
v -4.839036 0.000004 26.473919
v -4.027581 -1.793190 27.448372
v -2.950020 -3.276325 27.448372
v -1.362374 -4.192953 27.448372
v 0.460839 -4.384580 27.448372
v 2.204368 -3.818073 27.448372
v 3.566743 -2.591385 27.448372
v 4.312395 -0.916623 27.448372
v 4.312395 0.916633 27.448372
v 3.566742 2.591395 27.448372
v 2.204368 3.818082 27.448372
v 0.460838 4.384589 27.448372
v -1.362375 4.192962 27.448372
v -2.950021 3.276334 27.448372
v -4.027581 1.793199 27.448372
v -4.408736 0.000004 27.448372
v -3.457026 -1.539163 28.310841
v -2.532115 -2.812194 28.310841
v -1.169377 -3.598970 28.310841
v 0.395555 -3.763452 28.310841
v 1.892093 -3.277197 28.310841
v 3.061471 -2.224284 28.310841
v 3.701493 -0.786772 28.310841
v 3.701493 0.786781 28.310841
v 3.061471 2.224294 28.310841
v 1.892093 3.277206 28.310841
v 0.395555 3.763461 28.310841
v -1.169378 3.598979 28.310841
v -2.532115 2.812203 28.310841
v -3.457026 1.539171 28.310841
v -3.784186 0.000004 28.310841
v -2.736473 -1.218352 29.026939
v -2.004342 -2.226043 29.026939
v -0.925642 -2.848830 29.026939
v 0.313109 -2.979028 29.026939
v 1.497721 -2.594125 29.026939
v 2.423364 -1.760672 29.026939
v 2.929985 -0.622782 29.026939
v 2.929985 0.622792 29.026939
v 2.423364 1.760682 29.026939
v 1.497721 2.594134 29.026939
v 0.313109 2.979038 29.026939
v -0.925643 2.848840 29.026939
v -2.004342 2.226052 29.026939
v -2.736473 1.218361 29.026939
v -2.995442 0.000004 29.026939
v -1.893932 -0.843228 29.558737
v -1.387219 -1.540658 29.558737
v -0.640644 -1.971694 29.558737
v 0.216705 -2.061805 29.558737
v 1.036584 -1.795410 29.558737
v 1.677227 -1.218572 29.558737
v 2.027863 -0.431031 29.558737
v 2.027863 0.431041 29.558737
v 1.677227 1.218582 29.558737
v 1.036583 1.795420 29.558737
v 0.216705 2.061815 29.558737
v -0.640644 1.971704 29.558737
v -1.387219 1.540668 29.558737
v -1.893932 0.843238 29.558737
v -2.073167 0.000005 29.558737
v -0.967152 -0.430599 29.884233
v -0.708395 -0.786748 29.884233
v -0.327150 -1.006860 29.884233
v 0.110662 -1.052876 29.884233
v 0.529340 -0.916839 29.884233
v 0.856490 -0.622272 29.884233
v 1.035545 -0.220107 29.884233
v 1.035545 0.220117 29.884233
v 0.856490 0.622281 29.884233
v 0.529340 0.916849 29.884233
v 0.110662 1.052885 29.884233
v -0.327150 1.006869 29.884233
v -0.708395 0.786757 29.884233
v -0.967152 0.430609 29.884233
v -1.058680 0.000005 29.884233
v -3.386085 3.760632 25.432224
v -1.563758 4.812753 25.432224
v 0.528958 5.032707 25.432224
v 2.530212 4.382460 25.432224
v 4.093969 2.974447 25.432224
v 4.949841 1.052126 25.432224
v 4.949841 -1.052117 25.432224
v 4.093970 -2.974438 25.432224
v 2.530213 -4.382452 25.432224
v 0.528959 -5.032698 25.432224
v -1.563757 -4.812746 25.432224
v -3.386084 -3.760624 25.432224
v -4.622928 -2.058256 25.432224
v -5.053194 0.000004 24.367325
v -4.616322 2.055323 24.367325
v -3.381247 3.755258 24.367325
v -1.561523 4.805877 24.367325
v 0.528202 5.025516 24.367325
v 2.526596 4.376198 24.367325
v 4.088119 2.970197 24.367325
v 4.942770 1.050622 24.367325
v 4.942770 -1.050614 24.367325
v 4.088120 -2.970189 24.367325
v 2.526597 -4.376190 24.367325
v 0.528203 -5.025508 24.367325
v -1.561522 -4.805869 24.367325
v -3.381246 -3.755251 24.367325
v -4.616322 -2.055315 24.367325
v -4.758280 0.000003 23.345940
v -4.346905 1.935370 23.345940
v -3.183911 3.536095 23.345940
v -1.470390 4.525397 23.345940
v 0.497375 4.732217 23.345940
v 2.379139 4.120795 23.345940
v 3.849529 2.796851 23.345940
v 4.654300 0.989306 23.345940
v 4.654300 -0.989298 23.345940
v 3.849530 -2.796843 23.345940
v 2.379140 -4.120788 23.345940
v 0.497376 -4.732210 23.345940
v -1.470389 -4.525389 23.345940
v -3.183911 -3.536088 23.345940
v -4.346905 -1.935363 23.345940
v -4.267433 0.000003 22.398956
v -3.898494 1.735725 22.398956
v -2.855470 3.171324 22.398956
v -1.318710 4.058573 22.398956
v 0.446068 4.244059 22.398956
v 2.133716 3.695709 22.398956
v 3.452425 2.508338 22.398956
v 4.174179 0.887253 22.398956
v 4.174179 -0.887245 22.398956
v 3.452426 -2.508330 22.398956
v 2.133717 -3.695702 22.398956
v 0.446069 -4.244051 22.398956
v -1.318709 -4.058567 22.398956
v -2.855470 -3.171317 22.398956
v -3.898494 -1.735718 22.398956
v -3.775918 0.000003 21.452108
v -3.449473 1.535807 21.452108
v -2.526582 2.806057 21.452108
v -1.166823 3.591115 21.452108
v 0.394691 3.755237 21.452108
v 1.887959 3.270045 21.452108
v 3.054782 2.219433 21.452108
v 3.693405 0.785061 21.452108
v 3.693405 -0.785054 21.452108
v 3.054782 -2.219425 21.452108
v 1.887959 -3.270037 21.452108
v 0.394691 -3.755229 21.452108
v -1.166822 -3.591108 21.452108
v -2.526582 -2.806051 21.452108
v -3.449472 -1.535801 21.452108
v -3.179028 0.000003 20.568998
v -2.904186 1.293030 20.568998
v -2.127185 2.362481 20.568998
v -0.982374 3.023438 20.568998
v 0.332299 3.161616 20.568998
v 1.589514 2.753122 20.568998
v 2.571887 1.868589 20.568998
v 3.109558 0.660961 20.568998
v 3.109558 -0.660953 20.568998
v 2.571887 -1.868582 20.568998
v 1.589514 -2.753115 20.568998
v 0.332299 -3.161609 20.568998
v -0.982373 -3.023432 20.568998
v -2.127184 -2.362475 20.568998
v -2.904186 -1.293024 20.568998
v -2.496231 0.000003 19.800032
v -2.280420 1.015311 19.800032
v -1.670304 1.855064 19.800032
v -0.771378 2.374059 19.800032
v 0.260927 2.482559 19.800032
v 1.248115 2.161803 19.800032
v 2.019493 1.467251 19.800032
v 2.441682 0.518999 19.800032
v 2.441682 -0.518992 19.800032
v 2.019493 -1.467244 19.800032
v 1.248116 -2.161796 19.800032
v 0.260927 -2.482553 19.800032
v -0.771378 -2.374053 19.800032
v -1.670304 -1.855058 19.800032
v -2.280420 -1.015306 19.800032
v -1.764599 0.000003 18.975519
v -1.612042 0.717730 18.975519
v -1.180748 1.311356 18.975519
v -0.545291 1.678237 18.975519
v 0.184451 1.754936 18.975519
v 0.882300 1.528191 18.975519
v 1.427591 1.037209 18.975519
v 1.726039 0.366884 18.975519
v 1.726039 -0.366878 18.975519
v 1.427591 -1.037202 18.975519
v 0.882300 -1.528185 18.975519
v 0.184451 -1.754930 18.975519
v -0.545291 -1.678231 18.975519
v -1.180747 -1.311350 18.975519
v -1.612042 -0.717724 18.975519
v -0.993690 0.000003 18.242901
v -0.907781 0.404173 18.242901
v -0.664909 0.738459 18.242901
v -0.307067 0.945059 18.242901
v 0.103869 0.988250 18.242901
v 0.496845 0.860564 18.242901
v 0.803912 0.584080 18.242901
v 0.971976 0.206603 18.242901
v 0.971976 -0.206597 18.242901
v 0.803912 -0.584073 18.242901
v 0.496845 -0.860558 18.242901
v 0.103869 -0.988244 18.242901
v -0.307067 -0.945053 18.242901
v -0.664909 -0.738453 18.242901
v -0.907781 -0.404167 18.242901
v -0.000000 0.000005 30.000000
v -0.000000 0.000003 17.900036
vn -0.0000 1.0000 -0.0000
vn -0.7071 0.7071 -0.0000
vn -1.0000 -0.0000 -0.0000
vn -0.7071 -0.7071 -0.0000
vn -0.0000 -1.0000 -0.0000
vn 0.7071 -0.7071 -0.0000
vn 1.0000 -0.0000 -0.0000
vn 0.7071 0.7071 -0.0000
vn -0.9090 0.4047 0.0997
vn -0.9950 -0.0000 0.0997
vn -0.8704 -0.3875 0.3036
vn -0.6375 -0.7081 0.3036
vn -0.2944 -0.9062 0.3036
vn 0.0996 -0.9476 0.3036
vn 0.4764 -0.8251 0.3036
vn 0.7708 -0.5600 0.3036
vn 0.9320 -0.1981 0.3036
vn 0.9320 0.1981 0.3036
vn 0.7708 0.5600 0.3036
vn 0.4764 0.8251 0.3036
vn 0.0996 0.9476 0.3036
vn -0.2944 0.9062 0.3036
vn -0.6375 0.7081 0.3036
vn -0.8704 0.3875 0.3036
vn -0.9528 -0.0000 0.3036
vn -0.7953 -0.3541 0.4921
vn -0.5825 -0.6470 0.4921
vn -0.2690 -0.8279 0.4921
vn 0.0910 -0.8658 0.4921
vn 0.4353 -0.7539 0.4921
vn 0.7043 -0.5117 0.4921
vn 0.8515 -0.1810 0.4921
vn 0.8515 0.1810 0.4921
vn 0.7043 0.5117 0.4921
vn 0.4353 0.7539 0.4921
vn 0.0910 0.8658 0.4921
vn -0.2690 0.8279 0.4921
vn -0.5825 0.6470 0.4921
vn -0.7953 0.3541 0.4921
vn -0.8706 -0.0000 0.4921
vn -0.6861 -0.3055 0.6603
vn -0.5025 -0.5581 0.6603
vn -0.2321 -0.7143 0.6603
vn 0.0785 -0.7469 0.6603
vn 0.3755 -0.6504 0.6603
vn 0.6076 -0.4414 0.6603
vn 0.7346 -0.1561 0.6603
vn 0.7346 0.1561 0.6603
vn 0.6076 0.4414 0.6603
vn 0.3755 0.6504 0.6603
vn 0.0785 0.7469 0.6603
vn -0.2321 0.7143 0.6603
vn -0.5025 0.5581 0.6603
vn -0.6861 0.3055 0.6603
vn -0.7510 -0.0000 0.6603
vn -0.5466 -0.2434 0.8012
vn -0.4004 -0.4447 0.8012
vn -0.1849 -0.5691 0.8012
vn 0.0625 -0.5951 0.8012
vn 0.2992 -0.5182 0.8012
vn 0.4841 -0.3517 0.8012
vn 0.5853 -0.1244 0.8012
vn 0.5853 0.1244 0.8012
vn 0.4841 0.3517 0.8012
vn 0.2992 0.5182 0.8012
vn 0.0625 0.5951 0.8012
vn -0.1849 0.5691 0.8012
vn -0.4004 0.4447 0.8012
vn -0.5466 0.2434 0.8012
vn -0.5984 -0.0000 0.8012
vn -0.3805 -0.1694 0.9091
vn -0.2787 -0.3095 0.9091
vn -0.1287 -0.3961 0.9091
vn 0.0435 -0.4142 0.9091
vn 0.2082 -0.3607 0.9091
vn 0.3369 -0.2448 0.9091
vn 0.4074 -0.0866 0.9091
vn 0.4074 0.0866 0.9091
vn 0.3369 0.2448 0.9091
vn 0.2082 0.3607 0.9091
vn 0.0435 0.4142 0.9091
vn -0.1287 0.3961 0.9091
vn -0.2787 0.3095 0.9091
vn -0.3805 0.1694 0.9091
vn -0.4165 -0.0000 0.9091
vn -0.2018 -0.0899 0.9753
vn -0.1478 -0.1642 0.9753
vn -0.0683 -0.2101 0.9753
vn 0.0231 -0.2197 0.9753
vn 0.1105 -0.1913 0.9753
vn 0.1787 -0.1299 0.9753
vn 0.2161 -0.0459 0.9753
vn 0.2161 0.0459 0.9753
vn 0.1787 0.1299 0.9753
vn 0.1105 0.1913 0.9753
vn 0.0231 0.2197 0.9753
vn -0.0683 0.2101 0.9753
vn -0.1478 0.1642 0.9753
vn -0.2018 0.0899 0.9753
vn -0.2209 -0.0000 0.9753
vn -0.6658 0.7394 0.0997
vn -0.3075 0.9463 0.0997
vn 0.1040 0.9896 0.0997
vn 0.4975 0.8617 0.0997
vn 0.8050 0.5849 0.0997
vn 0.9733 0.2069 0.0997
vn 0.9733 -0.2069 0.0997
vn 0.8050 -0.5849 0.0997
vn 0.4975 -0.8617 0.0997
vn 0.1040 -0.9896 0.0997
vn -0.3075 -0.9463 0.0997
vn -0.6658 -0.7394 0.0997
vn -0.9090 -0.4047 0.0997
vn -0.9900 -0.0000 -0.1409
vn -0.9044 0.4027 -0.1409
vn -0.6625 0.7357 -0.1409
vn -0.3059 0.9416 -0.1409
vn 0.1035 0.9846 -0.1409
vn 0.4950 0.8574 -0.1409
vn 0.8009 0.5819 -0.1409
vn 0.9684 0.2058 -0.1409
vn 0.9684 -0.2058 -0.1409
vn 0.8009 -0.5819 -0.1409
vn 0.4950 -0.8574 -0.1409
vn 0.1035 -0.9846 -0.1409
vn -0.3059 -0.9416 -0.1409
vn -0.6625 -0.7357 -0.1409
vn -0.9044 -0.4027 -0.1409
vn -0.9305 -0.0000 -0.3662
vn -0.8501 0.3785 -0.3662
vn -0.6227 0.6915 -0.3662
vn -0.2876 0.8850 -0.3662
vn 0.0973 0.9254 -0.3662
vn 0.4653 0.8059 -0.3662
vn 0.7528 0.5470 -0.3662
vn 0.9102 0.1935 -0.3662
vn 0.9102 -0.1935 -0.3662
vn 0.7528 -0.5470 -0.3662
vn 0.4653 -0.8059 -0.3662
vn 0.0973 -0.9254 -0.3662
vn -0.2876 -0.8850 -0.3662
vn -0.6227 -0.6915 -0.3662
vn -0.8501 -0.3785 -0.3662
vn -0.8877 -0.0000 -0.4604
vn -0.8109 0.3611 -0.4604
vn -0.5940 0.6597 -0.4604
vn -0.2743 0.8442 -0.4604
vn 0.0928 0.8828 -0.4604
vn 0.4438 0.7688 -0.4604
vn 0.7182 0.5218 -0.4604
vn 0.8683 0.1846 -0.4604
vn 0.8683 -0.1846 -0.4604
vn 0.7182 -0.5218 -0.4604
vn 0.4438 -0.7688 -0.4604
vn 0.0928 -0.8828 -0.4604
vn -0.2743 -0.8442 -0.4604
vn -0.5940 -0.6597 -0.4604
vn -0.8109 -0.3611 -0.4604
vn -0.8614 -0.0000 -0.5079
vn -0.7870 0.3504 -0.5079
vn -0.5764 0.6402 -0.5079
vn -0.2662 0.8193 -0.5079
vn 0.0900 0.8567 -0.5079
vn 0.4307 0.7460 -0.5079
vn 0.6969 0.5063 -0.5079
vn 0.8426 0.1791 -0.5079
vn 0.8426 -0.1791 -0.5079
vn 0.6969 -0.5063 -0.5079
vn 0.4307 -0.7460 -0.5079
vn 0.0900 -0.8567 -0.5079
vn -0.2662 -0.8193 -0.5079
vn -0.5764 -0.6402 -0.5079
vn -0.7870 -0.3504 -0.5079
vn -0.7931 -0.0000 -0.6091
vn -0.7245 0.3226 -0.6091
vn -0.5307 0.5894 -0.6091
vn -0.2451 0.7543 -0.6091
vn 0.0829 0.7887 -0.6091
vn 0.3965 0.6868 -0.6091
vn 0.6416 0.4662 -0.6091
vn 0.7758 0.1649 -0.6091
vn 0.7758 -0.1649 -0.6091
vn 0.6416 -0.4662 -0.6091
vn 0.3965 -0.6868 -0.6091
vn 0.0829 -0.7887 -0.6091
vn -0.2451 -0.7543 -0.6091
vn -0.5307 -0.5894 -0.6091
vn -0.7245 -0.3226 -0.6091
vn -0.7479 -0.0000 -0.6639
vn -0.6832 0.3042 -0.6639
vn -0.5004 0.5558 -0.6639
vn -0.2311 0.7113 -0.6639
vn 0.0782 0.7438 -0.6639
vn 0.3739 0.6477 -0.6639
vn 0.6050 0.4396 -0.6639
vn 0.7315 0.1555 -0.6639
vn 0.7315 -0.1555 -0.6639
vn 0.6050 -0.4396 -0.6639
vn 0.3739 -0.6477 -0.6639
vn 0.0782 -0.7438 -0.6639
vn -0.2311 -0.7113 -0.6639
vn -0.5004 -0.5558 -0.6639
vn -0.6832 -0.3042 -0.6639
vn -0.7218 -0.0000 -0.6921
vn -0.6594 0.2936 -0.6921
vn -0.4830 0.5364 -0.6921
vn -0.2230 0.6865 -0.6921
vn 0.0754 0.7178 -0.6921
vn 0.3609 0.6251 -0.6921
vn 0.5839 0.4243 -0.6921
vn 0.7060 0.1501 -0.6921
vn 0.7060 -0.1501 -0.6921
vn 0.5839 -0.4243 -0.6921
vn 0.3609 -0.6251 -0.6921
vn 0.0755 -0.7178 -0.6921
vn -0.2230 -0.6865 -0.6921
vn -0.4830 -0.5364 -0.6921
vn -0.6594 -0.2936 -0.6921
vn -0.5394 -0.0000 -0.8421
vn -0.4928 0.2194 -0.8421
vn -0.3609 0.4008 -0.8421
vn -0.1667 0.5130 -0.8421
vn 0.0564 0.5364 -0.8421
vn 0.2697 0.4671 -0.8421
vn 0.4364 0.3170 -0.8421
vn 0.5276 0.1121 -0.8421
vn 0.5276 -0.1121 -0.8421
vn 0.4364 -0.3170 -0.8421
vn 0.2697 -0.4671 -0.8421
vn 0.0564 -0.5364 -0.8421
vn -0.1667 -0.5130 -0.8421
vn -0.3609 -0.4008 -0.8421
vn -0.4928 -0.2194 -0.8421
vn -0.0000 -0.0000 1.0000
vn -0.0000 -0.0000 -1.0000
vt 0.444092 0.503906
vt 0.425108 0.503906
vt 0.425108 0.653320
vt 0.444092 0.653320
vt 0.406162 0.653320
vt 0.406162 0.503906
vt 0.387267 0.503906
vt 0.387267 0.653320
vt 0.368408 0.503906
vt 0.368408 0.653320
vt 0.349549 0.503906
vt 0.349549 0.653320
vt 0.330654 0.503906
vt 0.330654 0.653320
vt 0.482022 0.503906
vt 0.463075 0.503906
vt 0.463075 0.653320
vt 0.482022 0.653320
vt 0.314518 0.773888
vt 0.336914 0.773888
vt 0.336914 0.761050
vt 0.292122 0.773888
vt 0.314518 0.761050
vt 0.292122 0.761050
vt 0.269727 0.773888
vt 0.269727 0.761050
vt 0.247331 0.773888
vt 0.247331 0.761050
vt 0.224935 0.773888
vt 0.224935 0.761050
vt 0.202539 0.773888
vt 0.202539 0.761050
vt 0.180143 0.773888
vt 0.180143 0.761050
vt 0.157747 0.773888
vt 0.157747 0.761050
vt 0.135352 0.773888
vt 0.112956 0.773888
vt 0.135352 0.761050
vt 0.112956 0.761050
vt 0.090560 0.773888
vt 0.090560 0.761050
vt 0.068164 0.773888
vt 0.068164 0.761050
vt 0.045768 0.773888
vt 0.045768 0.761050
vt 0.023372 0.773888
vt 0.023372 0.761050
vt 0.000977 0.773888
vt 0.000977 0.761050
vt 0.314518 0.781625
vt 0.336914 0.781625
vt 0.292122 0.781625
vt 0.269727 0.781625
vt 0.247331 0.781625
vt 0.224935 0.781625
vt 0.202539 0.781625
vt 0.180143 0.781625
vt 0.157747 0.781625
vt 0.112956 0.781625
vt 0.135352 0.781625
vt 0.090560 0.781625
vt 0.068164 0.781625
vt 0.045768 0.781625
vt 0.023372 0.781625
vt 0.000977 0.781625
vt 0.314518 0.789363
vt 0.336914 0.789363
vt 0.292122 0.789363
vt 0.269727 0.789363
vt 0.247331 0.789363
vt 0.224935 0.789363
vt 0.202539 0.789363
vt 0.180143 0.789363
vt 0.157747 0.789363
vt 0.112956 0.789363
vt 0.135352 0.789363
vt 0.090560 0.789363
vt 0.068164 0.789363
vt 0.045768 0.789363
vt 0.023372 0.789363
vt 0.000977 0.789363
vt 0.314518 0.797100
vt 0.336914 0.797100
vt 0.292122 0.797100
vt 0.269727 0.797100
vt 0.247331 0.797100
vt 0.224935 0.797100
vt 0.202539 0.797100
vt 0.180143 0.797100
vt 0.157747 0.797100
vt 0.112956 0.797100
vt 0.135352 0.797100
vt 0.090560 0.797100
vt 0.068164 0.797100
vt 0.045768 0.797100
vt 0.023372 0.797100
vt 0.000977 0.797100
vt 0.314518 0.804838
vt 0.336914 0.804838
vt 0.292122 0.804838
vt 0.269727 0.804838
vt 0.247331 0.804838
vt 0.224935 0.804838
vt 0.202539 0.804838
vt 0.180143 0.804838
vt 0.157747 0.804838
vt 0.112956 0.804838
vt 0.135352 0.804838
vt 0.090560 0.804838
vt 0.068164 0.804838
vt 0.045768 0.804838
vt 0.023372 0.804838
vt 0.000977 0.804838
vt 0.314518 0.812575
vt 0.336914 0.812575
vt 0.292122 0.812575
vt 0.269727 0.812575
vt 0.247331 0.812575
vt 0.224935 0.812575
vt 0.202539 0.812575
vt 0.180143 0.812575
vt 0.157747 0.812575
vt 0.135352 0.812575
vt 0.112956 0.812575
vt 0.090560 0.812575
vt 0.068164 0.812575
vt 0.045768 0.812575
vt 0.023372 0.812575
vt 0.000977 0.812575
vt 0.023372 0.747897
vt 0.000977 0.747897
vt 0.045768 0.747897
vt 0.068164 0.747897
vt 0.090560 0.747897
vt 0.112956 0.747897
vt 0.135352 0.747897
vt 0.157747 0.747897
vt 0.180143 0.747897
vt 0.202539 0.747897
vt 0.224935 0.747897
vt 0.247331 0.747897
vt 0.269727 0.747897
vt 0.292122 0.747897
vt 0.314518 0.747897
vt 0.336914 0.747897
vt 0.023372 0.734744
vt 0.000977 0.734744
vt 0.045768 0.734744
vt 0.068164 0.734744
vt 0.090560 0.734744
vt 0.112956 0.734744
vt 0.135352 0.734744
vt 0.157747 0.734744
vt 0.180143 0.734744
vt 0.202539 0.734744
vt 0.224935 0.734744
vt 0.247331 0.734744
vt 0.269727 0.734744
vt 0.292122 0.734744
vt 0.314518 0.734744
vt 0.336914 0.734744
vt 0.023372 0.721591
vt 0.000977 0.721591
vt 0.045768 0.721591
vt 0.068164 0.721591
vt 0.090560 0.721591
vt 0.112956 0.721591
vt 0.135352 0.721591
vt 0.157747 0.721591
vt 0.180143 0.721591
vt 0.202539 0.721591
vt 0.224935 0.721591
vt 0.247331 0.721591
vt 0.269727 0.721591
vt 0.292122 0.721591
vt 0.314518 0.721591
vt 0.336914 0.721591
vt 0.023372 0.708878
vt 0.000977 0.708878
vt 0.045768 0.708878
vt 0.068164 0.708878
vt 0.090560 0.708878
vt 0.112956 0.708878
vt 0.135352 0.708878
vt 0.157747 0.708878
vt 0.180143 0.708878
vt 0.202539 0.708878
vt 0.224935 0.708878
vt 0.247331 0.708878
vt 0.269727 0.708878
vt 0.292122 0.708878
vt 0.314518 0.708878
vt 0.336914 0.708878
vt 0.023372 0.699524
vt 0.000977 0.699524
vt 0.045768 0.699524
vt 0.068164 0.699524
vt 0.090560 0.699524
vt 0.112956 0.699524
vt 0.135352 0.699524
vt 0.157747 0.699524
vt 0.180143 0.699524
vt 0.202539 0.699524
vt 0.224935 0.699524
vt 0.247331 0.699524
vt 0.269727 0.699524
vt 0.292122 0.699524
vt 0.314518 0.699524
vt 0.336914 0.699524
vt 0.023372 0.690170
vt 0.000977 0.690170
vt 0.045768 0.690170
vt 0.068164 0.690170
vt 0.090560 0.690170
vt 0.112956 0.690170
vt 0.135352 0.690170
vt 0.157747 0.690170
vt 0.180143 0.690170
vt 0.202539 0.690170
vt 0.224935 0.690170
vt 0.247331 0.690170
vt 0.269727 0.690170
vt 0.292122 0.690170
vt 0.314518 0.690170
vt 0.336914 0.690170
vt 0.023372 0.680817
vt 0.000977 0.680817
vt 0.045768 0.680817
vt 0.068164 0.680817
vt 0.090560 0.680817
vt 0.112956 0.680817
vt 0.135352 0.680817
vt 0.157747 0.680817
vt 0.180143 0.680817
vt 0.202539 0.680817
vt 0.224935 0.680817
vt 0.247331 0.680817
vt 0.269727 0.680817
vt 0.292122 0.680817
vt 0.314518 0.680817
vt 0.336914 0.680817
vt 0.023372 0.671463
vt 0.000977 0.671463
vt 0.045768 0.671463
vt 0.068164 0.671463
vt 0.090560 0.671463
vt 0.112956 0.671463
vt 0.135352 0.671463
vt 0.157747 0.671463
vt 0.180143 0.671463
vt 0.202539 0.671463
vt 0.224935 0.671463
vt 0.247331 0.671463
vt 0.269727 0.671463
vt 0.292122 0.671463
vt 0.314518 0.671463
vt 0.336914 0.671463
vt 0.012174 0.820312
vt 0.012174 0.662109
vt 0.034570 0.820312
vt 0.034570 0.662109
vt 0.056966 0.820312
vt 0.056966 0.662109
vt 0.079362 0.820312
vt 0.079362 0.662109
vt 0.101758 0.820312
vt 0.101758 0.662109
vt 0.124154 0.820312
vt 0.124154 0.662109
vt 0.146549 0.820312
vt 0.146549 0.662109
vt 0.168945 0.820312
vt 0.168945 0.662109
vt 0.191341 0.820312
vt 0.191341 0.662109
vt 0.213737 0.820312
vt 0.213737 0.662109
vt 0.236133 0.820312
vt 0.236133 0.662109
vt 0.258529 0.820312
vt 0.258529 0.662109
vt 0.280924 0.820312
vt 0.280924 0.662109
vt 0.303320 0.820312
vt 0.303320 0.662109
vt 0.325716 0.820312
vt 0.325716 0.662109
s 1
usemtl condor_transmitter
f 1/1/1 2/2/2 3/3/2
f 3/3/2 4/4/1 1/1/1
f 2/2/2 5/5/3 3/3/2
f 2/2/2 6/6/3 5/5/3
f 6/6/3 7/7/4 8/8/4
f 8/8/4 5/5/3 6/6/3
f 7/7/4 9/9/5 10/10/5
f 10/10/5 8/8/4 7/7/4
f 9/9/5 11/11/6 12/12/6
f 12/12/6 10/10/5 9/9/5
f 11/11/6 13/13/7 14/14/7
f 14/14/7 12/12/6 11/11/6
f 13/15/7 15/16/8 16/17/8
f 16/17/8 14/18/7 13/15/7
f 15/16/8 1/1/1 4/4/1
f 4/4/1 16/17/8 15/16/8
f 19/19/11 33/20/25 18/21/10
f 20/22/12 121/23/113 120/24/112
f 20/22/12 19/19/11 121/23/113
f 21/25/13 120/24/112 119/26/111
f 21/25/13 20/22/12 120/24/112
f 22/27/14 119/26/111 118/28/110
f 22/27/14 21/25/13 119/26/111
f 23/29/15 118/28/110 117/30/109
f 23/29/15 22/27/14 118/28/110
f 24/31/16 117/30/109 116/32/108
f 24/31/16 23/29/15 117/30/109
f 25/33/17 116/32/108 115/34/107
f 25/33/17 24/31/16 116/32/108
f 26/35/18 115/34/107 114/36/106
f 19/19/11 18/21/10 121/23/113
f 26/35/18 25/33/17 115/34/107
f 27/37/19 26/35/18 114/36/106
f 28/38/20 113/39/105 112/40/104
f 28/38/20 27/37/19 113/39/105
f 29/41/21 112/40/104 111/42/103
f 29/41/21 28/38/20 112/40/104
f 30/43/22 29/41/21 111/42/103
f 30/43/22 111/42/103 110/44/102
f 31/45/23 110/44/102 109/46/101
f 31/45/23 30/43/22 110/44/102
f 32/47/24 109/46/101 17/48/9
f 32/47/24 31/45/23 109/46/101
f 33/49/25 17/48/9 18/50/10
f 33/49/25 32/47/24 17/48/9
f 34/51/26 48/52/40 33/20/25
f 34/51/26 33/20/25 19/19/11
f 35/53/27 19/19/11 20/22/12
f 35/53/27 34/51/26 19/19/11
f 36/54/28 20/22/12 21/25/13
f 36/54/28 35/53/27 20/22/12
f 37/55/29 21/25/13 22/27/14
f 37/55/29 36/54/28 21/25/13
f 38/56/30 37/55/29 22/27/14
f 38/56/30 22/27/14 23/29/15
f 39/57/31 23/29/15 24/31/16
f 39/57/31 38/56/30 23/29/15
f 40/58/32 24/31/16 25/33/17
f 40/58/32 39/57/31 24/31/16
f 41/59/33 25/33/17 26/35/18
f 27/37/19 114/36/106 113/39/105
f 41/59/33 40/58/32 25/33/17
f 43/60/35 27/37/19 28/38/20
f 42/61/34 26/35/18 27/37/19
f 42/61/34 41/59/33 26/35/18
f 44/62/36 28/38/20 29/41/21
f 44/62/36 43/60/35 28/38/20
f 45/63/37 29/41/21 30/43/22
f 45/63/37 44/62/36 29/41/21
f 46/64/38 30/43/22 31/45/23
f 46/64/38 45/63/37 30/43/22
f 47/65/39 31/45/23 32/47/24
f 47/65/39 46/64/38 31/45/23
f 48/66/40 32/47/24 33/49/25
f 48/66/40 47/65/39 32/47/24
f 49/67/41 48/52/40 34/51/26
f 49/67/41 63/68/55 48/52/40
f 50/69/42 34/51/26 35/53/27
f 50/69/42 49/67/41 34/51/26
f 51/70/43 35/53/27 36/54/28
f 51/70/43 50/69/42 35/53/27
f 52/71/44 36/54/28 37/55/29
f 52/71/44 51/70/43 36/54/28
f 53/72/45 37/55/29 38/56/30
f 53/72/45 52/71/44 37/55/29
f 54/73/46 38/56/30 39/57/31
f 54/73/46 53/72/45 38/56/30
f 55/74/47 39/57/31 40/58/32
f 55/74/47 54/73/46 39/57/31
f 56/75/48 40/58/32 41/59/33
f 43/60/35 42/61/34 27/37/19
f 56/75/48 55/74/47 40/58/32
f 58/76/50 42/61/34 43/60/35
f 57/77/49 41/59/33 42/61/34
f 57/77/49 56/75/48 41/59/33
f 59/78/51 43/60/35 44/62/36
f 59/78/51 58/76/50 43/60/35
f 60/79/52 44/62/36 45/63/37
f 60/79/52 59/78/51 44/62/36
f 61/80/53 45/63/37 46/64/38
f 61/80/53 60/79/52 45/63/37
f 62/81/54 46/64/38 47/65/39
f 62/81/54 61/80/53 46/64/38
f 63/82/55 47/65/39 48/66/40
f 63/82/55 62/81/54 47/65/39
f 64/83/56 63/68/55 49/67/41
f 64/83/56 78/84/70 63/68/55
f 65/85/57 49/67/41 50/69/42
f 65/85/57 64/83/56 49/67/41
f 66/86/58 50/69/42 51/70/43
f 66/86/58 65/85/57 50/69/42
f 67/87/59 51/70/43 52/71/44
f 67/87/59 66/86/58 51/70/43
f 68/88/60 67/87/59 52/71/44
f 68/88/60 52/71/44 53/72/45
f 69/89/61 53/72/45 54/73/46
f 69/89/61 68/88/60 53/72/45
f 70/90/62 54/73/46 55/74/47
f 70/90/62 69/89/61 54/73/46
f 71/91/63 55/74/47 56/75/48
f 58/76/50 57/77/49 42/61/34
f 71/91/63 70/90/62 55/74/47
f 73/92/65 72/93/64 57/77/49
f 72/93/64 56/75/48 57/77/49
f 72/93/64 71/91/63 56/75/48
f 74/94/66 58/76/50 59/78/51
f 74/94/66 73/92/65 58/76/50
f 75/95/67 59/78/51 60/79/52
f 75/95/67 74/94/66 59/78/51
f 76/96/68 60/79/52 61/80/53
f 76/96/68 75/95/67 60/79/52
f 77/97/69 61/80/53 62/81/54
f 77/97/69 76/96/68 61/80/53
f 78/98/70 62/81/54 63/82/55
f 78/98/70 77/97/69 62/81/54
f 79/99/71 78/84/70 64/83/56
f 79/99/71 93/100/85 78/84/70
f 80/101/72 64/83/56 65/85/57
f 80/101/72 79/99/71 64/83/56
f 81/102/73 65/85/57 66/86/58
f 81/102/73 80/101/72 65/85/57
f 82/103/74 66/86/58 67/87/59
f 82/103/74 81/102/73 66/86/58
f 83/104/75 67/87/59 68/88/60
f 83/104/75 82/103/74 67/87/59
f 84/105/76 68/88/60 69/89/61
f 84/105/76 83/104/75 68/88/60
f 85/106/77 69/89/61 70/90/62
f 85/106/77 84/105/76 69/89/61
f 86/107/78 70/90/62 71/91/63
f 73/92/65 57/77/49 58/76/50
f 86/107/78 85/106/77 70/90/62
f 88/108/80 72/93/64 73/92/65
f 87/109/79 71/91/63 72/93/64
f 87/109/79 86/107/78 71/91/63
f 89/110/81 73/92/65 74/94/66
f 89/110/81 88/108/80 73/92/65
f 90/111/82 74/94/66 75/95/67
f 90/111/82 89/110/81 74/94/66
f 91/112/83 75/95/67 76/96/68
f 91/112/83 90/111/82 75/95/67
f 92/113/84 76/96/68 77/97/69
f 92/113/84 91/112/83 76/96/68
f 93/114/85 77/97/69 78/98/70
f 93/114/85 92/113/84 77/97/69
f 94/115/86 93/100/85 79/99/71
f 94/115/86 108/116/100 93/100/85
f 95/117/87 79/99/71 80/101/72
f 95/117/87 94/115/86 79/99/71
f 96/118/88 80/101/72 81/102/73
f 96/118/88 95/117/87 80/101/72
f 97/119/89 81/102/73 82/103/74
f 97/119/89 96/118/88 81/102/73
f 98/120/90 82/103/74 83/104/75
f 98/120/90 97/119/89 82/103/74
f 99/121/91 83/104/75 84/105/76
f 99/121/91 98/120/90 83/104/75
f 100/122/92 84/105/76 85/106/77
f 100/122/92 99/121/91 84/105/76
f 101/123/93 85/106/77 86/107/78
f 88/108/80 87/109/79 72/93/64
f 101/123/93 100/122/92 85/106/77
f 102/124/94 86/107/78 87/109/79
f 103/125/95 87/109/79 88/108/80
f 103/125/95 102/124/94 87/109/79
f 104/126/96 88/108/80 89/110/81
f 104/126/96 103/125/95 88/108/80
f 105/127/97 89/110/81 90/111/82
f 105/127/97 104/126/96 89/110/81
f 106/128/98 90/111/82 91/112/83
f 106/128/98 105/127/97 90/111/82
f 107/129/99 91/112/83 92/113/84
f 107/129/99 106/128/98 91/112/83
f 108/130/100 92/113/84 93/114/85
f 108/130/100 107/129/99 92/113/84
f 102/124/94 101/123/93 86/107/78
f 18/50/10 17/48/9 123/131/115
f 18/50/10 123/131/115 122/132/114
f 17/48/9 109/46/101 124/133/116
f 17/48/9 124/133/116 123/131/115
f 109/46/101 110/44/102 125/134/117
f 109/46/101 125/134/117 124/133/116
f 110/44/102 111/42/103 126/135/118
f 110/44/102 126/135/118 125/134/117
f 111/42/103 112/40/104 127/136/119
f 111/42/103 127/136/119 126/135/118
f 112/40/104 113/39/105 128/137/120
f 112/40/104 128/137/120 127/136/119
f 113/39/105 114/36/106 129/138/121
f 113/39/105 129/138/121 128/137/120
f 114/36/106 115/34/107 130/139/122
f 114/36/106 130/139/122 129/138/121
f 115/34/107 116/32/108 131/140/123
f 115/34/107 131/140/123 130/139/122
f 116/32/108 117/30/109 132/141/124
f 116/32/108 132/141/124 131/140/123
f 117/30/109 118/28/110 133/142/125
f 117/30/109 133/142/125 132/141/124
f 118/28/110 119/26/111 134/143/126
f 118/28/110 134/143/126 133/142/125
f 119/26/111 120/24/112 135/144/127
f 119/26/111 135/144/127 134/143/126
f 120/24/112 121/23/113 136/145/128
f 120/24/112 136/145/128 135/144/127
f 121/23/113 18/21/10 122/146/114
f 121/23/113 122/146/114 136/145/128
f 122/132/114 123/131/115 138/147/130
f 122/132/114 138/147/130 137/148/129
f 123/131/115 124/133/116 139/149/131
f 123/131/115 139/149/131 138/147/130
f 124/133/116 125/134/117 140/150/132
f 124/133/116 140/150/132 139/149/131
f 125/134/117 126/135/118 141/151/133
f 125/134/117 141/151/133 140/150/132
f 126/135/118 127/136/119 142/152/134
f 126/135/118 142/152/134 141/151/133
f 127/136/119 128/137/120 143/153/135
f 127/136/119 143/153/135 142/152/134
f 128/137/120 129/138/121 144/154/136
f 128/137/120 144/154/136 143/153/135
f 129/138/121 130/139/122 145/155/137
f 129/138/121 145/155/137 144/154/136
f 130/139/122 131/140/123 146/156/138
f 130/139/122 146/156/138 145/155/137
f 131/140/123 132/141/124 147/157/139
f 131/140/123 147/157/139 146/156/138
f 132/141/124 133/142/125 148/158/140
f 132/141/124 148/158/140 147/157/139
f 133/142/125 134/143/126 149/159/141
f 133/142/125 149/159/141 148/158/140
f 134/143/126 135/144/127 150/160/142
f 134/143/126 150/160/142 149/159/141
f 135/144/127 136/145/128 151/161/143
f 135/144/127 151/161/143 150/160/142
f 136/145/128 122/146/114 137/162/129
f 136/145/128 137/162/129 151/161/143
f 137/148/129 138/147/130 153/163/145
f 137/148/129 153/163/145 152/164/144
f 138/147/130 139/149/131 154/165/146
f 138/147/130 154/165/146 153/163/145
f 139/149/131 140/150/132 155/166/147
f 139/149/131 155/166/147 154/165/146
f 140/150/132 141/151/133 156/167/148
f 140/150/132 156/167/148 155/166/147
f 141/151/133 142/152/134 157/168/149
f 141/151/133 157/168/149 156/167/148
f 142/152/134 143/153/135 158/169/150
f 142/152/134 158/169/150 157/168/149
f 143/153/135 144/154/136 159/170/151
f 143/153/135 159/170/151 158/169/150
f 144/154/136 145/155/137 160/171/152
f 144/154/136 160/171/152 159/170/151
f 145/155/137 146/156/138 161/172/153
f 145/155/137 161/172/153 160/171/152
f 146/156/138 147/157/139 162/173/154
f 146/156/138 162/173/154 161/172/153
f 147/157/139 148/158/140 163/174/155
f 147/157/139 163/174/155 162/173/154
f 148/158/140 149/159/141 164/175/156
f 148/158/140 164/175/156 163/174/155
f 149/159/141 150/160/142 165/176/157
f 149/159/141 165/176/157 164/175/156
f 150/160/142 151/161/143 166/177/158
f 150/160/142 166/177/158 165/176/157
f 151/161/143 137/162/129 152/178/144
f 151/161/143 152/178/144 166/177/158
f 152/164/144 153/163/145 168/179/160
f 152/164/144 168/179/160 167/180/159
f 153/163/145 154/165/146 169/181/161
f 153/163/145 169/181/161 168/179/160
f 154/165/146 155/166/147 170/182/162
f 154/165/146 170/182/162 169/181/161
f 155/166/147 156/167/148 171/183/163
f 155/166/147 171/183/163 170/182/162
f 156/167/148 157/168/149 172/184/164
f 156/167/148 172/184/164 171/183/163
f 157/168/149 158/169/150 173/185/165
f 157/168/149 173/185/165 172/184/164
f 158/169/150 159/170/151 174/186/166
f 158/169/150 174/186/166 173/185/165
f 159/170/151 160/171/152 175/187/167
f 159/170/151 175/187/167 174/186/166
f 160/171/152 161/172/153 176/188/168
f 160/171/152 176/188/168 175/187/167
f 161/172/153 162/173/154 177/189/169
f 161/172/153 177/189/169 176/188/168
f 162/173/154 163/174/155 178/190/170
f 162/173/154 178/190/170 177/189/169
f 163/174/155 164/175/156 179/191/171
f 163/174/155 179/191/171 178/190/170
f 164/175/156 165/176/157 180/192/172
f 164/175/156 180/192/172 179/191/171
f 165/176/157 166/177/158 181/193/173
f 165/176/157 181/193/173 180/192/172
f 166/177/158 152/178/144 167/194/159
f 166/177/158 167/194/159 181/193/173
f 167/180/159 168/179/160 183/195/175
f 167/180/159 183/195/175 182/196/174
f 168/179/160 169/181/161 184/197/176
f 168/179/160 184/197/176 183/195/175
f 169/181/161 170/182/162 185/198/177
f 169/181/161 185/198/177 184/197/176
f 170/182/162 171/183/163 186/199/178
f 170/182/162 186/199/178 185/198/177
f 171/183/163 172/184/164 187/200/179
f 171/183/163 187/200/179 186/199/178
f 172/184/164 173/185/165 188/201/180
f 172/184/164 188/201/180 187/200/179
f 173/185/165 174/186/166 189/202/181
f 173/185/165 189/202/181 188/201/180
f 174/186/166 175/187/167 190/203/182
f 174/186/166 190/203/182 189/202/181
f 175/187/167 176/188/168 191/204/183
f 175/187/167 191/204/183 190/203/182
f 176/188/168 177/189/169 192/205/184
f 176/188/168 192/205/184 191/204/183
f 177/189/169 178/190/170 193/206/185
f 177/189/169 193/206/185 192/205/184
f 178/190/170 179/191/171 194/207/186
f 178/190/170 194/207/186 193/206/185
f 179/191/171 180/192/172 195/208/187
f 179/191/171 195/208/187 194/207/186
f 180/192/172 181/193/173 196/209/188
f 180/192/172 196/209/188 195/208/187
f 181/193/173 167/194/159 182/210/174
f 181/193/173 182/210/174 196/209/188
f 182/196/174 183/195/175 198/211/190
f 182/196/174 198/211/190 197/212/189
f 183/195/175 184/197/176 199/213/191
f 183/195/175 199/213/191 198/211/190
f 184/197/176 185/198/177 200/214/192
f 184/197/176 200/214/192 199/213/191
f 185/198/177 186/199/178 201/215/193
f 185/198/177 201/215/193 200/214/192
f 186/199/178 187/200/179 202/216/194
f 186/199/178 202/216/194 201/215/193
f 187/200/179 188/201/180 203/217/195
f 187/200/179 203/217/195 202/216/194
f 188/201/180 189/202/181 204/218/196
f 188/201/180 204/218/196 203/217/195
f 189/202/181 190/203/182 205/219/197
f 189/202/181 205/219/197 204/218/196
f 190/203/182 191/204/183 206/220/198
f 190/203/182 206/220/198 205/219/197
f 191/204/183 192/205/184 207/221/199
f 191/204/183 207/221/199 206/220/198
f 192/205/184 193/206/185 208/222/200
f 192/205/184 208/222/200 207/221/199
f 193/206/185 194/207/186 209/223/201
f 193/206/185 209/223/201 208/222/200
f 194/207/186 195/208/187 210/224/202
f 194/207/186 210/224/202 209/223/201
f 195/208/187 196/209/188 211/225/203
f 195/208/187 211/225/203 210/224/202
f 196/209/188 182/210/174 197/226/189
f 196/209/188 197/226/189 211/225/203
f 197/212/189 198/211/190 213/227/205
f 197/212/189 213/227/205 212/228/204
f 198/211/190 199/213/191 214/229/206
f 198/211/190 214/229/206 213/227/205
f 199/213/191 200/214/192 215/230/207
f 199/213/191 215/230/207 214/229/206
f 200/214/192 201/215/193 216/231/208
f 200/214/192 216/231/208 215/230/207
f 201/215/193 202/216/194 217/232/209
f 201/215/193 217/232/209 216/231/208
f 202/216/194 203/217/195 218/233/210
f 202/216/194 218/233/210 217/232/209
f 203/217/195 204/218/196 219/234/211
f 203/217/195 219/234/211 218/233/210
f 204/218/196 205/219/197 220/235/212
f 204/218/196 220/235/212 219/234/211
f 205/219/197 206/220/198 221/236/213
f 205/219/197 221/236/213 220/235/212
f 206/220/198 207/221/199 222/237/214
f 206/220/198 222/237/214 221/236/213
f 207/221/199 208/222/200 223/238/215
f 207/221/199 223/238/215 222/237/214
f 208/222/200 209/223/201 224/239/216
f 208/222/200 224/239/216 223/238/215
f 209/223/201 210/224/202 225/240/217
f 209/223/201 225/240/217 224/239/216
f 210/224/202 211/225/203 226/241/218
f 210/224/202 226/241/218 225/240/217
f 211/225/203 197/226/189 212/242/204
f 211/225/203 212/242/204 226/241/218
f 212/228/204 213/227/205 228/243/220
f 212/228/204 228/243/220 227/244/219
f 213/227/205 214/229/206 229/245/221
f 213/227/205 229/245/221 228/243/220
f 214/229/206 215/230/207 230/246/222
f 214/229/206 230/246/222 229/245/221
f 215/230/207 216/231/208 231/247/223
f 215/230/207 231/247/223 230/246/222
f 216/231/208 217/232/209 232/248/224
f 216/231/208 232/248/224 231/247/223
f 217/232/209 218/233/210 233/249/225
f 217/232/209 233/249/225 232/248/224
f 218/233/210 219/234/211 234/250/226
f 218/233/210 234/250/226 233/249/225
f 219/234/211 220/235/212 235/251/227
f 219/234/211 235/251/227 234/250/226
f 220/235/212 221/236/213 236/252/228
f 220/235/212 236/252/228 235/251/227
f 221/236/213 222/237/214 237/253/229
f 221/236/213 237/253/229 236/252/228
f 222/237/214 223/238/215 238/254/230
f 222/237/214 238/254/230 237/253/229
f 223/238/215 224/239/216 239/255/231
f 223/238/215 239/255/231 238/254/230
f 224/239/216 225/240/217 240/256/232
f 224/239/216 240/256/232 239/255/231
f 225/240/217 226/241/218 241/257/233
f 225/240/217 241/257/233 240/256/232
f 226/241/218 212/242/204 227/258/219
f 226/241/218 227/258/219 241/257/233
f 107/129/99 108/130/100 242/259/234
f 227/244/219 228/243/220 243/260/235
f 106/128/98 107/129/99 242/261/234
f 228/243/220 229/245/221 243/262/235
f 105/127/97 106/128/98 242/263/234
f 229/245/221 230/246/222 243/264/235
f 104/126/96 105/127/97 242/265/234
f 230/246/222 231/247/223 243/266/235
f 103/125/95 104/126/96 242/267/234
f 231/247/223 232/248/224 243/268/235
f 102/124/94 103/125/95 242/269/234
f 232/248/224 233/249/225 243/270/235
f 101/123/93 102/124/94 242/271/234
f 233/249/225 234/250/226 243/272/235
f 100/122/92 101/123/93 242/273/234
f 234/250/226 235/251/227 243/274/235
f 99/121/91 100/122/92 242/275/234
f 235/251/227 236/252/228 243/276/235
f 98/120/90 99/121/91 242/277/234
f 236/252/228 237/253/229 243/278/235
f 97/119/89 98/120/90 242/279/234
f 237/253/229 238/254/230 243/280/235
f 96/118/88 97/119/89 242/281/234
f 238/254/230 239/255/231 243/282/235
f 95/117/87 96/118/88 242/283/234
f 239/255/231 240/256/232 243/284/235
f 94/115/86 95/117/87 242/285/234
f 240/256/232 241/257/233 243/286/235
f 108/116/100 94/115/86 242/287/234
f 241/257/233 227/258/219 243/288/235
