# Blender 4.0.2
# www.blender.org
mtllib chimney_small.mtl
o chimney_small
v -1.554366 0.000024 -0.345965
v -1.370363 -0.491765 5.930834
v -1.458269 0.000025 5.930834
v -1.460609 -0.531546 -0.345964
v -1.117098 -0.924197 5.930834
v -1.190730 -0.999078 -0.345964
v -0.729125 -1.245167 5.930834
v -0.777252 -1.346022 -0.345964
v -0.253248 -1.415987 5.930834
v -0.269940 -1.530648 -0.345964
v 0.253206 -1.415987 5.930834
v 0.269821 -1.530648 -0.345964
v 0.729084 -1.245167 5.930834
v 0.777133 -1.346022 -0.345964
v 1.117056 -0.924197 5.930834
v 1.190611 -0.999078 -0.345964
v 1.370244 -0.491765 5.930834
v 1.460569 -0.531546 -0.345964
v 1.458150 0.000025 5.930834
v 1.554324 0.000024 -0.345965
v 1.370244 0.491815 5.930834
v 1.460569 0.531672 -0.345965
v 1.117056 0.924247 5.930834
v 1.190611 0.999126 -0.345965
v 0.729084 1.245295 5.930834
v 0.777133 1.346148 -0.345965
v 0.253206 1.416037 5.930834
v 0.269898 1.530774 -0.345965
v -0.253248 1.416037 5.930834
v -0.269940 1.530774 -0.345965
v -0.729126 1.245295 5.930834
v -0.777252 1.346148 -0.345965
v -1.117098 0.924325 5.930834
v -1.190730 0.999126 -0.345965
v -1.370363 0.491815 5.930834
v -1.460609 0.531672 -0.345965
v -1.288307 -0.452062 11.861624
v -1.370988 0.000026 11.861624
v -1.050251 -0.849706 11.861624
v -0.685523 -1.144780 11.861624
v -0.238116 -1.301794 11.861624
v 0.237997 -1.301794 11.861624
v 0.685404 -1.144780 11.861624
v 1.050132 -0.849705 11.861624
v 1.288188 -0.452061 11.861624
v 1.370869 0.000026 11.861624
v 1.288188 0.452192 11.861624
v 1.050132 0.849758 11.861624
v 0.685404 1.144832 11.861624
v 0.237997 1.301847 11.861624
v -0.238116 1.301846 11.861624
v -0.685523 1.144832 11.861624
v -1.050251 0.849758 11.861624
v -1.288307 0.452192 11.861624
v -1.138704 -0.393170 17.792414
v -1.211789 0.000028 17.792414
v -0.928260 -0.739023 17.792414
v -0.605885 -0.995642 17.792414
v -0.210425 -1.132221 17.792414
v 0.210385 -1.132221 17.792414
v 0.605845 -0.995642 17.792414
v 0.928141 -0.739022 17.792414
v 1.138585 -0.393170 17.792414
v 1.211670 0.000028 17.792414
v 1.138585 0.393304 17.792414
v 0.928141 0.739077 17.792414
v 0.605844 0.995776 17.792414
v 0.210385 1.132353 17.792414
v -0.210425 1.132353 17.792414
v -0.605885 0.995776 17.792414
v -0.928260 0.739077 17.792414
v -1.138704 0.393304 17.792414
v -0.940116 -0.330301 23.723249
v -1.000488 0.000029 23.723249
v -0.766410 -0.620773 23.723249
v -0.500274 -0.836443 23.723249
v -0.173766 -0.951181 23.723249
v 0.173647 -0.951181 23.723249
v 0.500155 -0.836443 23.723249
v 0.766291 -0.620773 23.723249
v 0.940074 -0.330301 23.723249
v 1.000369 0.000029 23.723249
v 0.940074 0.330359 23.723249
v 0.766368 0.620909 23.723249
v 0.500155 0.836501 23.723249
v 0.173647 0.951239 23.723249
v -0.173766 0.951239 23.723249
v -0.500274 0.836501 23.723249
v -0.766410 0.620909 23.723249
v -0.940116 0.330359 23.723249
v -0.761027 -0.261972 29.654036
v -0.809856 0.000030 29.654036
v -0.620393 -0.492306 29.654036
v -0.404958 -0.663360 29.654036
v -0.140693 -0.754308 29.654036
v 0.140574 -0.754308 29.654036
v 0.404839 -0.663360 29.654036
v 0.620274 -0.492306 29.654036
v 0.760908 -0.261972 29.654036
v 0.809737 0.000030 29.654036
v 0.760908 0.262032 29.654036
v 0.620274 0.492444 29.654036
v 0.404839 0.663420 29.654036
v 0.140574 0.754368 29.654036
v -0.140693 0.754368 29.654036
v -0.404958 0.663420 29.654036
v -0.620393 0.492444 29.654036
v -0.761027 0.262032 29.654036
v -0.569108 -0.195892 29.654036
v -0.605622 0.000032 29.654036
v -0.463943 -0.368135 29.654036
v -0.302841 -0.496048 29.654036
v -0.105225 -0.564059 29.654036
v 0.105106 -0.564059 29.654036
v 0.302722 -0.496048 29.654036
v 0.463824 -0.368135 29.654036
v 0.568989 -0.195892 29.654036
v 0.605503 0.000032 29.654036
v 0.568989 0.195956 29.654036
v 0.463824 0.368258 29.654036
v 0.302722 0.496113 29.654036
v 0.105106 0.564124 29.654036
v -0.105225 0.564124 29.654036
v -0.302841 0.496113 29.654036
v -0.463943 0.368258 29.654036
v -0.569108 0.195956 29.654036
v -0.569108 -0.195892 21.746294
v -0.605622 0.000032 21.746294
v -0.463943 -0.368135 21.746294
v -0.302841 -0.496048 21.746294
v -0.105225 -0.564059 21.746294
v 0.105106 -0.564059 21.746294
v 0.302722 -0.496048 21.746294
v 0.463824 -0.368135 21.746294
v 0.568989 -0.195892 21.746294
v 0.605503 0.000032 21.746294
v 0.568989 0.195956 21.746294
v 0.463824 0.368258 21.746294
v 0.302722 0.496113 21.746294
v 0.105106 0.564124 21.746294
v -0.105225 0.564124 21.746294
v -0.302841 0.496113 21.746294
v -0.463943 0.368258 21.746294
v -0.569108 0.195956 21.746294
vn 0.9395 -0.3422 0.0156
vn 0.9999 -0.0000 0.0154
vn 0.9999 -0.0000 0.0151
vn 0.9381 -0.3459 0.0155
vn 0.7657 0.6430 0.0169
vn 0.4997 0.8660 0.0179
vn 0.4949 0.8688 0.0180
vn 0.7617 0.6478 0.0168
vn -0.4997 0.8660 0.0175
vn -0.7658 0.6429 0.0164
vn -0.7616 0.6479 0.0167
vn -0.4948 0.8688 0.0179
vn -0.1734 0.9847 0.0183
vn -0.1711 0.9851 0.0188
vn 0.1735 0.9847 0.0185
vn 0.1715 0.9850 0.0188
vn -0.4996 -0.8661 0.0179
vn -0.1736 -0.9847 0.0184
vn -0.1711 -0.9851 0.0188
vn -0.4948 -0.8688 0.0180
vn -0.7657 -0.6430 0.0169
vn -0.7617 -0.6478 0.0168
vn 0.1683 0.9855 0.0240
vn 0.4873 0.8729 0.0233
vn -0.9395 0.3422 0.0156
vn -0.9999 -0.0000 0.0154
vn -0.9999 -0.0000 0.0151
vn -0.9382 0.3458 0.0155
vn -0.1683 0.9855 0.0240
vn -0.1656 0.9857 0.0301
vn 0.1655 0.9858 0.0299
vn 0.7657 -0.6430 0.0164
vn 0.7617 -0.6477 0.0167
vn 0.4996 -0.8661 0.0175
vn 0.4949 -0.8688 0.0179
vn 0.9380 0.3462 0.0156
vn 0.9359 0.3517 0.0213
vn 0.9998 -0.0000 0.0209
vn -0.9395 -0.3422 0.0159
vn -0.9379 -0.3465 0.0156
vn 0.9337 0.3568 0.0309
vn 0.9995 -0.0000 0.0312
vn -0.1656 -0.9857 0.0299
vn 0.1656 -0.9857 0.0301
vn 0.1679 -0.9853 0.0323
vn -0.1679 -0.9853 0.0325
vn 0.9394 0.3423 0.0159
vn 0.1649 -0.9857 0.0336
vn -0.1650 -0.9857 0.0335
vn 0.9357 -0.3520 0.0213
vn 0.7550 -0.6553 0.0223
vn 0.4872 -0.8730 0.0234
vn 0.1711 -0.9851 0.0188
vn 0.1683 -0.9854 0.0240
vn 0.1735 -0.9847 0.0183
vn 0.7550 0.6554 0.0222
vn -0.9357 0.3521 0.0213
vn -0.7550 0.6554 0.0223
vn -0.9357 -0.3522 0.0212
vn -0.9998 -0.0000 0.0209
vn -0.4871 0.8730 0.0234
vn -0.7550 -0.6554 0.0222
vn -0.7500 -0.6607 0.0304
vn -0.9337 -0.3568 0.0309
vn -0.1683 -0.9854 0.0240
vn -0.4872 -0.8730 0.0233
vn 0.9337 -0.3567 0.0312
vn 0.7500 -0.6607 0.0309
vn 0.4817 -0.8758 0.0305
vn 0.4872 -0.8727 0.0325
vn 0.4817 0.8758 0.0301
vn -0.4817 0.8758 0.0305
vn -0.4816 -0.8759 0.0301
vn -0.9337 0.3567 0.0312
vn -0.7500 0.6607 0.0309
vn -0.9995 -0.0000 0.0312
vn -0.9994 -0.0000 0.0339
vn -0.9354 0.3521 0.0335
vn 0.7501 0.6606 0.0304
vn -0.9995 -0.0000 0.0322
vn -0.9333 0.3577 0.0326
vn 0.9354 0.3520 0.0338
vn 0.9994 -0.0000 0.0339
vn 0.7548 0.6551 0.0335
vn 0.7548 -0.6551 0.0330
vn 0.9353 -0.3522 0.0335
vn 0.9333 -0.3577 0.0326
vn 0.7489 -0.6619 0.0331
vn -0.4871 0.8727 0.0325
vn -0.1679 0.9853 0.0323
vn 0.1679 0.9853 0.0325
vn -0.4872 -0.8727 0.0329
vn -0.7549 -0.6550 0.0335
vn -0.9353 -0.3522 0.0338
vn -0.7549 0.6550 0.0330
vn -0.4804 -0.8764 0.0330
vn 0.4870 0.8728 0.0329
vn 0.9333 0.3578 0.0322
vn 0.9995 -0.0000 0.0322
vn 0.4803 0.8765 0.0330
vn 0.7489 0.6619 0.0325
vn -0.7489 0.6619 0.0331
vn -0.4803 0.8765 0.0335
vn 0.4804 -0.8764 0.0335
vn -0.1649 0.9857 0.0336
vn 0.1651 0.9857 0.0335
vn -0.7489 -0.6619 0.0325
vn -0.9332 -0.3578 0.0322
vn -0.0000 -0.0000 1.0000
vn 0.1650 -0.9863 -0.0000
vn 0.4804 -0.8770 -0.0000
vn -0.4805 0.8770 -0.0000
vn -0.7492 0.6623 -0.0000
vn 0.9337 0.3581 -0.0000
vn 0.7492 0.6623 -0.0000
vn -0.7492 -0.6624 -0.0000
vn -0.4804 -0.8770 -0.0000
vn 1.0000 -0.0000 -0.0000
vn 0.7492 -0.6624 -0.0000
vn 0.9337 -0.3580 -0.0000
vn 0.1650 0.9863 -0.0000
vn -0.1650 0.9863 -0.0000
vn -0.9337 0.3581 -0.0000
vn -1.0000 -0.0000 -0.0000
vn -0.9337 -0.3580 -0.0000
vn 0.4805 0.8770 -0.0000
vn -0.1650 -0.9863 -0.0000
vt 0.576755 0.000247
vt 0.604426 0.000247
vt 0.604427 0.209278
vt 0.577109 0.209278
vt 0.659775 0.000247
vt 0.687447 0.000247
vt 0.686963 0.209278
vt 0.659224 0.209278
vt 0.272351 0.000247
vt 0.300022 0.000247
vt 0.300568 0.209278
vt 0.272832 0.209278
vt 0.244677 0.000247
vt 0.244869 0.209278
vt 0.715118 0.000247
vt 0.742792 0.000247
vt 0.742984 0.209278
vt 0.714926 0.209278
vt 0.438381 0.000247
vt 0.466058 0.000247
vt 0.465866 0.209278
vt 0.437900 0.209278
vt 0.410711 0.000247
vt 0.410163 0.209278
vt 0.714619 0.406785
vt 0.686187 0.406785
vt 0.327692 0.000247
vt 0.355367 0.000247
vt 0.355366 0.209278
vt 0.328051 0.209278
vt 0.743296 0.406785
vt 0.743520 0.604293
vt 0.714391 0.604293
vt 0.549078 0.000247
vt 0.549629 0.209278
vt 0.521406 0.000247
vt 0.521891 0.209278
vt 0.631745 0.209278
vt 0.631189 0.406785
vt 0.604427 0.406785
vt 0.383037 0.000247
vt 0.382682 0.209278
vt 0.630793 0.604293
vt 0.604427 0.604293
vt 0.465329 0.604293
vt 0.494462 0.604293
vt 0.494212 0.801803
vt 0.465572 0.801803
vt 0.632102 0.000247
vt 0.494504 0.999310
vt 0.465278 0.999310
vt 0.577669 0.406785
vt 0.550494 0.406785
vt 0.522665 0.406785
vt 0.493925 0.209278
vt 0.494232 0.406785
vt 0.493729 0.000247
vt 0.658359 0.406785
vt 0.328607 0.406785
vt 0.301438 0.406785
vt 0.382122 0.406785
vt 0.355366 0.406785
vt 0.273612 0.406785
vt 0.409295 0.406785
vt 0.408672 0.604293
vt 0.381725 0.604293
vt 0.245181 0.406785
vt 0.465554 0.406785
vt 0.437122 0.406785
vt 0.578066 0.604293
vt 0.551116 0.604293
vt 0.523233 0.604293
vt 0.522620 0.801803
vt 0.685622 0.604293
vt 0.274173 0.604293
vt 0.245405 0.604293
vt 0.436558 0.604293
vt 0.329003 0.604293
vt 0.302060 0.604293
vt 0.355366 0.604293
vt 0.355365 0.801803
vt 0.328578 0.801803
vt 0.657738 0.604293
vt 0.355365 0.999310
vt 0.329079 0.999310
vt 0.631216 0.801803
vt 0.604428 0.801803
vt 0.658407 0.801803
vt 0.550448 0.801803
vt 0.577639 0.801803
vt 0.578139 0.999310
vt 0.551240 0.999310
vt 0.273569 0.801803
vt 0.245163 0.801803
vt 0.743278 0.801803
vt 0.714639 0.801803
vt 0.437165 0.801803
vt 0.409339 0.801803
vt 0.382153 0.801803
vt 0.301387 0.801803
vt 0.436446 0.999310
vt 0.686233 0.801803
vt 0.630718 0.999310
vt 0.604428 0.999310
vt 0.685517 0.999310
vt 0.657622 0.999310
vt 0.302178 0.999310
vt 0.274286 0.999310
vt 0.523337 0.999310
vt 0.743571 0.999310
vt 0.714348 0.999310
vt 0.408546 0.999310
vt 0.381651 0.999310
vt 0.245457 0.999310
vt 0.123806 0.994254
vt 0.123582 0.994621
vt 0.123332 0.994424
vt 0.123500 0.994149
vt 0.122369 0.995039
vt 0.121948 0.994894
vt 0.122111 0.994627
vt 0.122426 0.994736
vt 0.123806 0.993420
vt 0.123884 0.993837
vt 0.123558 0.993837
vt 0.123500 0.993525
vt 0.123238 0.994894
vt 0.123076 0.994627
vt 0.121605 0.993053
vt 0.121948 0.992780
vt 0.122111 0.993047
vt 0.121854 0.993250
vt 0.121605 0.994621
vt 0.121381 0.994254
vt 0.121687 0.994149
vt 0.121854 0.994424
vt 0.121303 0.993837
vt 0.121381 0.993420
vt 0.121687 0.993525
vt 0.121628 0.993837
vt 0.122817 0.992635
vt 0.123238 0.992780
vt 0.123076 0.993047
vt 0.122761 0.992938
vt 0.123582 0.993053
vt 0.123332 0.993250
vt 0.122817 0.995039
vt 0.122761 0.994736
vt 0.122369 0.992635
vt 0.122426 0.992938
s 1
usemtl condor_chimney
f 18/1/1 20/2/2 19/3/3 17/4/4
f 24/5/5 26/6/6 25/7/7 23/8/8
f 32/9/9 34/10/10 33/11/11 31/12/12
f 30/13/13 32/9/9 31/12/12 29/14/14
f 28/15/15 30/16/13 29/17/14 27/18/16
f 8/19/17 10/20/18 9/21/19 7/22/20
f 6/23/21 8/19/17 7/22/20 5/24/22
f 25/7/7 27/18/16 50/25/23 49/26/24
f 36/27/25 1/28/26 3/29/27 35/30/28
f 50/25/23 51/31/29 69/32/30 68/33/31
f 16/34/32 18/1/1 17/4/4 15/35/33
f 14/36/34 16/34/32 15/35/33 13/37/35
f 19/3/3 21/38/36 47/39/37 46/40/38
f 1/28/26 4/41/39 2/42/40 3/29/27
f 26/6/6 28/15/15 27/18/16 25/7/7
f 46/40/38 47/39/37 65/43/41 64/44/42
f 59/45/43 60/46/44 78/47/45 77/48/46
f 20/2/2 22/49/47 21/38/36 19/3/3
f 77/48/46 78/47/45 96/50/48 95/51/49
f 15/35/33 17/4/4 45/52/50 44/53/51
f 13/37/35 15/35/33 44/53/51 43/54/52
f 11/55/53 13/37/35 43/54/52 42/56/54
f 10/20/18 12/57/55 11/55/53 9/21/19
f 4/41/39 6/23/21 5/24/22 2/42/40
f 23/8/8 25/7/7 49/26/24 48/58/56
f 33/11/11 35/30/28 54/59/57 53/60/58
f 3/29/27 2/42/40 37/61/59 38/62/60
f 35/30/28 3/29/27 38/62/60 54/59/57
f 31/12/12 33/11/11 53/60/58 52/63/61
f 37/61/59 39/64/62 57/65/63 55/66/64
f 29/14/14 31/12/12 52/63/61 51/67/29
f 9/21/19 11/55/53 42/56/54 41/68/65
f 34/10/10 36/27/25 35/30/28 33/11/11
f 5/24/22 7/22/20 40/69/66 39/64/62
f 21/38/36 23/8/8 48/58/56 47/39/37
f 17/4/4 19/3/3 46/40/38 45/52/50
f 45/52/50 46/40/38 64/44/42 63/70/67
f 44/53/51 45/52/50 63/70/67 62/71/68
f 60/46/44 61/72/69 79/73/70 78/47/45
f 49/26/24 50/25/23 68/33/31 67/74/71
f 12/57/55 14/36/34 13/37/35 11/55/53
f 51/67/29 52/63/61 70/75/72 69/76/30
f 39/64/62 40/69/66 58/77/73 57/65/63
f 53/60/58 54/59/57 72/78/74 71/79/75
f 72/78/74 56/80/76 74/81/77 90/82/78
f 54/59/57 38/62/60 56/80/76 72/78/74
f 48/58/56 49/26/24 67/74/71 66/83/79
f 52/63/61 53/60/58 71/79/75 70/75/72
f 90/82/78 74/81/77 92/84/80 108/85/81
f 41/68/65 42/56/54 60/46/44 59/45/43
f 40/69/66 41/68/65 59/45/43 58/77/73
f 43/54/52 44/53/51 62/71/68 61/72/69
f 47/39/37 48/58/56 66/83/79 65/43/41
f 38/62/60 37/61/59 55/66/64 56/80/76
f 64/44/42 65/43/41 83/86/82 82/87/83
f 65/43/41 66/83/79 84/88/84 83/86/82
f 80/89/85 81/90/86 99/91/87 98/92/88
f 69/76/30 70/75/72 88/93/89 87/94/90
f 68/33/31 69/32/30 87/95/90 86/96/91
f 58/77/73 59/45/43 77/48/46 76/97/92
f 57/65/63 58/77/73 76/97/92 75/98/93
f 55/66/64 57/65/63 75/98/93 73/99/94
f 42/56/54 43/54/52 61/72/69 60/46/44
f 63/70/67 64/44/42 82/87/83 81/90/86
f 71/79/75 72/78/74 90/82/78 89/100/95
f 70/75/72 71/79/75 89/100/95 88/93/89
f 76/97/92 77/48/46 95/51/49 94/101/96
f 7/22/20 9/21/19 41/68/65 40/69/66
f 67/74/71 68/33/31 86/96/91 85/102/97
f 61/72/69 62/71/68 80/89/85 79/73/70
f 66/83/79 67/74/71 85/102/97 84/88/84
f 56/80/76 55/66/64 73/99/94 74/81/77
f 82/87/83 83/86/82 101/103/98 100/104/99
f 84/88/84 85/102/97 103/105/100 102/106/101
f 88/93/89 89/100/95 107/107/102 106/108/103
f 78/47/45 79/73/70 97/109/104 96/50/48
f 86/96/91 87/95/90 105/110/105 104/111/106
f 85/102/97 86/96/91 104/111/106 103/105/100
f 75/98/93 76/97/92 94/101/96 93/112/107
f 89/100/95 90/82/78 108/85/81 107/107/102
f 2/42/40 5/24/22 39/64/62 37/61/59
f 81/90/86 82/87/83 100/104/99 99/91/87
f 73/99/94 75/98/93 93/112/107 91/113/108
f 79/73/70 80/89/85 98/92/88 97/109/104
f 87/94/90 88/93/89 106/108/103 105/114/105
f 22/49/47 24/5/5 23/8/8 21/38/36
f 62/71/68 63/70/67 81/90/86 80/89/85
f 83/86/82 84/88/84 102/106/101 101/103/98
f 74/81/77 73/99/94 91/113/108 92/84/80
f 101/115/109 102/116/109 120/117/109 119/118/109
f 105/119/109 106/120/109 124/121/109 123/122/109
f 99/123/109 100/124/109 118/125/109 117/126/109
f 102/116/109 103/127/109 121/128/109 120/117/109
f 93/129/109 94/130/109 112/131/109 111/132/109
f 100/124/109 101/115/109 119/118/109 118/125/109
f 107/133/109 108/134/109 126/135/109 125/136/109
f 92/137/109 91/138/109 109/139/109 110/140/109
f 96/141/109 97/142/109 115/143/109 114/144/109
f 108/134/109 92/137/109 110/140/109 126/135/109
f 91/138/109 93/129/109 111/132/109 109/139/109
f 98/145/109 99/123/109 117/126/109 116/146/109
f 104/147/109 105/119/109 123/122/109 122/148/109
f 103/127/109 104/147/109 122/148/109 121/128/109
f 97/142/109 98/145/109 116/146/109 115/143/109
f 106/120/109 107/133/109 125/136/109 124/121/109
f 94/130/109 95/149/109 113/150/109 112/131/109
f 95/149/109 96/141/109 114/144/109 113/150/109
f 123/122/110 124/121/111 142/121/111 141/122/110
f 115/143/112 116/146/113 134/146/113 133/143/112
f 109/139/114 111/132/115 129/132/115 127/139/114
f 120/117/116 121/128/117 139/128/117 138/117/116
f 110/140/118 109/139/114 127/139/114 128/140/118
f 124/121/111 125/136/119 143/136/119 142/121/111
f 126/135/120 110/140/118 128/140/118 144/135/120
f 113/150/121 114/144/122 132/144/122 131/150/121
f 117/126/123 118/125/124 136/125/124 135/126/123
f 119/118/125 120/117/116 138/117/116 137/118/125
f 111/132/115 112/131/126 130/131/126 129/132/115
f 122/148/127 123/122/110 141/122/110 140/148/127
f 116/146/113 117/126/123 135/126/123 134/146/113
f 125/136/119 126/135/120 144/135/120 143/136/119
f 112/131/126 113/150/121 131/150/121 130/131/126
f 118/125/124 119/118/125 137/118/125 136/125/124
f 114/144/122 115/143/112 133/143/112 132/144/122
f 121/128/117 122/148/127 140/148/127 139/128/117
f 138/117/109 139/128/109 140/148/109 141/122/109 142/121/109 143/136/109 144/135/109 128/140/109 127/139/109 129/132/109 130/131/109 131/150/109 132/144/109 133/143/109 134/146/109 135/126/109 136/125/109 137/118/109
f 27/18/16 29/17/14 51/31/29 50/25/23
