# Blender 5.1.2
# www.blender.org
mtllib turbine.mtl
o Pylon_Windturbine.001
v 1.500000 -0.000013 82.000000
v 3.500000 0.000000 0.000000
v 0.000000 -1.500013 82.000000
v 0.000000 -3.500000 -0.000001
v -1.500000 -0.000013 82.000000
v -3.500000 -0.000000 -0.000000
v -0.000000 1.499987 82.000000
v -0.000000 3.500000 0.000001
v -2.000000 5.841138 82.000000
v 2.000000 5.841138 82.000000
v 2.000000 -3.764690 82.000000
v -2.000000 -3.764690 82.000000
v 2.000000 -4.502075 86.000000
v -2.000000 -4.502075 86.000000
v 2.000000 5.841137 86.466026
v -2.000000 5.841137 86.466026
vn -0.0000 -0.9997 0.0244
vn 0.9997 -0.0000 0.0244
vn -0.9997 -0.0000 0.0244
vn -0.0000 0.9997 0.0244
vn -0.0000 -0.0000 -1.0000
vn -0.0000 -0.7071 -0.7071
vn -0.0000 -0.8089 0.5880
vn 1.0000 -0.0000 -0.0000
vn -1.0000 -0.0000 -0.0000
vn -0.0000 1.0000 -0.0000
vn -0.0000 -0.0641 0.9979
vn -0.0000 -0.0000 1.0000
vt 0.357511 0.000000
vt 0.357511 0.995137
vt 0.325438 0.998784
vt 0.325438 0.001563
vt 0.261202 0.001563
vt 0.261202 0.998784
vt 0.229129 0.995137
vt 0.229129 0.000000
vt 0.293320 0.002084
vt 0.293320 1.000000
vt 0.393518 0.000000
vt 0.553956 0.002310
vt 0.548915 0.387099
vt 0.387971 0.385287
vt 0.549998 0.570476
vt 0.385522 0.571097
vt 0.994357 0.000000
vt 0.994357 0.181909
vt 0.573061 0.162927
vt 0.603096 0.000000
vt 0.945218 0.181909
vt 0.975252 0.344835
vt 0.553956 0.363817
vt 0.553956 0.181909
vt 0.716883 0.545726
vt 0.553956 0.545726
vt 0.716883 0.363817
vt 0.553956 0.998150
vt 0.388480 1.000000
s 1
usemtl Turbine
f 3/1/1 4/2/1 2/3/2 1/4/2
f 5/5/3 6/6/3 4/7/1 3/8/1
f 7/9/4 8/10/4 6/6/3 5/5/3
f 9/11/5 10/12/5 11/13/5 12/14/5
f 12/14/6 11/13/6 13/15/7 14/16/7
f 10/17/8 15/18/8 13/19/8 11/20/8
f 12/21/9 14/22/9 16/23/9 9/24/9
f 16/25/10 15/26/10 10/23/10 9/27/10
f 13/15/11 15/28/12 16/29/12 14/16/11
f 2/3/2 8/10/4 7/9/4 1/4/2
